<svg xmlns="http://www.w3.org/2000/svg" width="100" height="60" viewBox="0 0 100 60">
    <g fill="none" fill-rule="evenodd">
        <rect width="100" height="60" fill="#F5F5F5" rx="4" transform="matrix(1 0 0 -1 0 60)"/>
        <g fill="#242021">
            <text font-family="Rubik-Regular, Rubik" font-size="13" letter-spacing="1.25" transform="translate(-1 10)">
                <tspan x="22.935" y="35">BOLET</tspan> <tspan x="69.29" y="35">O</tspan>
            </text>
            <g fill-rule="nonzero">
                <path d="M16 10h3v27h-3zM14 10h-2v27h2zM87 10h-3v27h3zM20 10h3v22h-3zM24 10h2v22h-2zM68 10h5v22h-5zM53 10h-7v22h7zM57 10h-2v22h2zM62 10h-3v22h3zM30 10h3v22h-3zM35 10h2v22h-2zM64 10h1v22h-1zM28 10h1v22h-1zM38 10h2v22h-2zM41 10h3v22h-3zM75 10h3v22h-3zM80 10h2v27h-2z"/>
            </g>
        </g>
    </g>
</svg>
