<svg id="svg2" xmlns:rdf="http://www.w3.org/1999/02/22-rdf-syntax-ns#" xmlns="http://www.w3.org/2000/svg" height="280.43" width="354.33" version="1.1" xmlns:cc="http://creativecommons.org/ns#" xmlns:dc="http://purl.org/dc/elements/1.1/">
<defs id="defs4">
<clipPath id="clipPath8545" clipPathUnits="userSpaceOnUse">
<path id="path8547" d="M0,934.75,0,0h1181.1v934.75h-1181.1z"/>
</clipPath>
</defs>
<metadata id="metadata7">
<rdf:RDF>
<cc:Work rdf:about="">
<dc:format>image/svg+xml</dc:format>
<dc:type rdf:resource="http://purl.org/dc/dcmitype/StillImage"/>
<dc:title/>
</cc:Work>
</rdf:RDF>
</metadata>
<g id="layer1" transform="translate(-48.637408,-690.83898)">
<g id="g8537" transform="matrix(1.25,0,0,-1.25,48.637408,971.26488)">
<g id="g8539" transform="scale(0.24,0.24)">
<g id="g8541">
<g id="g8543" fill-rule="nonzero" clip-path="url(#clipPath8545)">
<path id="path8549" d="m823.13,161.59c-26.457,0-56.578-14.551-56.578-50.156,0-55.696,65.277-37.325,65.277-63.43,0-10.641-9.187-12.398-18.605-12.398-16.551,0-32.418,5.3164-43.098,10.656v-36.781c12.12-4.9262,26.27-9.477,45.63-9.477,30.109,0,61.977,10.359,61.977,51.578,0,58.695-68.36,39.723-68.36,63.735,0,8.613,11.274,10.921,21.184,10.691,10.57-0.277,26.949-4.68,36.648-11.512v37.903c-14.023,5.996-29.269,9.195-44.066,9.195m-118.43-66.123c0,17.777-7.133,32.309-25.488,32.309-16.555,0-24.461-14.532-25.488-32.309h50.976zm41.289-30.242-91.742,0c2.539-21.316,16.563-29.633,39.004-29.633,12.5,0,26.754,3.2578,40.535,11.84v-37.648c-14.78-6.7779-31.62-9.774-48.72-9.774-43.817,0-77.223,29.945-77.223,80.945,0,50.957,29.828,80.645,71.156,80.645,49.199,0,67-40.641,67-86.582v-9.793zm-490.02,96.375c-19.91,0-31.364-12.473-39.297-32.004h-0.477v28.43h-41.808v-154.44h45.898v65.215c0,30.188,11.828,48.391,33.211,49.93,4.422,0.32,11.777-0.957,15.723-2.489v42.977c-3.887,1.406-9.114,2.379-13.25,2.379m112.66-88.531c-5.871,0.2656-12.773,0.8633-19.652,0.8633-15.563,0-27.801-5.6563-27.801-20.449,0-10.676,8.172-16.914,18.875-16.914,12.492,0,22.523,5.4492,28.578,16.012v20.488zm0.207-69.48,0,20.395c-8.43-15.697-23.4-23.974-40.76-23.974-26.246,0-49.73,15.133-49.73,48.621,0,47.141,44.133,52.797,68.601,52.797,7.422,0,15.524-0.922,21.411-2.1172-0.278,21.07-13.75,26.703-30.309,26.703-14.793,0-29.605-3.274-42.336-11.57l-0.019,0.414v36.105c16.097,7.438,32.925,10.637,52.257,10.637,33.91,0,63.246-16.926,63.246-64.051v-57.535c0-12.133,0.497-24.238,2.536-36.426h-44.895zm764.87,77.05c0-22.812-8.71-43.266-29.83-43.266-21.17,0-29.82,20.453-29.82,43.266,0,23.144,8.65,43.562,29.82,43.562,21.12,0,29.83-20.418,29.83-43.562m-107.09,0c0-50.964,33.4-80.628,77.3-80.628,43.84,0,77.25,29.664,77.25,80.629,0,51.273-33.41,80.961-77.25,80.961-43.87,0-77.26-29.688-77.26-80.961m-516.5-39.707c-17.328,0-27.777,16.894-27.777,41.504,0,20.433,9.953,38.187,27.777,38.187,16.817,0,28.051-16.84,28.051-40.25,0-22.547-12.746-39.441-28.051-39.441m73.922,170.1-46.121,0,0-72.879-0.508,0c-11.75,17.81-27.29,23.45-45.62,23.45-36.73,0-56.87-40.04-56.87-78.004,0-45.625,21.13-83.586,60.66-83.586,19.563,0,36.699,9.625,45.653,26.785h0.488v-23.207h42.316v207.44zm-536.68-39.692,17.965,0c15.797,0,31.09-1.762,31.09-20.75,0-17.457-16.09-21.91-31.625-21.91h-17.43v42.66zm0-80.027,18.703,0c16.32,0,34.933-2.0586,34.933-24.57,0-21.035-18.117-24.031-35.437-24.031h-18.199v48.602zm-47.44-87.744h79.148c31.86,0,69.352,10.375,69.352,59.875,0,25.211-12.254,40.023-35.953,45.683v0.574c19.91,7.7,31.348,22.211,31.348,48.325,0,35.562-24.707,52.461-57.86,52.461h-86.04v-206.92zm1004.6,39.964c1.86-4.832,6.5-17.812,16.56-31.461-2.41-1.168-8.15-3.8203-11.69-5.207,0,0-16.258-6.8555-37.449-6.8398-43.852,0.023438-77.266,29.648-77.266,80.613,0,51.273,33.414,80.961,77.266,80.961,12.258,0,23.222-2.449,32.909-6.817v0.04c6.43-3.114,11.23-6.141,14.09-8.204-7.21-9.57-12.95-21.179-16.39-33.414-7.226,4.93-14.93,7.7-25.976,7.719-19.852,0.02-34.496-14.48-34.496-41.148,0-24.476,17.519-39.613,37.308-39.762,10.301-0.0391,17.707,3.0508,21.854,5.2617,0.7,0.2422,1.61,0.7891,2.11,0.9571,0.27,0.0898,0.48-1.0118,1.17-2.6993" fill="#717073"/>
<path id="path8551" d="m280.19,314.02,620.73,0,0,620.73-620.73,0,0-620.73z" fill="#e41836"/>
<path id="path8553" d="m531.99,401.27,30.562,0,0,156.59-30.562,0,0-156.59z" fill="#FFF"/>
<path id="path8555" d="m590.35,401.27,50.062,0,0,214.95-50.062,0,0-214.95z" fill="#FFF"/>
<path id="path8557" d="m504.58,765.92s50.469,49.332,135.51,33.101c0,0,37.43-5.82,66.125-31.3,0,0,4.266-4,7.531-0.723,0,0,4.168,3.266-0.457,8.152,0,0-24.668,34.207-73.344,49.328,0,0-66.882,23.946-135.59-8.41,0,0-42.293-17.527-65.75-65.277,0,0-33.438-10.801-58.504-24.859,0,0-7.41-2.934-4.614-8.692,0,0,2.399-4.137,8.883-1.066,0,0,23.282,8.035,45.719,13.051,0,0-18.051-46.805,0.797-104.9,8.383-25.863,23.687-52.187,47.078-73.348,0,0,3.809-4.004,7.957-1.273,0,0,3.613,2.625,1.07,6.91,0,0-18.656,28.067-25.894,67.984-6.035,32.547-3.192,77.489,19.41,113.12,0,0,86.066,12.007,159.42-15.614,0,0,124.59-40.656,93.23-116.07,0,0-9.105-26.211-43.504-49.891,0,0-5.761-3.355-2.64-8.164,0,0,2.601-3.746,8.5-1.347,0,0,52.668,17.128,75.406,59.441,0,0,46.106,70.566-62.637,128.14,0,0-29.894,15.976-68.336,24.523,0,0-69.261,17.133-135.36,7.172" fill="#FFF"/>
</g>
</g>
</g>
</g>
</g>
</svg>
