<?xml version="1.0" encoding="UTF-8" standalone="no"?>
<svg
xmlns:dc="http://purl.org/dc/elements/1.1/"
xmlns:cc="http://creativecommons.org/ns#"
xmlns:rdf="http://www.w3.org/1999/02/22-rdf-syntax-ns#"
xmlns:svg="http://www.w3.org/2000/svg"
xmlns="http://www.w3.org/2000/svg"
xmlns:sodipodi="http://sodipodi.sourceforge.net/DTD/sodipodi-0.dtd"
xmlns:inkscape="http://www.inkscape.org/namespaces/inkscape"
width="205.51265"
height="46.553631"
id="svg2"
version="1.1"
inkscape:version="0.48.0 r9654"
sodipodi:docname="New document 1">
<defs
id="defs4" />
<sodipodi:namedview
id="base"
pagecolor="#ffffff"
bordercolor="#666666"
borderopacity="1.0"
inkscape:pageopacity="0.0"
inkscape:pageshadow="2"
inkscape:zoom="0.35"
inkscape:cx="90.215542"
inkscape:cy="-10.296408"
inkscape:document-units="px"
inkscape:current-layer="layer1"
showgrid="false"
fit-margin-top="0"
fit-margin-left="0"
fit-margin-right="0"
fit-margin-bottom="0"
inkscape:window-width="607"
inkscape:window-height="532"
inkscape:window-x="22"
inkscape:window-y="26"
inkscape:window-maximized="0" />
<metadata
id="metadata7">
<rdf:RDF>
<cc:Work
rdf:about="">
<dc:format>image/svg+xml</dc:format>
<dc:type
rdf:resource="http://purl.org/dc/dcmitype/StillImage" />
<dc:title></dc:title>
</cc:Work>
</rdf:RDF>
</metadata>
<g
inkscape:label="Layer 1"
inkscape:groupmode="layer"
id="layer1"
transform="translate(-284.78446,-475.51214)">
<g
id="g2995"
transform="matrix(1.25,0,0,-1.25,15.493106,1024.9702)">
<g
id="g2997"
transform="scale(0.24,0.24)">
<path
inkscape:connector-curvature="0"
d="m 1107.19,1780.04 -17.74,-44.21 24.55,0 -6.73,44.39 -0.08,-0.18 z m -93.98,-101.49 72.77,149.83 55.02,0 30.68,-149.83 -48.3,0 -3.56,19.97 -46.86,0 -10.78,-19.97 -48.97,0 z m 181.34,0 21.08,149.83 48.67,0 -21.07,-149.83 -48.68,0 z m 323.71,101.67 -17.81,-44.39 24.54,0 -6.73,44.39 z m -94.06,-101.67 72.78,149.83 55.01,0 30.69,-149.83 -48.31,0 -3.55,19.97 -46.87,0 -10.78,-19.97 -48.97,0"
style="fill:#0070af;fill-opacity:1;fill-rule:evenodd;stroke:none"
id="path3001" />
<path
inkscape:connector-curvature="0"
d="m 1316.6,1748.61 60.99,0 41.79,-69.21 -61,0 -41.78,69.21"
style="fill:#0070af;fill-opacity:1;fill-rule:evenodd;stroke:none"
id="path3003" />
<path
inkscape:connector-curvature="0"
d="m 1322.94,1759.24 63.04,0 54.75,68.92 -63.04,0 -54.75,-68.92"
style="fill:#f6822a;fill-opacity:1;fill-rule:evenodd;stroke:none"
id="path3005" />
<path
inkscape:connector-curvature="0"
d="m 1259.91,1678.98 63.03,0 54.75,69.76 -63.04,0 -54.74,-69.76"
style="fill:#f6822a;fill-opacity:1;fill-rule:evenodd;stroke:none"
id="path3007" />
<path
inkscape:connector-curvature="0"
d="m 1282.64,1829 58.83,0 40.31,-69.76 -58.84,0 -40.3,69.76"
style="fill:#0070af;fill-opacity:1;fill-rule:evenodd;stroke:none"
id="path3009" />
<path
inkscape:connector-curvature="0"
d="m 1014.65,1823.02 -4.68,-44.07 c -17.939,24.75 -59.517,7.67 -62.782,-23.16 -4.149,-39.13 35.867,-48.25 57.642,-25.21 l -4.69,-44.17 c -6.499,-3.19 -12.855,-5.67 -19.128,-7.34 -6.239,-1.68 -12.492,-2.57 -18.696,-2.7 -7.8,-0.17 -14.867,0.65 -21.234,2.44 -6.367,1.76 -12.129,4.56 -17.227,8.34 -9.832,7.19 -16.941,16.33 -21.32,27.45 -4.379,11.16 -5.82,23.75 -4.328,37.82 1.203,11.31 4.051,21.62 8.59,30.97 4.5,9.34 10.734,17.84 18.672,25.54 7.504,7.34 15.676,12.88 24.519,16.64 8.809,3.73 18.422,5.72 28.813,5.94 6.207,0.13 12.297,-0.49 18.207,-1.92 5.942,-1.42 11.802,-3.64 17.642,-6.57"
style="fill:#0070af;fill-opacity:1;fill-rule:evenodd;stroke:none"
id="path3011" />
</g>
</g>
<g
id="g3013"
transform="matrix(1.25,0,0,-1.25,15.493106,1024.9702)" />
</g>
</svg>
