<?xml version="1.0" encoding="UTF-8" standalone="no"?>
<!-- Created with Inkscape (http://www.inkscape.org/) -->

<svg
   xmlns:dc="http://purl.org/dc/elements/1.1/"
   xmlns:cc="http://creativecommons.org/ns#"
   xmlns:rdf="http://www.w3.org/1999/02/22-rdf-syntax-ns#"
   xmlns:svg="http://www.w3.org/2000/svg"
   xmlns="http://www.w3.org/2000/svg"
   version="1.1"
   width="595.97479"
   height="197.74532"
   id="svg2">
  <defs
     id="defs4">
 <style
   type="text/css"
   id="style2989" />

  </defs>
  <metadata
     id="metadata7">
    <rdf:RDF>
      <cc:Work
         rdf:about="">
        <dc:format>image/svg+xml</dc:format>
        <dc:type
           rdf:resource="http://purl.org/dc/dcmitype/StillImage" />
        <dc:title></dc:title>
      </cc:Work>
    </rdf:RDF>
  </metadata>
  <g
     transform="translate(-52.012614,-433.48952)"
     id="layer1">
    <g
       transform="matrix(3.543307,0,0,3.543307,-13.537534,48.099612)"
       id="g3034"
       style="fill-rule:evenodd">
      <g
         id="Camada_x0020_1">
  <metadata
   id="CorelCorpID_0Corel-Layer" />

  <path
   d="m 50.4046,151.628 c -10.2768,9.3582 -23.2325,0.2818 -22.6863,-10.0442 0.406,-7.6748 8.3058,-15.7753 18.3569,-11.7956 l 3.656,-8.4665 c -21.7932,-7.1005 -33.3768,11.5364 -30.9021,24.09 4.0009,20.2941 25.8808,24.111 37.9255,12.8548 l -6.35,-6.6385 z"
   id="path2993"
   style="fill:none" />

  <path
   d="m 69.791,135.609 c 0.2903,-8.1607 -8.0979,-9.8609 -12.6036,-11.6414 l -3.656,8.3702 7.4083,3.2712 0.1924,28.0935 8.5627,0 0.0962,-28.0935 z"
   id="path2995"
   style="fill:none" />

  <line
   id="line2997"
   y2="153.312"
   x2="90.861099"
   y1="161.008"
   x1="86.050499"
   class="fil0"
   style="fill:none" />

  <path
   d="m 90.8611,153.312 c 6.2802,3.3093 11.7321,2.732 16.3558,-1.7318 l 6.6385,6.6385 c -9.8392,7.627 -16.9909,8.1721 -27.8049,2.79"
   id="path2999"
   style="fill:none" />

  <path
   d="m 79.3159,154.274 c -8.2646,-12.9658 -1.8383,-27.7385 9.0989,-32.6133 11.6056,-5.1728 27.3001,-0.4022 31.598,15.2955 L 79.3159,154.274 z"
   id="path3001"
   style="fill:none" />

  <path
   d="m 84.6554,143.642 c -0.155,-15.2776 15.9764,-19.2862 23.2829,-10.0058 L 84.6554,143.642 z"
   id="path3003"
   style="fill:none" />

  <path
   d="m 132.905,152.927 -0.1925,-43.487 -8.4664,0 0.0962,43.9681 c -0.0261,8.1497 8.3965,9.2584 12.5073,11.1604 l 3.3674,-8.3703 -7.312,-3.2712 z"
   id="path3005"
   style="fill:none" />

  <path
   d="m 173.217,151.964 c -8.4948,9.2692 -27.865,-1.2819 -20.8776,-15.4898 l -8.4664,-4.2333 c -9.4383,21.3695 14.666,43.0585 35.4053,26.4578 l -6.0613,-6.7347 z"
   id="path3007"
   style="fill:none" />

  <path
   d="m 176.248,147.875 c 5.9826,-14.7474 -10.6939,-24.8174 -20.8777,-15.49 l -6.2536,-6.9271 c 16.7848,-14.9827 45.5517,1.0203 35.5016,26.3617 l -8.3703,-3.9446 z"
   id="path3009"
   style="fill:none" />

  <ellipse
   cx="65.4133"
   cy="114.827"
   rx="6.1093502"
   ry="6.0611801"
   id="ellipse3011"
   style="fill:none" />

  <path
   d="m 50.4046,151.628 c -10.2768,9.3582 -23.2325,0.2818 -22.6863,-10.0442 0.406,-7.6748 8.3058,-15.7753 18.3569,-11.7956 l 3.656,-8.4665 c -21.7932,-7.1005 -33.3768,11.5364 -30.9021,24.09 4.0009,20.2941 25.8808,24.111 37.9255,12.8548 l -6.35,-6.6385 z"
   id="path3013"
   style="fill:#000000" />

  <path
   d="m 60.9397,135.609 0.1924,28.0935 8.5627,0 0.0962,-28.0935 c 0.2903,-8.1607 -8.0979,-9.8609 -12.6036,-11.6414 l -3.656,8.3702 7.4083,3.2712 z"
   id="path3015"
   style="fill:#000000" />

  <path
   d="m 88.4148,121.66 c -10.9372,4.8748 -17.3635,19.6475 -9.0989,32.6133 l 40.6969,-17.3178 C 115.7149,121.2578 100.0204,116.4872 88.4148,121.66 z m -3.7594,21.982 c -0.155,-15.2776 15.9764,-19.2862 23.2829,-10.0058 L 84.6554,143.642 z"
   id="path3017"
   style="fill:#000000" />

  <path
   d="m 107.217,151.58 c -4.6237,4.4638 -10.0756,5.0411 -16.3558,1.7318 l -4.8106,7.6967 c 10.814,5.3821 17.9657,4.837 27.8049,-2.79 L 107.217,151.58 z"
   id="path3019"
   style="fill:#000000" />

  <path
   d="m 124.246,109.44 0.0962,43.9681 c -0.0261,8.1497 8.3965,9.2584 12.5073,11.1604 l 3.3674,-8.3703 -7.312,-3.2712 -0.1925,-43.487 -8.4664,0 z"
   id="path3021"
   style="fill:#000000" />

  <path
   d="m 143.873,132.241 c -9.4383,21.3695 14.666,43.0585 35.4053,26.4578 l -6.0613,-6.7347 c -8.4948,9.2692 -27.865,-1.2819 -20.8776,-15.4898 l -8.4664,-4.2333 z"
   id="path3023"
   style="fill:#000000" />

  <path
   d="m 155.37,132.386 c 10.1838,-9.3274 26.8603,0.7426 20.8777,15.49 l 8.3703,3.9446 c 10.0501,-25.3414 -18.7168,-41.3444 -35.5016,-26.3617 l 6.2536,6.9271 z"
   id="path3025"
   style="fill:#01aef0" />

  <path
   d="m 65.4134,120.888 c 3.374,0 6.1093,-2.7136 6.1093,-6.0612 0,-3.3476 -2.7353,-6.0612 -6.1093,-6.0612 -3.3741,0 -6.1094,2.7136 -6.1094,6.0612 0,3.3476 2.7353,6.0612 6.1094,6.0612 z"
   id="path3027"
   style="fill:#01aef0" />

 </g>
    </g>
  </g>
</svg>
