<?xml version="1.0" encoding="utf-8"?>
<!-- Generator: Adobe Illustrator 16.0.0, SVG Export Plug-In . SVG Version: 6.00 Build 0)  -->
<svg version="1.2" baseProfile="tiny" id="Layer_1" xmlns="http://www.w3.org/2000/svg" xmlns:xlink="http://www.w3.org/1999/xlink"
	 x="0px" y="0px" width="500px" height="500px" viewBox="0 0 500 500" xml:space="preserve">
<g>
	<path fill="#231F20" d="M32.511,347.875h77.473v-12.497H47.349v-38.576h57.947v-12.491H47.349v-35.462h62.161v-12.491H32.511
		V347.875z M125.205,347.875h13.277V236.357h-13.277V347.875z M207.264,319.761c0,7.341-7.202,18.271-24.676,18.271
		c-8.121,0-15.605-3.121-15.605-11.866c0-9.844,7.497-12.965,16.242-14.526c8.901-1.56,18.901-1.717,24.051-5.468v13.59H207.264z
		 M228.818,337.251c-1.295,0.507-2.673,0.771-4.063,0.78c-4.202,0-4.202-2.809-4.202-9.058v-41.542
		c0-18.901-15.773-22.208-30.3-22.208c-17.959,0-33.427,7.028-34.213,27.01h13.276c0.601-11.873,8.902-15.306,20.15-15.306
		c8.434,0,17.959,1.873,17.959,13.434c0,9.993-12.497,9.057-27.179,11.872c-13.745,2.653-27.335,6.561-27.335,24.832
		c0,16.086,12.005,22.646,26.711,22.646c11.242,0,21.086-3.907,28.427-12.497c0,8.745,4.37,12.497,11.242,12.497
		c4.202,0,7.203-0.78,9.526-2.19V337.251z M304.237,267.126h-13.901l-22.022,67.316h-0.313l-22.652-67.316h-14.838l30.012,80.749
		h14.214L304.237,267.126z M308.085,307.581c0,23.583,13.59,42.173,39.201,42.173c25.612,0,39.201-18.607,39.201-42.173
		c0-23.739-13.589-42.328-39.201-42.328C321.675,265.253,308.085,283.86,308.085,307.581 M322.143,307.581
		c0-19.681,11.248-30.611,25.144-30.611s25.145,10.931,25.145,30.611c0,19.526-11.249,30.457-25.145,30.457
		S322.143,327.107,322.143,307.581 M400.642,347.875h13.277v-45.617c0-14.526,7.803-25.301,23.895-25.301
		c10.15,0,16.398,6.405,16.398,16.243v54.669h13.277v-53.097c0-17.335-6.561-29.52-27.803-29.52
		c-11.555,0-20.618,4.688-26.242,14.682h-0.313v-12.809h-12.49V347.875z"/>
	<path fill="#67B2E8" d="M286.17,259.179c22.852-36.614,40.457-60.714,53.56-76.53c-2.133,0.44-4.27,0.932-6.41,1.477
		C311.471,215.224,286.17,259.179,286.17,259.179z"/>
	<path fill="#001970" d="M386.439,173.813h-0.072c0.175,2.953,0.271,6.393,0.241,10.324c3.778,1.422,7.244,3.567,10.203,6.314
		c10.372,9.951,16.633,30.186,4.052,68.925c0,0,3.602-4.718,7.977-19.982C416.025,214.335,417.094,179.798,386.439,173.813z"/>
	<path fill="#67B2E8" d="M386.362,173.795c-0.235-4.045-0.601-7.203-0.943-9.43c-0.409-2.304-0.973-4.578-1.687-6.807
		c-0.99-3.001-2.533-4.862-3.438-5.474c-0.609-0.421-1.313-0.683-2.048-0.762l-10.762-1.075
		c-6.219-0.162-16.087,10.769-16.087,10.769c-4.146,4.524-8.036,9.276-11.656,14.231c2.677-0.601,5.229-1.141,7.72-1.567
		c16.686-18.559,23.811-20.864,23.811-20.864c2.665,4.333,3.235,12.725,3.224,19.207c0,4.856-0.342,8.644-0.366,8.926v0.03
		c-1.921,21.771-6.423,38.373-10.804,50.323c-7.75,21.183-15.396,28.104-15.396,28.104c15.576-0.079,24.651,7.011,24.651,7.011
		l0.145-0.462c10.948-37.215,13.732-64.382,13.877-81.873C386.649,180.188,386.535,176.749,386.362,173.795z"/>
	<path fill="#001970" d="M357.004,172.409c-3.175,0.318-6.309,0.72-9.543,1.272c-2.491,0.426-5.043,0.937-7.72,1.567
		c-7.867,1.924-15.608,4.33-23.181,7.203c-55.102,20.239-111.781,76.842-111.781,76.842s65.846-59.226,128.54-75.162
		c2.141-0.544,4.277-1.036,6.41-1.477c6.99-1.486,14.108-2.3,21.255-2.431c4.392-0.069,8.784,0.185,13.139,0.763
		c0-0.288,0.354-4.076,0.366-8.925C368.661,171.696,362.813,171.813,357.004,172.409z"/>
</g>
</svg>
