<?xml version="1.0" encoding="UTF-8"?>
<svg width="126px" height="79px" viewBox="0 0 126 79" version="1.1" xmlns="http://www.w3.org/2000/svg" xmlns:xlink="http://www.w3.org/1999/xlink">
    <!-- Generator: Sketch 50.2 (55047) - http://www.bohemiancoding.com/sketch -->
    <title>Generica@2x</title>
    <desc>Created with Sketch.</desc>
    <defs></defs>
    <g id="Page-1" stroke="none" stroke-width="1" fill="none" fill-rule="evenodd">
        <g id="Generica">
            <rect id="Rectangle-path-Copy-14" fill="#F1F2F2" fill-rule="nonzero" x="0" y="0" width="125.43" height="78.39" rx="4.18"></rect>
            <path d="M73.9473684,31.4210526 L73.9473684,36.4568421 C73.9473684,36.4568421 70.5957895,36.4736842 70.5789474,36.4568421 L70.5789474,31.4210526 L65.5263158,31.4210526 C65.5263158,31.4210526 65.5431579,28.0694737 65.5263158,28.0526316 L70.5789474,28.0526316 L70.5789474,23 L73.9473684,23 L73.9473684,28.0526316 L79,28.0526316 L79,31.4210526 L73.9473684,31.4210526 Z M68.8947368,38.1578947 L68.8947368,33.1052632 L63.8421053,33.1052632 L63.8421053,28.0526316 L50.3684211,28.0526316 C48.5157895,28.0526316 47,29.5684211 47,31.4210526 L47,51.6315789 C47,53.4842105 48.5157895,55 50.3684211,55 L70.5789474,55 C72.4315789,55 73.9473684,53.4842105 73.9473684,51.6315789 L73.9473684,38.1578947 L68.8947368,38.1578947 Z M50.3684211,51.6315789 L55.4210526,44.8947368 L58.7894737,49.9473684 L63.8421053,43.2105263 L70.5789474,51.6315789 L50.3684211,51.6315789 Z" id="Shape" fill="#9B9B9B" fill-rule="nonzero"></path>
            <polygon id="Shape" points="42 20 82 20 82 60 42 60"></polygon>
        </g>
    </g>
</svg>