<?xml version="1.0" encoding="UTF-8" standalone="no"?>
<svg
   xmlns:dc="http://purl.org/dc/elements/1.1/"
   xmlns:cc="http://creativecommons.org/ns#"
   xmlns:rdf="http://www.w3.org/1999/02/22-rdf-syntax-ns#"
   xmlns:svg="http://www.w3.org/2000/svg"
   xmlns="http://www.w3.org/2000/svg"
   viewBox="0 0 260 92"
   height="92"
   width="260"
   xml:space="preserve"
   id="svg2"
   version="1.1"><metadata
     id="metadata8"><rdf:RDF><cc:Work
         rdf:about=""><dc:format>image/svg+xml</dc:format><dc:type
           rdf:resource="http://purl.org/dc/dcmitype/StillImage" /></cc:Work></rdf:RDF></metadata><defs
     id="defs6"><clipPath
       id="clipPath24"
       clipPathUnits="userSpaceOnUse"><path
         style="clip-rule:evenodd"
         id="path22"
         d="M 238.824,518.129 C 142.387,473.281 102.516,377.402 143.148,307.43 c 40.645,-69.977 134.063,-83.828 229.817,-46.25 95.742,37.609 145.902,134.883 109.996,208.656 -35.895,73.75 -147.711,93.129 -244.137,48.293 z" /></clipPath><linearGradient
       id="linearGradient30"
       gradientTransform="matrix(0,10,-10,0,310.992,391.424)"
       gradientUnits="userSpaceOnUse"
       y2="0"
       x2="15.058"
       y1="0"
       x1="-15.058"><stop
         id="stop26"
         offset="0"
         style="stop-opacity:1;stop-color:#cce86e" /><stop
         id="stop28"
         offset="1"
         style="stop-opacity:1;stop-color:#7bc54a" /></linearGradient></defs><g
     transform="matrix(1.3333333,0,0,-1.3333333,0,92)"
     id="g10"><g
       transform="scale(0.1)"
       id="g12"><path
         id="path14"
         style="fill:#ffffff;fill-opacity:1;fill-rule:evenodd;stroke:none"
         d="M 9.58594,689.457 H 1941.5 V 8.57031 H 9.58594 V 689.457" /><path
         id="path16"
         style="fill:#231f20;fill-opacity:1;fill-rule:evenodd;stroke:none"
         d="m 492.66,245.957 c 19.375,58.84 37.813,118.539 51.738,180.125 10.86,0 23.258,-0.258 34.118,-0.258 l -4.098,-23.258 c 27.566,17.895 45.723,22.524 63.801,21.047 65.371,-5.343 30.222,-91.23 -4.324,-111.875 -20.266,-12.117 -47.731,-17.519 -85.661,-12.129 -4.476,-17.886 -8.945,-35.769 -13.414,-53.652 -14.054,0 -28.105,0 -42.16,0 z m 129.113,94.992 c 19.731,16.531 19.512,46.543 5.969,55.16 -13.543,8.618 -44.172,1.743 -54.14,-22.914 -9.973,-24.66 -10.786,-39.695 -16.243,-53.109 11.418,0.836 44.684,4.328 64.414,20.863" /><g
         id="g18"><g
           clip-path="url(#clipPath24)"
           id="g20"><path
             id="path32"
             style="fill:url(#linearGradient30);fill-opacity:1;fill-rule:nonzero;stroke:none"
             d="M 238.824,518.129 C 142.387,473.281 102.516,377.402 143.148,307.43 c 40.645,-69.977 134.063,-83.828 229.817,-46.25 95.742,37.609 145.902,134.883 109.996,208.656 -35.895,73.75 -147.711,93.129 -244.137,48.293" /></g></g><path
         id="path34"
         style="fill:#ffffff;fill-opacity:1;fill-rule:nonzero;stroke:none"
         d="m 371.488,424.727 c -11.625,5.925 -61.957,17.554 -61.957,-4.719 0,-13.617 45.852,-23.891 54.535,-34.903 3.59,-4.542 5.414,-9.457 5.414,-14.73 0,-9.199 -4.832,-16.344 -14.402,-21.492 -9.621,-5.149 -23.004,-7.981 -40.156,-8.516 -0.461,-2.312 -0.422,-4.336 0.051,-6.082 7.125,-26.176 112.793,10.445 110.851,81.18 -0.855,31.226 -22.054,60.5 -66.761,65.441 -25.211,2.793 -54.649,-4.176 -80.645,-17.058 -53.121,-29.325 -82.266,-82.45 -52.938,-142.239 36.579,-45.621 88.942,-34.832 150.708,-25.14 -2.122,-1.266 -4.274,-2.496 -6.473,-3.684 -66.774,-33.992 -133.703,-30.637 -175.199,14.164 -37.364,49.563 -19.86,126.242 49.488,169.235 20.309,12.589 68.562,30.836 114.375,27.285 97.156,-7.535 121.91,-129.078 26.687,-175.485 -30.089,-16.093 -81.269,-21.789 -98.804,-4.738 -6.75,6.567 -3.317,10.719 -0.813,18.75 -11.57,1.563 -22.25,3.945 -31.91,7.09 l 10.902,19.254 c 11.309,-5.539 69.981,-20.926 69.981,2.711 0,2.469 -1.328,5.019 -4.035,7.578 -14.723,14.074 -55.782,14.262 -55.782,40.824 0,8.68 4.27,15.731 12.766,21.176 8.477,5.437 20.207,8.644 35.145,9.559 l 4.832,14.945 29.472,-1.266 -4.699,-14.558 c 13.25,-1.114 23.18,-2.789 29.738,-4.993 l -10.371,-19.589" /><path
         id="path36"
         style="fill:#231f20;fill-opacity:1;fill-rule:evenodd;stroke:none"
         d="m 812.25,296.395 c -12.297,0 -23.051,-0.258 -35.348,-0.258 l 2.293,26.64 c -25.277,-23.882 -66.254,-39.672 -85.047,-17.16 -25.75,35.176 -1.359,80.918 27.657,99.715 32.211,20.863 74.976,19.781 117.597,20.688 -15.261,-42.407 -25.507,-85.875 -27.152,-129.625 z m -73.664,85.476 c -17.164,-16.531 -16.977,-46.543 -5.195,-55.16 11.781,-8.617 38.425,-1.746 47.101,22.914 8.676,24.656 9.379,39.691 14.129,53.109 -9.933,-0.839 -38.871,-4.332 -56.035,-20.863" /><path
         id="path38"
         style="fill:#231f20;fill-opacity:1;fill-rule:evenodd;stroke:none"
         d="m 826.262,244.965 6.179,32.883 c 27.473,-8.903 51.325,-13.176 69.243,-4.188 13.937,6.988 24.289,22.008 29.984,49.117 -25.277,-23.882 -66.254,-39.672 -85.047,-17.16 -25.75,35.176 -1.359,80.918 27.656,99.715 32.211,20.863 74.977,19.781 117.598,20.688 -13.199,-36.676 -13.449,-94.223 -30.973,-135.172 -9.25,-21.621 -24.789,-35.504 -43.394,-43.446 -27.203,-11.613 -60.961,-10.547 -91.246,-2.437 z m 64.797,136.906 c -17.164,-16.531 -16.977,-46.543 -5.196,-55.16 11.782,-8.617 38.426,-1.746 47.102,22.914 8.676,24.656 9.379,39.691 14.129,53.109 -9.934,-0.839 -38.871,-4.332 -56.035,-20.863" /><path
         id="path40"
         style="fill:#99d420;fill-opacity:1;fill-rule:evenodd;stroke:none"
         d="m 1248.45,244.965 6.18,32.883 c 27.47,-8.903 51.32,-13.176 69.24,-4.188 13.93,6.988 24.29,22.008 29.98,49.117 -25.27,-23.882 -66.25,-39.672 -85.04,-17.16 -25.75,35.176 -1.36,80.918 27.65,99.715 32.22,20.863 74.98,19.781 117.6,20.688 -13.2,-36.676 -13.45,-94.223 -30.97,-135.172 -9.25,-21.621 -24.79,-35.504 -43.39,-43.446 -27.21,-11.613 -60.97,-10.547 -91.25,-2.437 z m 475.54,126.004 c -12.13,-21.66 -10.6,-44.641 3.39,-51.309 14,-6.672 35.17,5.488 47.3,27.149 12.11,21.664 10.6,44.636 -3.4,51.312 -13.99,6.672 -35.17,-5.488 -47.29,-27.152 z m -10.81,38.578 c -37.53,-25.149 -52.57,-67.535 -33.6,-94.656 18.97,-27.125 64.8,-28.731 102.32,-3.586 37.53,25.148 52.57,67.535 33.6,94.66 -18.97,27.121 -64.79,28.723 -102.32,3.582 z M 1561.73,300.563 c 16.45,41.8 27.53,95.14 35.81,124.843 h 29.68 l -1.02,-26.605 c 12.95,17.91 36.48,27.797 60.37,26.605 l -11.26,-33.769 c -29.68,3.898 -50.6,-19.856 -62.17,-59.106 -2.95,-10 -5.3,-21.011 -7.02,-32.824 z M 1442,426.43 c 12.28,-0.34 24.56,-0.68 36.84,-1.024 -6.48,-27.285 -17.06,-53.551 -23.54,-80.84 -9.6,-33.203 29.99,-29.742 47.08,-9.211 15.2,26.747 22.01,58.829 31.72,91.075 12.28,0 24.56,0 36.84,0 -13.91,-42.633 -26.02,-85.274 -31.73,-127.914 -10.91,0.683 -23.87,1.367 -34.79,2.047 0.34,6.824 0.68,13.644 1.03,20.464 -36.92,-33.902 -97.66,-42.855 -90.06,14.328 4.36,30.36 16.68,60.719 26.61,91.075 z M 1232.22,326.145 c -1.02,-8.528 -4.09,-17.051 -5.11,-25.582 -39.73,-5.454 -82.37,-14.657 -104.38,16.371 -22.78,43.921 10.07,84.148 38.88,99.261 50.58,22.688 85.71,11.133 93.12,-11.254 15,-39.273 -31.37,-65.179 -98.23,-57.308 -6.98,-34.141 27.91,-33.633 75.72,-21.488 z m -69.32,45.535 c 6.17,13.66 16.62,27.484 37.86,30.191 16.72,1.621 18.51,-16.004 8.69,-22.777 -17.84,-7.692 -19.84,2.844 -46.55,-7.414 z M 998.395,328.703 c -4.094,-8.867 -8.696,-18.246 -12.79,-27.117 49.985,-10.875 88.255,-4.316 103.355,11.762 14.74,18.191 12.27,38.773 -13.3,53.734 -5.46,3.789 -20.87,11.422 -20.47,20.461 0.72,20.562 31.99,15.676 51.17,9.719 l 6.13,28.156 c -13.41,3.109 -30.44,4.031 -44.12,2.691 -16.66,-1.629 -34.58,-8.832 -48.48,-22.648 -10.79,-11.207 -13.01,-26.316 -9.06,-35.504 4.75,-11.023 20.14,-15.656 27.99,-20.262 13.14,-6.113 20.96,-10.734 18.73,-20.043 -1.87,-7.812 -11.38,-14.207 -28.42,-11.16 -10.58,1.891 -22.94,5.653 -30.735,10.211 z m 314.845,53.168 c -17.16,-16.531 -16.97,-46.543 -5.19,-55.16 11.78,-8.617 38.43,-1.746 47.1,22.914 8.67,24.656 9.38,39.691 14.13,53.109 -9.93,-0.839 -38.87,-4.332 -56.04,-20.863" /><path
         id="path42"
         style="fill:#231f20;fill-opacity:1;fill-rule:evenodd;stroke:none"
         d="m 1475.86,251.551 c -4.29,-5.035 -7.52,-10.766 -9.89,-17.035 -2.47,-6.52 -3.81,-13.215 -3.81,-20.364 0,-8.093 1.74,-15.593 4.7,-22.675 2.96,-7.032 7.01,-13.075 12.33,-18.391 5.18,-5.176 11.24,-9.316 18.26,-12.328 7,-3.063 14.62,-4.75 22.53,-4.75 8.04,0 15.54,1.613 22.67,4.75 6.83,2.976 12.99,7.055 18.25,12.328 5.23,5.223 9.25,11.394 12.14,18.391 3.04,7.156 4.75,14.582 4.75,22.675 0,7.149 -1.33,13.844 -3.81,20.364 -2.41,6.269 -5.62,11.875 -9.87,17.035 -4.27,5.051 -9.2,9.234 -14.78,12.461 -8.77,5.066 -17.83,8.09 -28.32,8.09 -0.5,0 -1,0 -1.5,0 -10.35,0 -19.83,-2.961 -28.75,-8.09 -5.64,-3.207 -10.63,-7.434 -14.9,-12.461" /><path
         id="path44"
         style="fill:#231f20;fill-opacity:1;fill-rule:evenodd;stroke:none"
         d="m 1715.1,250.938 c -5.6,0 -10.77,-0.895 -15.66,-2.872 -4.85,-1.98 -9.13,-4.699 -12.75,-8.375 -3.67,-3.668 -6.53,-7.765 -8.38,-12.468 -1.97,-4.75 -2.86,-9.926 -2.86,-15.52 0,-5.312 0.89,-10.488 2.86,-15.242 1.85,-4.512 4.71,-8.801 8.38,-12.469 3.82,-3.476 8.04,-6.347 12.94,-8.32 4.7,-1.832 10.02,-2.914 15.47,-2.914 5.65,0 10.69,1.082 15.72,2.914 4.7,1.973 9.07,4.844 12.74,8.32 3.81,3.668 6.54,7.957 8.52,12.664 1.97,4.703 2.91,9.731 2.91,15.047 0,5.594 -0.94,10.77 -2.91,15.52 -1.84,4.703 -4.56,8.8 -8.38,12.468 -3.61,3.676 -8.05,6.395 -12.88,8.375 -4.89,1.977 -10.07,2.872 -15.72,2.872 z m 0,-24.934 c 3.81,0 6.86,-1.231 9.13,-3.949 2.3,-2.59 3.53,-5.934 3.53,-10.352 0,-4.09 -1.23,-7.617 -3.53,-10.062 -2.27,-2.543 -5.32,-3.77 -9.13,-3.77 -3.76,0 -6.68,1.176 -8.94,3.77 -2.45,2.445 -3.53,5.972 -3.53,10.062 0,4.418 1.08,7.762 3.53,10.352 2.26,2.718 5.18,3.949 8.94,3.949" /><path
         id="path46"
         style="fill:#231f20;fill-opacity:1;fill-rule:evenodd;stroke:none"
         d="m 1663.13,195.707 c 0.61,3.535 0.88,7.906 0.88,13.27 v 40.316 h -26.76 v -40.648 c 0,-4.559 -0.47,-7.758 -1.7,-9.739 -1.21,-1.832 -3,-2.722 -5.78,-2.722 -2.73,0 -4.56,0.89 -5.73,2.722 -1.09,1.699 -1.71,5.032 -1.71,9.739 v 40.648 h -26.61 v -40.316 c -0.15,-5.641 0.32,-9.93 0.94,-13.27 0.55,-3.48 1.78,-6.207 3.14,-8.512 3.07,-4.695 7.16,-8.187 12.33,-10.632 5.04,-2.586 10.96,-3.805 17.64,-3.805 6.73,0 12.51,1.219 17.64,3.805 5.18,2.445 9.32,5.937 12.18,10.632 1.5,2.305 2.73,5.176 3.54,8.512" /><path
         id="path48"
         style="fill:#231f20;fill-opacity:1;fill-rule:evenodd;stroke:none"
         d="m 1793,249.293 h -26.77 v -74.559 h 52.78 v 24.172 H 1793 v 50.387" /><path
         id="path50"
         style="fill:#f8a112;fill-opacity:1;fill-rule:evenodd;stroke:none"
         d="m 1558.6,251.074 c -7.15,8.699 -16.42,14.305 -27.85,16.469 -11.24,2.117 -21.87,0.422 -31.94,-5.039 -5.18,-2.91 -9.55,-6.535 -13.08,-10.816 -3.62,-4.372 -6.39,-9.407 -8.18,-15.051 -1.84,-5.785 -2.3,-11.864 -1.69,-17.782 1.5,3.805 3.8,7.293 6.54,10.633 3.94,4.703 8.84,8.231 14.3,10.817 5.45,2.449 11.43,3.812 17.64,3.953 6.25,0 12.32,-1.223 17.96,-3.676 5.93,-2.394 11.11,-6.066 15.52,-10.957 1.66,-1.648 3.02,-3.621 4.38,-5.598 1.98,0.004 3.95,-0.136 5.64,-0.613 4.43,-1.223 7.91,-3.476 10.64,-6.863 l 0.13,2.164 c 0.48,5.926 -0.13,11.527 -1.77,17.023 -1.7,5.465 -4.43,10.637 -8.24,15.336" /><path
         id="path52"
         style="fill:#f8a112;fill-opacity:1;fill-rule:evenodd;stroke:none"
         d="m 1474.63,196.32 c 0.75,-4.562 2.12,-8.933 4.42,-12.933 2.12,-3.953 5.03,-7.571 8.66,-10.774 l 1.83,-1.508 c 6.26,-4.281 12.93,-7.335 20.23,-8.843 4.71,-0.891 9.46,-0.606 14.02,0.476 4.85,1.032 9.41,3.004 13.69,5.922 -3.95,0.895 -7.48,3.012 -10.21,6.215 l -1.08,1.219 c -5.74,-0.61 -11.53,-0.422 -17.31,0.754 -7.34,1.687 -13.7,4.75 -19.62,8.98 -5.65,4.285 -10.35,9.742 -13.88,16.133 l -0.89,1.844 c -0.14,-2.446 -0.14,-5.032 0.14,-7.485" /><path
         id="path54"
         style="fill:#d93432;fill-opacity:1;fill-rule:evenodd;stroke:none"
         d="m 1528.77,234.66 c -5.31,2.305 -11.1,3.34 -17.02,3.34 -5.79,-0.137 -11.25,-1.363 -16.28,-3.809 -5.04,-2.265 -9.41,-5.605 -13.07,-9.882 -2.59,-3.204 -4.71,-6.684 -6.08,-10.348 1.04,-4.563 2.73,-8.797 5.18,-13.074 3.48,-5.93 8.04,-10.961 13.68,-14.914 5.47,-3.946 11.72,-6.539 18.4,-8.035 4.09,-0.762 8.37,-1.09 12.61,-0.899 -1.65,2.723 -2.73,5.594 -3.2,8.934 -0.56,3.382 -0.42,6.726 0.19,10.347 0.75,4.43 2.39,8.52 4.7,12.325 2.45,3.816 5.65,7.293 9.41,10.07 2.45,1.785 5.03,3.144 7.62,4.23 l -1.37,1.555 c -4.27,4.371 -9.13,7.902 -14.77,10.16" /><path
         id="path56"
         style="fill:#f37d24;fill-opacity:1;fill-rule:evenodd;stroke:none"
         d="m 1569.41,208.645 -1.36,2.308 c -1.97,-6.867 -5.64,-12.941 -10.34,-18.441 -1.08,-4.563 -2.92,-8.657 -5.32,-12.469 -2.44,-3.758 -5.65,-7.148 -9.32,-10.02 2.59,-0.136 5.18,0.282 7.77,1.227 2.44,0.895 4.7,2.254 7,4.094 3.06,2.867 5.94,6.254 8.38,9.734 l 0.42,0.61 c 1.09,2.261 2.17,4.562 2.91,6.683 0.77,2.305 1.23,4.563 1.38,6.676 0.13,2.312 0.13,4.289 -0.29,6.262 -0.32,1.218 -0.8,2.304 -1.23,3.336" /><path
         id="path58"
         style="fill:#e4562c;fill-opacity:1;fill-rule:evenodd;stroke:none"
         d="m 1469.31,235.418 c -1.97,-5.465 -3.05,-11.242 -3.34,-17.504 -0.13,-8.039 1.37,-15.809 4.43,-23.105 1.5,-3.473 3.34,-6.86 5.59,-10.063 2.17,-3.008 4.56,-5.926 7.3,-8.461 -5.93,6.535 -9.42,14.11 -10.49,22.621 -0.29,2.918 -0.29,5.645 -0.14,8.516 -1.98,5.512 -3.06,10.961 -3.06,16.605 0,5.313 0.94,10.489 2.58,15.813 1.42,3.66 3.2,7.148 5.18,10.336 -3.49,-4.559 -6.06,-9.449 -8.05,-14.758" /><path
         id="path60"
         style="fill:#e4562c;fill-opacity:1;fill-rule:evenodd;stroke:none"
         d="m 1573.18,232.215 c -1.36,4.422 -3.15,8.703 -5.45,12.652 -2.26,3.809 -5.04,7.297 -8.38,10.485 -3.01,3.207 -6.54,5.937 -10.49,8.234 3.34,-2.297 6.39,-5.027 9.13,-8.086 4.28,-4.848 7.48,-10.02 9.46,-15.809 1.96,-5.921 2.87,-12.043 2.39,-18.39 -0.14,-1.981 -0.43,-3.809 -0.75,-5.785 0.75,-1.223 1.55,-2.727 2.17,-4.282 1.5,-4.421 1.78,-9.129 1.03,-13.832 2.3,6.536 3.48,13.414 3.34,20.512 -0.29,4.891 -1.04,9.734 -2.45,14.301" /><path
         id="path62"
         style="fill:#e4562c;fill-opacity:1;fill-rule:evenodd;stroke:none"
         d="m 1555.25,217.773 c 1.51,-3.199 2.46,-6.683 2.88,-10.16 0.47,-3.527 0.61,-6.863 0.32,-10.211 l -0.61,-3.339 c 4.57,5.316 7.63,11.246 9.42,18.117 -1.04,1.027 -2.12,2.109 -3.35,3.004 -2.45,1.695 -5.31,2.589 -8.66,2.589" /><path
         id="path64"
         style="fill:#d93432;fill-opacity:1;fill-rule:evenodd;stroke:none"
         d="m 1546.13,177.645 c 1.84,2.593 3.35,5.453 4.42,8.328 -6.11,-4.375 -12.78,-7.438 -20.08,-8.934 1.03,-1.695 2.44,-3.062 3.94,-4.144 1.52,-1.036 3.21,-1.79 5.18,-2.399 2.46,2.117 4.71,4.567 6.54,7.149" /><path
         id="path66"
         style="fill:#d93432;fill-opacity:1;fill-rule:evenodd;stroke:none"
         d="m 1515.55,161.371 6.55,-0.324 c 5.64,0.133 10.95,1.215 16.13,2.91 4.84,1.652 9.59,3.953 13.69,6.828 -2.59,-1.23 -5.32,-2.125 -8.23,-2.262 -0.9,-0.187 -1.98,-0.187 -3.01,-0.187 -7.48,-4.848 -15.86,-7.156 -25.13,-6.965" /><path
         id="path68"
         style="fill:#fee702;fill-opacity:1;fill-rule:evenodd;stroke:none"
         d="m 1551.78,205.453 c -0.94,3.945 -2.3,7.61 -4.28,11.098 -3.49,-1.035 -6.54,-2.875 -9.41,-5.317 -3.06,-2.589 -5.65,-5.781 -7.62,-9.41 -1.7,-3.664 -2.73,-7.148 -3.06,-10.816 -0.42,-3.481 0,-6.68 0.95,-9.735 0.41,-1.035 0.74,-1.976 1.36,-2.871 3.81,0.418 7.28,1.508 10.77,3.008 3.66,1.41 7.01,3.336 10.21,5.785 l 0.28,0.192 c 0.61,2.265 1.08,4.562 1.41,6.824 0.28,3.801 0.14,7.43 -0.61,11.242" /><path
         id="path70"
         style="fill:#d3e46f;fill-opacity:1;fill-rule:evenodd;stroke:none"
         d="m 144.566,414.324 c -13.406,-34.754 -12.179,-71.691 6.086,-103.14 38.828,-66.848 128.071,-80.082 219.543,-44.18 57.403,22.547 97.637,67.551 111.172,115.363 C 464.852,339.254 426.746,299.902 374.293,279.301 282.82,243.398 193.578,256.633 154.754,323.48 c -16.125,27.762 -18.965,59.805 -10.188,90.844" /></g></g></svg>