<?xml version="1.0" encoding="iso-8859-1"?>
<!-- Generator: Adobe Illustrator 19.0.0, SVG Export Plug-In . SVG Version: 6.00 Build 0)  -->
<svg version="1.1" id="Capa_1" xmlns="http://www.w3.org/2000/svg" xmlns:xlink="http://www.w3.org/1999/xlink" x="0px" y="0px"
	 viewBox="0 0 43.16 43.16" style="enable-background:new 0 0 43.16 43.16;" xml:space="preserve">
<g style="enable-background:new    ;">
	<g>
		<g>
			<path d="M41.819,18.889l-0.1,0.308c-0.117,0.393-0.264,0.778-0.396,1.166c-0.285,0.824-0.571,1.648-0.881,2.538
				c-0.053-0.138-0.084-0.207-0.106-0.275l-1.267-3.735h-1.364c0.067,0.215,0.119,0.375,0.177,0.529
				c0.555,1.481,1.061,2.984,1.684,4.437c0.354,0.822,0.076,1.441-0.346,2.07c-0.293,0.439-0.74,0.617-1.271,0.559
				c-0.146-0.018-0.292-0.037-0.479-0.062c-0.045,0.357-0.084,0.681-0.123,1c1.473,0.287,2.371-0.133,3.039-1.389
				c0.071-0.135,0.146-0.27,0.199-0.41c0.848-2.209,1.691-4.42,2.575-6.732L41.819,18.889z"/>
			<path d="M9.044,16.81v-0.003c-0.49,1.976-0.978,3.983-1.484,6.025c-0.577-2.054-1.128-4.063-1.679-6.025H4.463L4.38,17.094
				c-0.308,1.163-0.636,2.368-0.952,3.528c-0.199,0.731-0.392,1.466-0.594,2.226c-0.486-1.931-0.967-3.866-1.432-5.756l-0.064-0.284
				H0c0.658,2.546,1.301,5.401,1.952,7.916l1.556-0.002c0.471-1.687,0.968-3.832,1.42-5.522c0.058-0.216,0.098-0.436,0.149-0.666
				c0.459,1.669,0.903,3.296,1.354,4.923l0.355,1.268h1.532l1.145-4.708c0.272-1.043,0.545-2.134,0.824-3.207H9.044z"/>
			<polygon points="41.281,16.807 41.433,16.807 41.433,15.777 41.786,15.777 41.786,15.649 40.929,15.649 40.929,15.777 
				41.281,15.777 			"/>
			<path d="M42.054,16.311c0.01-0.175,0.021-0.367,0.021-0.511h0.004c0.031,0.137,0.077,0.285,0.132,0.45l0.188,0.551h0.113
				l0.205-0.561c0.059-0.16,0.104-0.306,0.146-0.439h0.004c0,0.142,0.011,0.338,0.019,0.499l0.027,0.509h0.148l-0.072-1.157h-0.191
				l-0.205,0.56c-0.053,0.146-0.093,0.273-0.123,0.39h-0.004c-0.031-0.12-0.068-0.247-0.117-0.39l-0.197-0.56h-0.189l-0.081,1.157
				h0.144L42.054,16.311z"/>
			<path d="M37.448,24.538c0-1.494,0.021-2.953-0.014-4.411c-0.013-0.489-0.285-0.917-0.758-1.119
				c-1.18-0.503-2.337-0.284-3.515,0.108c0.089,0.346,0.161,0.635,0.214,0.839c0.656-0.093,1.266-0.234,1.876-0.251
				c0.665-0.019,0.983,0.364,1.021,1.032c0.015,0.26-0.051,0.377-0.348,0.392c-0.761,0.038-1.521,0.123-2.197,0.525
				c-0.78,0.465-1.072,1.297-0.748,2.123c0.283,0.719,1.011,1.047,1.891,0.896c0.622-0.106,1.066-0.463,1.482-0.997
				c0,0.332,0,0.584,0,0.862C36.729,24.538,37.085,24.538,37.448,24.538z M34.742,23.752c-0.243-0.004-0.542-0.143-0.651-0.51
				c-0.113-0.386-0.046-0.795,0.344-0.938c0.519-0.19,1.08-0.263,1.627-0.364c0.057-0.011,0.186,0.105,0.199,0.178
				C36.399,22.827,35.608,23.747,34.742,23.752z"/>
			<path d="M17.296,19.784v-0.918h-1.108v5.673h1.226c0-0.875-0.032-1.728,0.012-2.573c0.024-0.461,0.099-0.954,0.295-1.362
				c0.11-0.228,0.375-0.492,0.618-0.593c0,0,0.457-0.185,0.658-0.203c0-0.207,0-1.077,0-1.077
				C18.198,18.728,17.704,19.155,17.296,19.784z"/>
			<path d="M25.729,18.799c-0.271-0.018-0.479-0.027-0.688-0.047c-1.438-0.129-2.646,0.702-3.033,2.093
				c-0.214,0.764-0.219,1.53-0.013,2.297c0.331,1.229,1.329,1.849,2.545,1.47c0.479-0.146,0.881-0.529,1.282-0.783
				c0.022,0.832,0.022,0.832,1.077,0.701c0-2.623,0-5.216,0-7.794c-0.398,0-0.758,0-1.172,0
				C25.729,17.432,25.729,18.095,25.729,18.799z M25.745,20.962c0.021,0.003-0.03,1.105-0.189,1.621
				c-0.104,0.34-0.357,0.682-0.639,0.91c-0.539,0.444-1.303,0.242-1.553-0.406c-0.334-0.871-0.335-1.765,0.09-2.613
				c0.331-0.663,1.447-0.999,2.128-0.667c0.082,0.04,0.147,0.187,0.156,0.288C25.759,20.382,25.745,20.673,25.745,20.962z"/>
			<path d="M19.879,24.541c0.404,0,0.776,0,1.162,0c0-2.625,0-5.219,0-7.806c-0.407,0-0.78,0-1.162,0
				C19.879,19.351,19.879,21.935,19.879,24.541z"/>
			<path d="M13.569,18.806c-2.138-0.422-3.793,1.073-3.604,3.25c0.154,1.774,0.977,2.62,2.637,2.665
				c0.872-0.021,1.685-0.312,2.229-1.104c0.816-1.185,0.828-2.455,0.241-3.729C14.788,19.268,14.232,18.936,13.569,18.806z
				 M12.717,23.653c-0.931,0-1.687-0.863-1.687-1.926s0.756-1.925,1.687-1.925c0.932,0,1.688,0.862,1.688,1.925
				C14.404,22.79,13.648,23.653,12.717,23.653z"/>
			<path d="M30.86,16.856c-0.965-0.129-1.961-0.084-2.953-0.084c0,2.573,0,5.186,0,7.77c0.4,0,0.775,0,1.236,0
				c0-0.957,0-1.879,0-2.711c0.723-0.139,1.402-0.182,2.019-0.405c1.12-0.41,1.659-1.417,1.556-2.669
				C32.634,17.767,31.997,17.008,30.86,16.856z M31.162,20.073c-0.408,0.533-1.257,0.764-2.013,0.535c0-0.919,0-1.845,0-2.829
				c0.807-0.043,1.588-0.143,2.104,0.615C31.574,18.867,31.515,19.614,31.162,20.073z"/>
		</g>
	</g>
</g>
<g>
</g>
<g>
</g>
<g>
</g>
<g>
</g>
<g>
</g>
<g>
</g>
<g>
</g>
<g>
</g>
<g>
</g>
<g>
</g>
<g>
</g>
<g>
</g>
<g>
</g>
<g>
</g>
<g>
</g>
</svg>
