<svg xmlns="http://www.w3.org/2000/svg" viewBox="0 0 125.43 78.39"><defs><style>.cls-1{fill:#f90;}.cls-2{fill:#231f20;fill-rule:evenodd;}</style></defs><title>Asset 20</title><g id="Layer_2" data-name="Layer 2"><g id="Layer_1-2" data-name="Layer 1"><rect class="cls-1" width="125.43" height="78.39" rx="4.18" ry="4.18"/><path class="cls-2" d="M71.76,47.15c-4.37,3.23-10.7,4.94-16.15,4.94a29.16,29.16,0,0,1-19.72-7.53c-.41-.37,0-.87.44-.58a39.82,39.82,0,0,0,19.74,5.23,39.24,39.24,0,0,0,15.06-3.08C71.87,45.82,72.49,46.62,71.76,47.15Z"/><path class="cls-2" d="M73.58,45.08c-.56-.72-3.69-.34-5.1-.17-.43.05-.49-.32-.11-.59,2.5-1.76,6.6-1.25,7.07-.66s-.12,4.69-2.47,6.66c-.35.3-.7.14-.54-.26C73,48.74,74.14,45.79,73.58,45.08Z"/><path class="cls-2" d="M68.58,31.91v-1.7a.42.42,0,0,1,.43-.43h7.65a.43.43,0,0,1,.44.44v1.46a2.34,2.34,0,0,1-.58,1.07l-4,5.66a8.32,8.32,0,0,1,4.36.94.78.78,0,0,1,.41.66v1.82c0,.25-.28.54-.56.39a8.8,8.8,0,0,0-8.08,0c-.27.14-.55-.15-.55-.4V40.1a2,2,0,0,1,.29-1.17L73,32.34H69A.42.42,0,0,1,68.58,31.91Z"/><path class="cls-2" d="M40.69,42.57H38.36a.42.42,0,0,1-.41-.39V30.24a.44.44,0,0,1,.45-.43h2.16a.44.44,0,0,1,.43.4v1.56h0a3.2,3.2,0,0,1,6.08,0A3.44,3.44,0,0,1,53,30.86c.73,1,.58,2.46.58,3.74v7.54a.44.44,0,0,1-.45.43H50.83a.44.44,0,0,1-.42-.43V35.81a16.48,16.48,0,0,0-.06-2.23,1.22,1.22,0,0,0-1.37-1,1.53,1.53,0,0,0-1.39,1,7.14,7.14,0,0,0-.22,2.28v6.33a.44.44,0,0,1-.45.43H44.6a.45.45,0,0,1-.42-.43V35.81c0-1.33.21-3.29-1.43-3.29s-1.61,1.91-1.61,3.29v6.33A.44.44,0,0,1,40.69,42.57Z"/><path class="cls-2" d="M83.68,29.56c3.45,0,5.32,3,5.32,6.73s-2.06,6.53-5.32,6.53-5.23-3-5.23-6.66S80.31,29.56,83.68,29.56Zm0,2.43c-1.71,0-1.82,2.34-1.82,3.8s0,4.57,1.8,4.57,1.89-2.51,1.89-4a10.8,10.8,0,0,0-.35-3.16A1.46,1.46,0,0,0,83.7,32Z"/><path class="cls-2" d="M93.48,42.57H91.16a.45.45,0,0,1-.42-.43V30.2a.44.44,0,0,1,.45-.39h2.15a.45.45,0,0,1,.42.33V32h0c.65-1.63,1.56-2.41,3.17-2.41A3.06,3.06,0,0,1,99.69,31a7.72,7.72,0,0,1,.6,3.72v7.51a.44.44,0,0,1-.44.38H97.52a.44.44,0,0,1-.42-.38V35.71c0-1.31.15-3.21-1.45-3.21a1.51,1.51,0,0,0-1.35,1,5.25,5.25,0,0,0-.37,2.26v6.43A.44.44,0,0,1,93.48,42.57Z"/><path class="cls-2" d="M62.48,36.87a4.56,4.56,0,0,1-.43,2.47,1.89,1.89,0,0,1-1.61,1c-.89,0-1.42-.68-1.42-1.68,0-2,1.78-2.35,3.46-2.35Zm2.35,5.67a.47.47,0,0,1-.55.05A5.65,5.65,0,0,1,63,41a4.62,4.62,0,0,1-3.84,1.69,3.29,3.29,0,0,1-3.48-3.62,3.94,3.94,0,0,1,2.48-3.8,15.77,15.77,0,0,1,4.37-.81v-.3a3,3,0,0,0-.28-1.69,1.54,1.54,0,0,0-1.31-.6A1.76,1.76,0,0,0,59,33.3c-.05.21-.2.42-.41.43l-2.25-.24A.41.41,0,0,1,56,33c.52-2.73,3-3.56,5.2-3.56a5.25,5.25,0,0,1,3.5,1.16c1.14,1.06,1,2.47,1,4v3.63a3.15,3.15,0,0,0,.88,2.15.44.44,0,0,1,0,.62c-.48.4-1.32,1.13-1.79,1.55Z"/><path class="cls-2" d="M32,36.87a4.65,4.65,0,0,1-.43,2.47,1.89,1.89,0,0,1-1.61,1c-.9,0-1.42-.68-1.42-1.68,0-2,1.78-2.35,3.46-2.35Zm2.35,5.67a.47.47,0,0,1-.55.05A5.71,5.71,0,0,1,32.45,41a4.6,4.6,0,0,1-3.83,1.69,3.29,3.29,0,0,1-3.48-3.62,3.94,3.94,0,0,1,2.48-3.8A15.77,15.77,0,0,1,32,34.5v-.3a3.05,3.05,0,0,0-.28-1.69,1.56,1.56,0,0,0-1.31-.6,1.77,1.77,0,0,0-1.87,1.39.49.49,0,0,1-.4.43l-2.25-.24a.4.4,0,0,1-.35-.49c.51-2.73,3-3.56,5.2-3.56a5.25,5.25,0,0,1,3.5,1.16c1.13,1.06,1,2.47,1,4v3.63a3.19,3.19,0,0,0,.88,2.15.44.44,0,0,1,0,.62c-.47.4-1.32,1.13-1.78,1.55Z"/></g></g></svg>