<?xml version="1.0" encoding="UTF-8"?>
<svg width="126px" height="79px" viewBox="0 0 126 79" version="1.1" xmlns="http://www.w3.org/2000/svg" xmlns:xlink="http://www.w3.org/1999/xlink">
    <!-- Generator: Sketch 52.2 (67145) - http://www.bohemiancoding.com/sketch -->
    <title>Aura@2x</title>
    <desc>Created with Sketch.</desc>
    <defs>
        <rect id="path-1" x="0" y="0" width="125.43" height="78.39" rx="4.389"></rect>
    </defs>
    <g id="Page-1" stroke="none" stroke-width="1" fill="none" fill-rule="evenodd">
        <g id="Aura">
            <g id="68747470733a2f2f73332d73612d656173742d312e616d617a6f6e6177732e636f6d2f6170706c616e6e746563682d73746f726167652f617572612e737667">
                <mask id="mask-2" fill="white">
                    <use xlink:href="#path-1"></use>
                </mask>
                <use id="Mask" fill="#FF9900" xlink:href="#path-1"></use>
                <g mask="url(#mask-2)">
                    <g transform="translate(-5.000000, -5.000000)">
                        <path d="M0,0 L134.997626,0 L135.142857,42.0253165 C118.845837,35.8336936 66.993097,21.0152489 0,39.4813107 L0,0 Z" id="Path" stroke="none" fill="#2C328C" fill-rule="evenodd"></path>
                        <path d="M0,90.2278481 L135.142857,90.2278481 L135.142857,56.0321615 C110.769684,47.7533167 67.4442145,35.348224 0,52.9229836 L0,90.2278481 Z" id="Path" stroke="none" fill="#FFF200" fill-rule="evenodd"></path>
                        <path d="M134.997626,55.2151899 C110.650646,47.0033859 67.3717356,34.6987476 0,52.1311896 L0,39.0320293 C66.993097,20.4025771 118.845837,35.373046 135.142857,41.5985448 L134.997626,55.2151899 Z" id="Path" stroke="none" fill="#ED1C24" fill-rule="evenodd"></path>
                        <path d="M43,32.3661094 C46.2984022,22.9993318 53.8478508,14.9112771 66.9646337,15.0007351 C80.0814165,15.0901931 88.8293528,22.7888424 91.1904762,32.8607595 C74.2887256,31.055813 63.0208919,30.7400789 43,32.3661094 Z" id="Path" stroke="none" fill="#FFF200" fill-rule="evenodd"></path>
                        <path d="M31,72.4691852 L40.0203774,58 L43.3428571,58 L52.9532075,72.4691852 L49.4340701,72.4691852 L46.6963881,68.0894742 L36.863504,68.0894742 L34.275903,72.4691852 L31,72.4691852 Z M37.7743396,66.5312542 L45.7389757,66.5312542 L43.2859299,62.529968 C42.6785951,61.5655732 42.1239127,60.5640257 41.62469,59.5303946 C41.3062667,60.5087422 40.8806281,61.4428314 40.3567655,62.3129302 L37.7691644,66.5479494 L37.7743396,66.5312542 Z M68.7530997,72.4691852 L68.7530997,70.9332256 C67.4247978,72.1167307 65.6238275,72.7084833 63.3501887,72.7084833 C62.4036282,72.7164366 61.4597759,72.5986792 60.5400539,72.3578838 C59.8455701,72.2047177 59.1871478,71.9018198 58.6045283,71.4674724 C58.1957593,71.1316638 57.8865161,70.6753883 57.7143935,70.1541156 C57.5748979,69.6109304 57.5155235,69.0475724 57.5384367,68.4845942 L57.5384367,62.0012862 L60.4210243,62.0012862 L60.4210243,67.8056555 C60.3892841,68.436818 60.4486398,69.0694592 60.5969811,69.6810845 C60.8294833,70.2017462 61.2445104,70.6020087 61.7510512,70.7940988 C62.4477433,71.0791188 63.1899179,71.2133938 63.9349865,71.1892188 C64.760867,71.1961917 65.5823264,71.0589915 66.3673315,70.7829686 C66.9994105,70.6034123 67.5626612,70.2139057 67.9768194,69.6699544 C68.3299496,69.0572656 68.4963982,68.3413138 68.452938,67.6220082 L68.452938,62.0012862 L71.3355256,62.0012862 L71.3355256,72.4691852 L68.7530997,72.4691852 Z M78.3272237,72.4691852 L78.3272237,62.0012862 L80.9148248,62.0012862 L80.9148248,63.5873315 C81.4241003,62.9638557 82.0501848,62.4631853 82.7520216,62.1181527 C83.3416024,61.8757054 83.9683833,61.7548765 84.5995687,61.7619882 C85.6102623,61.7648972 86.6130959,61.9530963 87.5649596,62.3184953 L86.5713208,63.9880167 C85.8926165,63.7324689 85.1789418,63.6008005 84.4598383,63.5984617 C83.8759413,63.5885763 83.2963914,63.7079143 82.7571968,63.9490612 C82.3083882,64.1348467 81.9309612,64.4779652 81.6859299,64.9229486 C81.3627164,65.5570722 81.1969531,66.2700755 81.2046361,66.9931551 L81.2046361,72.4747503 L78.3272237,72.4691852 Z M102.893908,71.1780887 C101.905965,71.7035149 100.86368,72.1014006 99.7887871,72.3634489 C98.7421988,72.5991424 97.6753146,72.7148008 96.6060377,72.7084833 C94.7377898,72.7084833 93.3042588,72.4302297 92.2950943,71.8681575 C91.2859299,71.3060853 90.7891105,70.5881911 90.7891105,69.714475 C90.793999,69.1816823 90.9993721,68.6737395 91.3583827,68.3065119 C91.7778269,67.8537455 92.2849639,67.5060189 92.8436658,67.2881039 C93.5136911,67.0252491 94.2075172,66.8387254 94.9137466,66.7315968 C95.4778437,66.6425556 96.331752,66.5479494 97.4702965,66.4644734 C99.1947252,66.3694981 100.912433,66.1650896 102.614447,65.8523155 C102.614447,65.6074524 102.614447,65.4571955 102.614447,65.3904146 C102.659031,64.749779 102.33472,64.1449984 101.796765,63.8655851 C100.759095,63.4021855 99.6375103,63.1967337 98.5156873,63.2645574 C97.4967958,63.2106841 96.4774179,63.3597332 95.5088949,63.704198 C94.8605085,64.0000725 94.3458388,64.5575104 94.0753639,65.2568529 L91.2600539,65.0175548 C91.502961,64.29527 91.9431004,63.6687335 92.5228032,63.2200368 C93.2944889,62.6822057 94.1614518,62.322181 95.0690027,62.1626733 C96.3411755,61.9011999 97.6346006,61.7781476 98.9297035,61.7953786 C100.11662,61.7710958 101.302734,61.8773849 102.469542,62.1125876 C103.178814,62.2422878 103.859618,62.5121051 104.47752,62.9083928 C104.883765,63.2030222 105.196242,63.6245008 105.37283,64.1160133 C105.489555,64.6518156 105.53658,65.2024427 105.512561,65.7521442 L105.512561,68.1172995 C105.466793,69.1640249 105.529279,70.2129785 105.698868,71.2448696 C105.843549,71.7215881 106.093996,72.153256 106.428571,72.5025757 L103.416604,72.5025757 C103.118805,72.1368845 102.920099,71.6902846 102.842156,71.2114791 L102.893908,71.1780887 Z M102.650674,67.215758 C101.097007,67.555614 99.5235106,67.7805987 97.9412399,67.8891316 C97.0961738,67.9415693 96.25566,68.0587329 95.4260916,68.2397311 C95.0103487,68.3236268 94.6196933,68.5145745 94.2875472,68.7962382 C94.043502,68.9978804 93.8955629,69.3058506 93.8838814,69.636564 C93.8838814,70.109595 94.1788679,70.5047151 94.7584906,70.8219241 C95.5655974,71.1818761 96.4372644,71.3434853 97.3098652,71.2949552 C98.3138368,71.3131488 99.3143102,71.1629439 100.275256,70.8497495 C101.005982,70.6392439 101.667426,70.2132506 102.184906,69.6198688 C102.528814,69.1050877 102.693663,68.4767714 102.650674,67.844611 L102.650674,67.215758 Z" id="Shape" stroke="#2C328C" stroke-width="0.5" fill="#2C328C" fill-rule="nonzero"></path>
                    </g>
                </g>
            </g>
        </g>
    </g>
</svg>