<?xml version="1.0" encoding="UTF-8"?>
<svg width="126px" height="79px" viewBox="0 0 126 79" version="1.1" xmlns="http://www.w3.org/2000/svg" xmlns:xlink="http://www.w3.org/1999/xlink">
    <!-- Generator: Sketch 50.2 (55047) - http://www.bohemiancoding.com/sketch -->
    <title>BB@2x</title>
    <desc>Created with Sketch.</desc>
    <defs></defs>
    <g id="Page-1" stroke="none" stroke-width="1" fill="none" fill-rule="evenodd">
        <g id="BB">
            <rect id="Rectangle-path-Copy-7" fill="#FFF101" fill-rule="nonzero" x="0" y="0" width="125.43" height="78.39" rx="4.18"></rect>
            <path d="M12,44.0556252 L13.4588688,43.0831243 L14.9171107,44.0556252 L12,46 L12,44.0556252 Z M26,33.9443748 L24.5417581,34.9162487 L23.0835162,33.9443748 L26,32 L26,33.9443748 Z M26,41.3331243 L19.0003135,46 L12,41.3331243 L20.3124804,35.7915622 L21.7707223,36.763436 L15.0625588,41.2359369 L19.1457615,43.9584378 L21.0416014,42.6943748 L19.5833595,41.7225009 L23.0835162,39.3887496 L26,41.3331243 Z M12,36.6668757 L19.0003135,32 L26,36.6668757 L17.6875196,42.2084378 L16.2292777,41.2359369 L22.9374412,36.763436 L18.8542385,34.0415622 L16.9583986,35.3056252 L18.4166405,36.2774991 L14.9171107,38.6112504 L12,36.6668757 Z" id="Fill-2" fill="#005795"></path>
            <path d="M30,41.0011514 L30,43.7944732 L33.9031528,43.7944732 C34.8391914,43.7944732 37.163901,43.7000576 37.163901,41.5284974 C37.163901,41.3431203 37.1536431,41.1669545 37.1299216,41.0005757 L34.7064791,41.0011514 C34.7186604,41.0852044 34.7237894,41.173863 34.7237894,41.2677029 C34.7237894,42.4657455 33.6184945,42.4778353 33.1273948,42.4778353 L32.4035677,42.4778353 L32.4035677,41.0011514 L30,41.0011514 Z M38.169822,41.0011514 L37.2164731,43.7944732 L39.1789486,43.7944732 L39.6694072,42.2406448 L41.775494,42.2406448 L42.2544124,43.7944732 L44.3361367,43.7944732 L43.4020214,41.0011514 L41.4203123,41.0011514 L41.4645497,41.1623489 L39.95663,41.1623489 L39.9970207,41.0011514 L38.169822,41.0011514 Z M44.7971036,43.7944732 L46.4819731,43.7944732 L46.4819731,41.0011514 L44.7971036,41.0011514 L44.7971036,43.7944732 Z M47.3577463,41.0011514 L48.6553779,43.7944732 L50.9980389,43.7944732 L50.9980389,41.0011514 L49.3106049,41.0011514 L49.3106049,41.3160622 L49.1637879,41.0011514 L47.3577463,41.0011514 Z M52,41.0005757 C52.0217982,42.751871 52.2705536,43.9994243 54.965832,43.9994243 C56.690451,43.9994243 57.6982954,43.3857225 57.6982954,41.4738054 L55.7358199,41.4738054 C55.7114572,42.0385723 55.7011993,42.929764 54.965832,42.929764 C54.2285413,42.929764 54.0477448,42.5774324 54.0150475,41 L52,41.0005757 Z M58.088852,41.0011514 C58.130525,42.6050662 58.4626263,44 61.1220018,44 C63.7807362,44 64.1134787,42.6050662 64.1551516,41.0017271 L62.1183059,41.0011514 C62.0804797,42.3402418 61.8900664,42.9303397 61.1220018,42.9303397 C60.3539372,42.9303397 60.1628828,42.3402418 60.1256977,41 L58.088852,41.0011514 Z M66.3202218,41.0011514 L66.3202218,43.7944732 L69.2873359,43.7944732 C71.7928421,43.7944732 72.148665,42.1905584 72.1922613,41.0017271 L70.1778549,41.0011514 C70.1201539,42.2366149 69.8656283,42.7248129 69.0539674,42.7248129 L68.2987253,42.7248129 L68.2987253,41.0011514 L66.3202218,41.0011514 Z M72.9385277,41.0011514 C72.9782773,42.6021877 73.3046085,44 75.974242,44 C78.6425932,44 78.9689244,42.6021877 79.0093151,41 L76.9711872,41.0011514 C76.9340021,42.343696 76.7442299,42.9349453 75.974242,42.9349453 C75.2029718,42.9349453 75.0131996,42.343696 74.9766556,41.0005757 L72.9385277,41.0011514 Z M81.0686001,41.0011514 L81.0686001,43.7956246 L84.9717529,43.7956246 C85.9077915,43.7956246 88.2325011,43.7006333 88.2325011,41.5296488 C88.2325011,41.3442717 88.2222432,41.1675302 88.1991628,41.0011514 L85.8103409,41.0011514 C85.82124,41.08981 85.826369,41.1824986 85.826369,41.2803685 C85.826369,42.4784111 84.9255921,42.4905009 84.5261729,42.4905009 L83.4753734,42.4905009 L83.4753734,41.0011514 L81.0686001,41.0011514 Z M88.8896515,43.7933218 L90.9258561,43.7933218 L90.9258561,41.0011514 L88.8896515,41.0011514 L88.8896515,43.7933218 Z M91.758674,41.0011514 L93.1114421,43.7933218 L96.3677025,43.7933218 L96.8588022,42.2394934 L98.964248,42.2394934 L99.4438075,43.7933218 L104.174008,43.7944732 C105.480615,43.7944732 106.805174,43.6378814 106.805174,41.8221071 C106.805174,41.4985607 106.724393,41.2302821 106.588475,41.0028785 L103.640594,41.0011514 C104.246455,41.2579159 104.715115,41.5198618 104.715115,41.9349453 C104.715115,42.4110535 104.431098,42.7311457 103.850882,42.7311457 L101.168427,42.7311457 L100.590134,41.0011514 L98.607784,41.0011514 L98.6539448,41.1663788 L97.1453839,41.1663788 L97.1870569,41.0011514 L95.3438301,41.0011514 L94.5982049,43.1635003 L93.508938,41.0011514 L91.758674,41.0011514 Z M107.542465,43.7944732 L109.528662,43.7944732 L109.528662,41.0011514 L107.542465,41.0011514 L107.542465,43.7944732 Z M110.694863,41.0011514 L110.694863,43.7944732 L115,43.7944732 L115,42.7340242 L112.681702,42.7340242 L112.681702,41.0011514 L110.694863,41.0011514 Z" id="Fill-3" fill="#005795"></path>
            <path d="M32.3837505,40.9994017 L32.3837505,40.0199442 L32.8587203,40.0061827 L33.1632859,40.0061827 C34.1774449,40.0061827 34.5837443,40.3759473 34.6676747,40.9994017 L37.0711361,40.9994017 C36.9477839,40.07499 36.4543749,39.4467491 35.1470953,39.2911847 C36.3361093,39.0692062 36.9306163,38.3290786 36.9306163,37.3059434 C36.9306163,35.4068608 35.5533947,35 33.8862318,35 L30,35 L30,40.9994017 L32.3837505,40.9994017 Z M39.9145963,40.9994017 L40.5866754,38.1854807 L41.326153,40.9994017 L43.2915232,40.9994017 L41.8920474,36.6148783 L39.5305512,36.6148783 L38.1024627,40.9994017 L39.9145963,40.9994017 Z M46.3467169,40.9994017 L46.3467169,39.0422816 L47.2146335,40.9994017 L49.0057846,40.9994017 L47.0550386,36.6148783 L44.6751031,36.6148783 L44.6751031,40.9994017 L46.3467169,40.9994017 Z M49.1513911,40.9994017 L50.8242765,40.9994017 L50.8242765,36.6148783 L49.1513911,36.6148783 L49.1513911,40.9994017 Z M53.6206848,40.9994017 C53.6168698,40.7810132 53.6149623,40.541085 53.6149623,40.2766254 C53.6149623,37.9413642 53.8044415,37.5482649 54.5261158,37.5482649 C55.0455941,37.5482649 55.2783102,37.9186278 55.2783102,38.9070602 L57.2125244,38.9070602 C57.2850098,37.3113283 56.3427003,36.4365776 54.4784281,36.4365776 C51.7010949,36.4365776 51.6203437,38.0969286 51.6203437,40.2766254 C51.6203437,40.5243319 51.6197078,40.7654567 51.6222512,40.9976067 L53.6206848,40.9994017 Z M59.8773146,40.9994017 C59.8709562,40.7774232 59.8684129,40.5368967 59.8684129,40.2766254 C59.8684129,38.372158 59.9828634,37.5482649 60.8654043,37.5482649 C61.7473093,37.5482649 61.8617599,38.372158 61.8617599,40.2766254 C61.8617599,40.5368967 61.8598524,40.7774232 61.853494,40.998205 L63.8735461,40.9994017 C63.8792686,40.7618668 63.8792686,40.5195453 63.8792686,40.2766254 C63.8792686,38.3099322 63.8792686,36.4365776 60.8654043,36.4365776 C57.8509041,36.4365776 57.8509041,38.3099322 57.8509041,40.2766254 C57.8509041,40.5195453 57.8509041,40.7618668 57.8572625,41 L59.8773146,40.9994017 Z M67.9829565,40.9994017 L67.9829565,37.7283606 L68.7834745,37.7283606 C69.8605812,37.7283606 69.8605812,38.9130435 69.8605812,40.2598724 C69.8605812,40.5303151 69.8561304,40.7756282 69.8465928,40.998205 L71.8443907,40.9994017 C71.8545641,40.7002393 71.846934,40.4262066 71.846934,40.2066215 C71.846934,37.9287994 71.4043919,36.592142 69.0352657,36.592142 L66.0207655,36.592142 L66.0207655,40.9994017 L67.9829565,40.9994017 Z M74.605828,40.9994017 C74.6001055,40.7828081 74.5981979,40.5476665 74.5981979,40.2927802 C74.5981979,38.3966893 74.7126485,37.5763861 75.5951894,37.5763861 C76.4770944,37.5763861 76.5915449,38.3966893 76.5915449,40.2927802 C76.5915449,40.5476665 76.5896374,40.7828081 76.5839149,40.9988034 L78.6052387,40.9994017 C78.6103254,40.766055 78.6103254,40.5297168 78.6103254,40.2927802 C78.6103254,38.3350618 78.6103254,36.4694854 75.5951894,36.4694854 C72.5787817,36.4694854 72.5787817,38.3350618 72.5787817,40.2927802 C72.5787817,40.5297168 72.5787817,40.766055 72.5845042,40.998205 L74.605828,40.9994017 Z M83.0344747,40.9994017 L83.0344747,40.0337056 L83.6347043,40.0193458 L84.1255699,40.0193458 C84.9464347,40.0193458 85.2783412,40.3843239 85.3501908,41 L87.719317,40.9994017 C87.5959648,40.0755884 87.1019199,39.4479458 85.7946404,39.291783 C86.9836544,39.0698045 87.5781613,38.3302752 87.5781613,37.3065417 C87.5781613,35.4080574 86.2009398,35.0005983 84.5337769,35.0005983 L80.6475451,35.0005983 L80.6475451,40.9994017 L83.0344747,40.9994017 Z M90.423529,40.9994017 L90.423529,37.7349422 L91.0930647,37.7349422 C91.6627741,37.7349422 92.156819,38.1256482 92.156819,38.8418428 C92.156819,39.4491424 91.8338141,39.9475469 91.3149716,39.916434 L90.7528923,39.9242122 L91.2494805,40.9994017 L92.9853137,40.9994017 L92.6953724,40.3956921 C93.6999938,40.2197846 94.099299,39.6208616 94.1024782,38.5217391 C94.1056574,37.2808137 93.3191278,36.61428 92.0970503,36.61428 L88.4041128,36.61428 L88.4041128,40.9994017 L90.423529,40.9994017 Z M96.6331069,40.9994017 L97.3039143,38.1896689 L98.0421203,40.9994017 L100.008126,40.9994017 L98.6092863,36.61428 L96.2477901,36.61428 L94.8050774,40.9994017 L96.6331069,40.9994017 Z M105.957011,40.9994017 C105.216898,39.7028321 102.815344,39.6777024 102.815344,38.5079777 C102.815344,38.0035899 103.142164,37.7307539 103.695341,37.7307539 L105.490943,37.7313522 L105.490943,36.6094934 L102.967309,36.6094934 C100.892575,36.6094934 100.380091,37.4902274 100.380091,38.6306342 C100.380091,40.0337056 101.93471,40.5081771 103.033436,40.998205 L105.957011,40.9994017 Z M106.903136,40.9994017 L108.872957,40.9994017 L108.872957,36.6148783 L106.903136,36.6148783 L106.903136,40.9994017 Z M110.029543,40.9994017 L112,40.9994017 L112,36.6148783 L110.029543,36.6148783 L110.029543,40.9994017 Z M32.3837505,38.6443957 L32.3837505,36.3683686 L33.2389504,36.3683686 C34.0153066,36.3683686 34.5633975,36.8494216 34.5633975,37.5027922 C34.5633975,38.3661747 33.8633417,38.6372158 33.3603951,38.6372158 L32.5592413,38.6372158 L32.3837505,38.6443957 Z M83.0344747,38.6581572 L83.0344747,36.38213 L84.1878819,36.38213 C84.8205391,36.38213 85.2662604,36.8631831 85.2662604,37.5165536 C85.2662604,38.3793379 84.696551,38.6509773 84.2870724,38.6509773 L83.6347043,38.6509773 L83.0344747,38.6581572 Z" id="Fill-4" fill="#005795"></path>
        </g>
    </g>
</svg>