<?xml version="1.0" encoding="UTF-8"?>
<svg width="126px" height="79px" viewBox="0 0 126 79" version="1.1" xmlns="http://www.w3.org/2000/svg" xmlns:xlink="http://www.w3.org/1999/xlink">
    <!-- Generator: Sketch 50.2 (55047) - http://www.bohemiancoding.com/sketch -->
    <title>Bradesco@2x</title>
    <desc>Created with Sketch.</desc>
    <defs>
        <polygon id="path-1" points="0.0143147208 0.10015748 93.8353807 0.10015748 93.8353807 29.9858268 0.0143147208 29.9858268"></polygon>
    </defs>
    <g id="Page-1" stroke="none" stroke-width="1" fill="none" fill-rule="evenodd">
        <g id="Bradesco">
            <rect id="Rectangle-path-Copy-4" fill="#F1F2F2" fill-rule="nonzero" x="0" y="0" width="125.43" height="78.39" rx="4.18"></rect>
            <path d="M108.951087,43.3065629 C108.908721,43.2016208 108.895685,43.134467 108.877993,43.1403856 C108.845171,43.1501741 108.787907,43.1820438 108.743679,43.1982062 C108.482265,43.3354731 108.01321,43.5257802 107.36119,43.5244144 C106.110455,43.5150812 105.001018,42.5787976 105.001018,41.0636254 C105.001018,39.413235 105.925859,38.5163332 107.18381,38.5174714 C107.882154,38.5181543 108.368668,38.6902502 108.827014,38.9948326 C109.044199,38.2370188 109.409899,37.5192697 109.86359,36.9278609 C109.683184,36.7999272 109.37987,36.6105306 108.974365,36.4204512 L108.974365,36.4220447 C108.36052,36.1527465 107.664969,36 106.889807,36 C104.115052,36 102,37.8368276 102,41.01013 C102,44.1652212 104.115052,45.9977236 106.889807,46 C108.230861,46 109.260221,45.574996 109.260221,45.574996 C109.482992,45.489631 109.845899,45.3250472 110,45.2544788 C109.361713,44.4078855 109.06934,43.6045437 108.951087,43.3065629" id="Fill-1" fill="#4D4E4C"></path>
            <path d="M46.1942827,38.5358794 L47.3694419,38.5358794 C48.4165325,38.5358794 49.4987986,38.2322025 49.4987986,37.0518455 C49.4987986,35.766944 48.4688003,35.6479624 47.4048651,35.6479624 L46.1942827,35.6479624 L46.1942827,38.5358794 Z M46.1942827,44.3525354 L47.4209666,44.3525354 C48.5874557,44.3525354 49.807699,44.1501671 49.807699,42.7263708 C49.807699,41.2025105 48.5547574,41.0621222 47.4561421,41.0621222 L46.1942827,41.0621222 L46.1942827,44.3525354 Z M43,33 L48.7955362,33 C51.0271991,33 52.6923382,34.1430197 52.6923382,36.5490363 C52.6923382,38.3153403 51.9212019,39.2978095 50.580817,39.8187896 L50.580817,39.8591139 C52.1768436,40.2404523 53,41.242088 53,42.9484034 C53,46.2980585 50.4770244,47 48.3308232,47 L43,47 L43,33 Z" id="Fill-2" fill="#4D4E4C"></path>
            <path d="M77.0426718,44.2849772 C78.0682749,44.2849772 78.9229441,43.1648015 78.9229441,41.6685493 C78.9229441,40.1147021 78.1703912,38.9962347 77.0426718,38.9962347 C75.8473682,38.9962347 75.1796655,40.1749817 75.1796655,41.5309068 C75.1796655,43.1648015 75.879187,44.2849772 77.0426718,44.2849772 M82,46.7630304 L79.1619555,46.7630304 L79.1619555,45.22407 L79.1281634,45.22407 C78.527305,46.3608409 77.378373,47 76.0681269,47 C73.4175423,47 72,44.4809469 72,41.4547641 C72,38.935223 73.3499581,36.2790154 75.8128361,36.2790154 C77.0426718,36.2790154 78.0843076,36.6526514 78.8713926,37.834327 L78.9056781,37.834327 L78.9056781,33 L82,33 L82,46.7630304" id="Fill-3" fill="#4D4E4C"></path>
            <path d="M116.931813,41.0099019 C116.931813,39.5774282 116.369697,38.3145387 115.000238,38.3145387 C113.632684,38.3145387 113.071758,39.5774282 113.071758,41.0099019 C113.071758,42.4223441 113.632684,43.6872823 115.000238,43.6872823 C116.369697,43.6872823 116.931813,42.4223441 116.931813,41.0099019 M110,41.0099019 C110,37.8369716 112.162278,36 115.000238,36 C117.839865,36 120,37.8369716 120,41.0099019 C120,44.1648494 117.839865,46 115.000238,46 C112.162278,46 110,44.1648494 110,41.0099019" id="Fill-4" fill="#4D4E4C"></path>
            <path d="M68.0032607,42.7466478 C67.6007282,43.4002322 66.9331015,43.7369272 66.1018695,43.7369272 C65.3902234,43.7369272 64.8480517,43.3508321 64.8480517,42.6906458 C64.8480517,41.7748082 65.6619205,41.4255925 66.6951524,41.4255925 C67.1536873,41.4255925 67.6117331,41.4626995 68.0032607,41.478635 L68.0032607,42.7466478 Z M71,45.779862 C70.8659855,45.024518 70.8305255,44.2748651 70.8305255,43.5233911 L70.8305255,39.9629385 C70.8305255,37.0471919 68.8826694,36 66.6269224,36 C65.3437585,36 64.2237107,36.1969176 63.1525732,36.6576821 L63.1525732,38.8929815 L63.153796,38.9184784 C64.0019021,38.4042161 64.9847563,38.2018349 65.9690778,38.2018349 C67.0695614,38.2018349 67.9660888,38.550823 67.9836965,39.853894 C67.5936362,39.7805905 67.0539101,39.7241332 66.5608934,39.7241332 C64.934134,39.7241332 62,40.0731213 62,42.9906891 C62,45.0636738 63.5619532,46 65.3051193,46 C66.4606271,46 67.4549753,45.4877866 68.0162219,44.5154916 L68.0162219,45.779862 L71,45.779862 Z" id="Fill-5" fill="#4D4E4C"></path>
            <path d="M60.1615405,36 C58.9030369,36 58.1776752,36.7902332 57.6764147,38.0252782 L57.6459295,38.0252782 L57.6459295,36.2257809 L55,36.2257809 L55,46 L57.9044719,46 L57.9044719,41.8717006 C57.9044719,39.9623388 58.652872,38.8099251 60.0049257,38.7121642 C60.2839468,38.6921465 60.7505333,38.7736139 61,38.8704436 L61,36.1496671 C60.754024,36.0609841 60.4221774,36 60.1615405,36" id="Fill-6" fill="#4D4E4C"></path>
            <path d="M85.9894569,40.0925129 C86.0560703,38.9930115 86.5722045,38.0942885 87.6495208,38.0942885 C88.8456869,38.0942885 89.3115016,38.9930115 89.3115016,40.0925129 L85.9894569,40.0925129 Z M92,41.3584193 C92,38.5147397 90.8404952,36 87.6351438,36 C84.9435304,36 83,37.8370552 83,40.9905529 C83,44.1460994 85.1766773,46 88.0305112,46 C89.1435304,46 90.240016,45.8137904 91.2039936,45.3944775 L91.2039936,43.0648091 C90.3063898,43.5956657 89.3788339,43.7968995 88.5646166,43.7968995 C87.102476,43.7968995 86.188099,43.2831159 86.0232428,41.9639418 L92,41.9639418 L92,41.3584193 Z" id="Fill-7" fill="#4D4E4C"></path>
            <g id="Group-11" transform="translate(6.000000, 24.000000)">
                <mask id="mask-2" fill="white">
                    <use xlink:href="#path-1"></use>
                </mask>
                <g id="Clip-9"></g>
                <path d="M90.2963046,11.5476378 C88.5778223,11.5476378 86.6262487,12.4811811 86.6262487,14.7675591 C86.6262487,18.343937 90.8595888,17.1661417 90.8595888,18.8411811 C90.8595888,19.5245669 90.2636193,19.6384252 89.6528579,19.6384252 C88.5778223,19.6384252 87.5493096,19.2966142 86.8593401,18.9538583 L86.8593401,21.3146457 C87.6440254,21.6325984 88.561599,21.9250394 89.8181929,21.9250394 C91.7697665,21.9250394 93.8353807,21.2579528 93.8353807,18.6125197 C93.8353807,14.8410236 89.4025888,16.0601575 89.4025888,14.5183465 C89.4025888,13.9667717 90.1328782,13.818189 90.776802,13.8323622 C91.4608071,13.850315 92.5246294,14.1330709 93.1542386,14.5717323 L93.1542386,12.1367717 C92.2426294,11.7531496 91.2553909,11.5476378 90.2963046,11.5476378" id="Fill-8" fill="#4D4E4C" mask="url(#mask-2)"></path>
                <path d="M30.1973807,30 L5.07218274,30 C5.07218274,30 0,30 0,24.9779528 L0,0.10015748 L25.1254365,0.10015748 C25.1254365,0.10015748 30.1973807,0.10015748 30.1973807,5.12244094 L30.1973807,30" id="Fill-10" fill="#D11F3E" mask="url(#mask-2)"></path>
            </g>
            <polygon id="Fill-12" fill="#FFFFFE" points="19 51 21 51 21 43 19 43"></polygon>
            <polygon id="Fill-13" fill="#FFFFFE" points="22 50 24 50 24 40 22 40"></polygon>
            <path d="M17.3937194,32.2698706 C17.3937194,32.2698706 19.881559,29.8650266 24.073322,30.6571571 C24.073322,30.6571571 25.918655,30.9400096 27.3317827,32.1816436 C27.3317827,32.1816436 27.5418422,32.3774646 27.7040401,32.2179864 C27.7040401,32.2179864 27.9087816,32.0582692 27.6808344,31.820128 C27.6808344,31.820128 26.4651965,30.1524219 24.0665537,29.415523 C24.0665537,29.415523 20.769417,28.2484875 17.3823583,29.8260537 C17.3823583,29.8260537 15.2974753,30.6793931 14.1417854,33.0067695 C14.1417854,33.0067695 12.4939422,33.5349362 11.2584828,34.2194728 C11.2584828,34.2194728 10.8925103,34.3638877 11.0315025,34.6431538 C11.0315025,34.6431538 11.1494646,34.844474 11.4690258,34.695038 C11.4690258,34.695038 12.6162553,34.3041133 13.7223915,34.0595164 C13.7223915,34.0595164 12.8330832,36.3409861 13.7613093,39.1742931 C14.1749018,40.4345767 14.9283604,41.7182919 16.0821165,42.7492809 C16.0821165,42.7492809 16.2696956,42.9441455 16.4749206,42.8109681 C16.4749206,42.8109681 16.6523471,42.6835291 16.5268916,42.4757533 C16.5268916,42.4757533 15.6080927,41.1069193 15.2508223,39.1587517 C14.9532581,37.5732953 15.0934589,35.3812482 16.2075721,33.6456384 C16.2075721,33.6456384 20.4488889,33.059371 24.0643782,34.4057298 C24.0643782,34.4057298 30.2066248,36.3878492 28.6593395,40.0637363 C28.6593395,40.0637363 28.211422,41.3419523 26.5159589,42.4982284 C26.5159589,42.4982284 26.2319313,42.6610539 26.3868774,42.8960869 C26.3868774,42.8960869 26.5147503,43.0780402 26.8043375,42.9604042 C26.8043375,42.9604042 29.4011953,42.1259534 30.5208681,40.0632581 C30.5208681,40.0632581 32.7950222,36.6221649 27.4342743,33.816115 C27.4342743,33.816115 25.9611987,33.0361785 24.0665537,32.6191923 C24.0665537,32.6191923 20.6524218,31.7845024 17.3937194,32.2698706" id="Fill-14" fill="#FFFFFE"></path>
        </g>
    </g>
</svg>