<?xml version="1.0" encoding="UTF-8"?>
<svg width="126px" height="79px" viewBox="0 0 126 79" version="1.1" xmlns="http://www.w3.org/2000/svg" xmlns:xlink="http://www.w3.org/1999/xlink">
    <!-- Generator: Sketch 50.2 (55047) - http://www.bohemiancoding.com/sketch -->
    <title>Caixa@2x</title>
    <desc>Created with Sketch.</desc>
    <defs></defs>
    <g id="Page-1" stroke="none" stroke-width="1" fill="none" fill-rule="evenodd">
        <g id="Caixa">
            <rect id="Rectangle-path-Copy-2" fill="#F1F2F2" fill-rule="nonzero" x="0" y="0" width="125.43" height="78.39" rx="4.18"></rect>
            <path d="M44.5334738,35.0990044 L41.9794109,41.5898548 L45.5132212,41.5898548 L44.5442732,35.0714723 L44.5334738,35.0990044 Z M31,50 L41.4796377,28 L49.4010126,28 L53.8197755,50 L46.8637488,50 L46.3525762,47.0675232 L39.6041383,47.0675232 L38.0514216,50 L31,50 Z M57.1123988,50 L60.147636,28 L67.1564599,28 L64.1212228,50 L57.1123988,50 Z M103.724498,35.0714723 L101.159035,41.5898548 L104.693446,41.5898548 L103.724498,35.0714723 Z M90.1802245,50 L100.659862,28 L108.580637,28 L113,50 L106.043973,50 L105.532201,47.0675232 L98.7843628,47.0675232 L97.2316461,50 L90.1802245,50 Z" id="Fill-2" fill="#00679B"></path>
            <polyline id="Fill-3" fill="#00679B" points="74 39 82.9017271 39 89 49 80.0982729 49 74 39"></polyline>
            <polyline id="Fill-4" fill="#E77A34" points="75 38 84.0983798 38 92 28 82.9016202 28 75 38"></polyline>
            <polyline id="Fill-5" fill="#E77A34" points="66 49 75.0983798 49 83 39 73.9016202 39 66 49"></polyline>
            <polyline id="Fill-6" fill="#00679B" points="69 28 77.308326 28 83 38 74.691674 38 69 28"></polyline>
            <path d="M31,28.2074884 L30.3201928,34.4541246 C27.713559,30.9453758 21.6733843,33.3666488 21.1987905,37.7372267 C20.5958626,43.2850666 26.4096367,44.5786962 29.5731918,41.311543 L28.8915686,47.572356 C27.9472238,48.0260124 27.0240662,48.3762966 26.1130156,48.6149388 C25.2068078,48.8529903 24.2981786,48.978809 23.3968136,48.9971207 C22.2635998,49.0201579 21.2369275,48.9049717 20.3119539,48.6509714 C19.3863749,48.4016966 18.5497822,48.0041566 17.8094401,47.4683931 C16.3808159,46.4488475 15.3480901,45.1534458 14.7112627,43.5768716 C14.075646,41.9949812 13.8655898,40.2098904 14.0829102,38.2156924 C14.2572508,36.6125368 14.6713097,35.1505581 15.330535,33.8250308 C15.9849175,32.5000941 16.89052,31.2962507 18.0437103,30.2046399 C19.1339442,29.1626478 20.3210341,28.3776096 21.6055852,27.8442089 C22.8852935,27.3155338 24.2824395,27.0331799 25.7915752,27.0024636 C26.6929402,26.9835612 27.5779608,27.0733474 28.436346,27.2747756 C29.3001793,27.4767944 30.1513004,27.7904553 31,28.2074884" id="Fill-7" fill="#00679B"></path>
        </g>
    </g>
</svg>