<?xml version="1.0" encoding="UTF-8"?>
<svg width="126px" height="79px" viewBox="0 0 126 79" version="1.1" xmlns="http://www.w3.org/2000/svg" xmlns:xlink="http://www.w3.org/1999/xlink">
    <!-- Generator: Sketch 50.2 (55047) - http://www.bohemiancoding.com/sketch -->
    <title>img-marca-cielo@2x</title>
    <desc>Created with Sketch.</desc>
    <defs></defs>
    <g id="Page-1" stroke="none" stroke-width="1" fill="none" fill-rule="evenodd">
        <g id="img-marca-cielo" fill-rule="nonzero">
            <rect id="Rectangle-path-Copy-6" fill="#F1F2F2" x="0" y="0" width="125.43" height="78.39" rx="4.18"></rect>
            <path d="M67.7916507,49 C66.2129079,50.462081 64.0445112,51.3578079 61.6540765,51.3223488 C60.0151911,51.298893 58.4988053,50.8347316 57.2066721,50.0625608 L54,54.8761846 C56.1950878,56.1821135 58.7805197,56.9593499 61.5626971,56.9983328 C65.6182422,57.0572477 69.3106007,55.5510081 72,53.0683226 L67.7916507,49 Z" id="Shape" fill="#000000"></path>
            <path d="M61.4041099,28.0016702 C53.5708564,27.8825027 47.1229163,34.1550286 47.0015345,42.0150932 C46.9588868,44.9592126 47.8072018,47.7060814 49.2982858,50 L75,38.9829032 C73.5538261,32.7732524 68.0479804,28.1026789 61.4041099,28.0016702 Z M52.8870234,43.1197196 C52.849127,42.7838941 52.8286516,42.4488631 52.834534,42.1036176 C52.9052363,37.4761714 56.7014429,33.7820909 61.3156472,33.852343 C63.8284649,33.8918385 66.0574551,35.0425431 67.5615483,36.8288079 L52.8870234,43.1197196 Z" id="Shape" fill="#000000"></path>
            <path d="M30.9381842,48.6047215 C29.4397334,50.1086728 27.389785,51.0379613 25.1274622,51.0379613 C20.532288,51.0379613 16.8082434,47.2148935 16.8082434,42.4988437 C16.8082434,37.7852222 20.532288,33.9606512 25.1274622,33.9606512 C26.2591869,33.9606512 27.3363816,34.1938694 28.3204018,34.6163679 L30.547235,29.1074687 C28.8784339,28.3957888 27.0496479,28 25.1274622,28 C17.3238006,28.0001156 11,34.491954 11,42.4989594 C11,50.5074679 17.3238006,57 25.1274622,57 C28.9692423,57 32.4522956,55.4237823 35,52.8690193 L30.9381842,48.6047215 Z" id="Shape" fill="#000000"></path>
            <path d="M83.3309612,22 L83.3309612,49.5810389 L88,51.5655796 L85.7948518,57 L81.1748485,55.0360769 C80.1285373,54.5772473 79.427253,53.8708911 78.8994274,53.0729512 C78.383388,52.2668099 78,51.152314 78,49.6553082 L78,22 L83.3309612,22 Z" id="Shape" fill="#000000"></path>
            <path d="M37.6708565,56 L37.6708565,38.3428079 L33,36.3778788 L35.205673,31 L39.8263626,32.9437342 C40.8730812,33.3979599 41.5731924,34.0990841 42.103782,34.8861155 C42.6187987,35.6839699 43,36.7898273 43,38.2686256 L43,56 L37.6708565,56 Z" id="Shape" fill="#000000"></path>
            <path d="M37,24.9992444 C37,22.7906804 38.7904862,21 40.9995351,21 C43.2095138,21 45,22.7905642 45,24.9992444 C45,27.2094358 43.2095138,29 40.9995351,29 C38.7904862,29 37,27.2094358 37,24.9992444 Z" id="Shape" fill="#00AEEF"></path>
            <g id="Group" transform="translate(89.000000, 28.000000)">
                <path d="M18.1806984,6.87115873 C22.4122817,8.90346032 24.1923294,13.9797262 22.1589921,18.2098135 L27.5055794,20.781377 C30.9606071,13.5985833 27.935746,4.97534127 20.7497302,1.52261508 C15.2905952,-1.09935317 9.0045,0.0177222222 4.78419444,3.85987698 L8.77951984,8.25003968 C11.2668452,5.98780952 14.965496,5.32472222 18.1806984,6.87115873 Z" id="Shape" fill="#00AEEF"></path>
                <path d="M10.8180357,22.190754 C6.58771825,20.1553452 4.80755556,15.0798849 6.83985714,10.8499127 L1.49361508,8.27834921 C-1.95796032,15.4634444 1.06344841,24.0845 8.24923413,27.5372262 C13.708254,30.161496 19.9981468,29.0414286 24.2173016,25.1970873 L20.2220913,20.8098016 C17.7358016,23.0719167 14.0333532,23.7335079 10.8180357,22.190754 Z" id="Shape" fill="#000000"></path>
            </g>
        </g>
    </g>
</svg>