<svg xmlns="http://www.w3.org/2000/svg" viewBox="0 0 125.43 78.39"><defs><style>.cls-1{fill:#13457c;}.cls-2{fill:#007cc3;}.cls-3{fill:#009ddd;}.cls-4{fill:#fff;}</style></defs><title>Asset 19</title><g id="Layer_2" data-name="Layer 2"><g id="Layer_1-2" data-name="Layer 1"><rect class="cls-1" width="125.43" height="78.39" rx="4.18" ry="4.18"/><circle class="cls-2" cx="47.63" cy="39.2" r="22.47" transform="translate(-1.46 76.55) rotate(-76.72)"/><path class="cls-3" d="M77.8,16.73a22.41,22.41,0,0,0-15.09,5.81,23.06,23.06,0,0,0-2.26,2.38H65A22.11,22.11,0,0,1,66.7,27.3h-8a21.88,21.88,0,0,0-1.29,2.38H68a22.26,22.26,0,0,1,1,2.38H56.49a21.48,21.48,0,0,0-.66,2.38H69.59a22.48,22.48,0,0,1-.65,11.89H56.49a21.45,21.45,0,0,0,.95,2.38H68a22.7,22.7,0,0,1-1.29,2.38h-8a21.16,21.16,0,0,0,1.72,2.38H65a20.42,20.42,0,0,1-2.27,2.38A22.47,22.47,0,1,0,77.8,16.73Z"/><path class="cls-3" d="M97.27,51.72A.73.73,0,0,1,98,51a.72.72,0,0,1,.72.72.73.73,0,0,1-.72.73A.73.73,0,0,1,97.27,51.72Zm.73.55a.55.55,0,0,0,.55-.55.55.55,0,0,0-.55-.55.55.55,0,0,0-.55.55A.54.54,0,0,0,98,52.27ZM97.9,52h-.15V51.4H98a.3.3,0,0,1,.16,0,.21.21,0,0,1,.08.16.18.18,0,0,1-.11.17l.12.28H98.1L98,51.79H97.9Zm0-.36h.17a.09.09,0,0,0,0-.08.08.08,0,0,0,0-.06s-.06,0-.09,0H97.9Z"/><path class="cls-4" d="M89.73,44.21a.73.73,0,0,1,.73-.72.72.72,0,0,1,.72.72.73.73,0,0,1-.72.73A.73.73,0,0,1,89.73,44.21Zm.73.56a.56.56,0,0,0,0-1.11.56.56,0,0,0,0,1.11Zm-.1-.24h-.15v-.64h.27a.29.29,0,0,1,.16,0,.18.18,0,0,1,.08.16.16.16,0,0,1-.11.16l.12.28h-.17l-.09-.25h-.11Zm0-.36h.17a.09.09,0,0,0,0-.07.08.08,0,0,0,0-.07s-.07,0-.09,0h-.08Z"/><path class="cls-4" d="M47,33.35c-.2.88-.31,1.38-.58,2.45-1.69-.71-4-1.09-5.69,0a4.59,4.59,0,0,0-2.08,4.48,2.75,2.75,0,0,0,1.69,2.08,5.68,5.68,0,0,0,4.8-.49c-.24,1.09-.42,1.94-.63,2.72a9.85,9.85,0,0,1-6,.07,5,5,0,0,1-3.4-4,6.69,6.69,0,0,1,3.69-7A12.39,12.39,0,0,1,47,33.35Z"/><path class="cls-4" d="M75.67,43.39a4.73,4.73,0,0,1-3.91,1.7c-2.25,0-3.67-1.65-2.88-5.37l.93-4.38h3.43l-.93,4.38c-.31,1.49-.24,2.62,1.27,2.62,1.79,0,2.32-1.08,2.66-2.62l.93-4.38H80.6l-1.54,7c-.18.82-.34,1.7-.44,2.56H75.4S75.6,43.77,75.67,43.39Z"/><path class="cls-4" d="M81.73,38.38c0,1.21.8,2,2.62,2.67,1.4.49,1.62.63,1.62,1.06,0,.61-.62.86-2,.86a12.6,12.6,0,0,1-3.1-.37s-.43,2-.47,2.22a25.41,25.41,0,0,0,3.59.27c3.63,0,5.31-1,5.31-3.2,0-1.31-.7-2.08-2.43-2.67-1.45-.48-1.61-.59-1.61-1s.58-.78,1.69-.78c.67,0,1.61.05,2.49.14L90,35.32a30,30,0,0,0-3-.2C83.06,35.12,81.72,36.61,81.73,38.38Z"/><polygon class="cls-4" points="48.5 35.34 51.93 35.34 49.89 44.94 46.45 44.94 48.5 35.34"/><path class="cls-4" d="M68.84,35.3a3.91,3.91,0,0,0-3.93,1.52,6.84,6.84,0,0,0,.2-1.48H62c-.45,3-1.26,6-1.89,8.95l-.16.65h3.58c.43-1.95.92-4.89,1.49-5.78A2.31,2.31,0,0,1,67.74,38Z"/><path class="cls-4" d="M61,35.3a3.93,3.93,0,0,0-3.94,1.52,6.86,6.86,0,0,0,.21-1.48H54.14c-.45,3-1.26,6-1.89,8.95l-.16.65h3.58c.42-1.95.92-4.89,1.49-5.78A2.31,2.31,0,0,1,59.92,38Z"/></g></g></svg>