<svg xmlns="http://www.w3.org/2000/svg" viewBox="0 0 125.43 78.39"><defs><style>.cls-1{fill:#231f20;}.cls-2{fill:#fff;fill-rule:evenodd;}</style></defs><title>Asset 14</title><g id="Layer_2" data-name="Layer 2"><g id="Layer_1-2" data-name="Layer 1"><rect class="cls-1" width="125.43" height="78.39" rx="4.18" ry="4.18"/><path class="cls-2" d="M60.49,32.15h3.9s3.86-.08,3.82,3.42c0,2.61-3.74,3-3.74,3h-4V32.15ZM72.15,44.73c.11.51.47,1.07,1.7,1.13a4.71,4.71,0,0,0,2.58-.59v1.21a16.71,16.71,0,0,1-2.65.43c-.9,0-3.55-.2-3.55-2.65,0-2,2.18-2.61,3.43-2.61,2.18.08,3.23.86,3.19,3.08,0,0-3.58,0-4.7,0Zm0-1h3s0-1.13-1.44-1.13a1.37,1.37,0,0,0-1.55,1.13Zm9.46-1.22A3,3,0,0,1,84,41.69a2.55,2.55,0,0,1,2.77,2.57c0,.54-.23,2.61-3,2.61a2.62,2.62,0,0,1-2.1-.81v.65H79.7v-7h1.91v2.83Zm1.63,3.25a1.67,1.67,0,0,0,1.64-1.48c0-.47-.27-1.44-1.72-1.44a1.51,1.51,0,0,0-1.55,1.26v.5a1.48,1.48,0,0,0,1.63,1.16Zm16.48-.2,0,1.09a8.79,8.79,0,0,1-1.48.2c-.58,0-2.11-.35-2.11-1.83V42.78H94.58v-1h1.59V40.56h2v1.21h1.6v1h-1.6v1.95s0,1,.78,1,.82-.12.82-.12ZM93.8,33.2h2.26v5.41H98V33.2h2.29V32.07H93.8V33.2Zm-.78.27.23-1.13a7.17,7.17,0,0,0-2.68-.43c-1.68,0-4.37.94-4.37,3.47s2.84,3.35,4.6,3.35a6.47,6.47,0,0,0,2.34-.27l-.2-1.25a8.15,8.15,0,0,1-2.1.23c-1.29,0-2.61-1-2.61-2.18A2.64,2.64,0,0,1,91,33.12a6.28,6.28,0,0,1,2.06.35ZM75.8,32.11S79,32,79,33.82c0,1.6-1.83,1.72-1.83,1.72a1.16,1.16,0,0,1,.73.42c.2.32,1.48,2.65,1.48,2.65H77.44A5.85,5.85,0,0,1,77,38c-.12-.27-.47-.86-.47-.86a1.33,1.33,0,0,0-1.21-1l-.69,0v2.52H72.72v-6.5ZM74.6,35h1s1.4-.08,1.48-.94-1.37-.93-1.37-.93H74.6V35Zm7.82,1h3.12V34.83H82.42V33.35h3.39V32.11H80.52v6.5h5.33V37.44H82.42V36ZM90,41h1.91V39.7H90V41Zm0,5.68h1.91V41.77H90v4.94Zm-20.8-8.1h1.87v-6.5H69.22v6.5Zm-8.73,1.64h3.9s3.86-.08,3.82,3.43c0,2.61-3.74,3-3.74,3h-4V40.25Zm1.91,5.22h1.25s2.57-.16,2.57-2.15-2.73-2.18-2.73-2.18H62.4v4.33Zm0-8.1h1.25s2.57-.2,2.57-2.15S63.49,33,63.49,33H62.4v4.33Z"/><path class="cls-2" d="M43,36v13s-7.56-1.36-7.56-6.54c0-4.13,5.59-6,7.56-6.49Zm0-.24c-4.55-.33-14.85,1.8-14.85,6.45,0,3,5.46,7.48,14.34,7.6.35,0,10.44-.39,10.28-11.22-.13-9.09-6.94-10.69-9.11-11v-.56c8.67.55,15.5,5.77,15.5,12.11,0,6.7-7.63,12.15-17,12.15s-17-5.45-17-12.15S32.76,27,42.15,27l.86,0v8.72Z"/></g></g></svg>