<svg xmlns="http://www.w3.org/2000/svg" xmlns:xlink="http://www.w3.org/1999/xlink" viewBox="0 0 125.43 78.39"><defs><style>.cls-1{fill:#f1f2f2;}.cls-2{fill:#f58220;}.cls-3{fill:url(#radial-gradient);}.cls-4{fill:#001722;}.cls-5{fill:#231f20;}</style><radialGradient id="radial-gradient" cx="57.82" cy="-446.88" r="6.18" gradientTransform="translate(6.42 486.08)" gradientUnits="userSpaceOnUse"><stop offset="0.01" stop-color="#ffeee0"/><stop offset="0.11" stop-color="#fee9d7"/><stop offset="0.28" stop-color="#fddbbf"/><stop offset="0.49" stop-color="#fbc597"/><stop offset="0.74" stop-color="#f8a560"/><stop offset="1" stop-color="#f48120"/></radialGradient></defs><title>Asset 1</title><g id="Layer_2" data-name="Layer 2"><g id="Layer_1-2" data-name="Layer 1"><rect class="cls-1" width="125.43" height="78.39" rx="4.18" ry="4.18"/><path class="cls-2" d="M34.48,78.39h86.77a4.18,4.18,0,0,0,4.18-4.18V44.86C117.1,50.14,85.7,68.34,34.48,78.39Z"/><path class="cls-3" d="M64.25,33.09a6.15,6.15,0,0,0-6.26,6,6.25,6.25,0,1,0,6.26-6Z"/><path class="cls-4" d="M28.71,33.31H25.35V45.05h3.34a6.14,6.14,0,0,0,4.19-1.35A5.92,5.92,0,0,0,35,39.19C35,35.72,32.42,33.31,28.71,33.31Zm2.68,8.82a4.37,4.37,0,0,1-3.14.93h-.62V35.3h.62a4.24,4.24,0,0,1,3.14,1,3.93,3.93,0,0,1,1.26,2.92A4,4,0,0,1,31.39,42.13Z"/><rect class="cls-4" x="36.07" y="33.31" width="2.29" height="11.74"/><path class="cls-4" d="M44,37.81c-1.37-.51-1.78-.84-1.78-1.47s.72-1.3,1.71-1.3a2.39,2.39,0,0,1,1.85.94l1.2-1.56a5.12,5.12,0,0,0-3.46-1.3,3.45,3.45,0,0,0-3.66,3.36c0,1.62.74,2.44,2.89,3.22a8.06,8.06,0,0,1,1.59.67A1.41,1.41,0,0,1,45,41.58a1.67,1.67,0,0,1-1.78,1.65,2.68,2.68,0,0,1-2.49-1.56L39.22,43.1a4.57,4.57,0,0,0,4.06,2.23,3.78,3.78,0,0,0,4-3.85C47.33,39.61,46.56,38.77,44,37.81Z"/><path class="cls-4" d="M48.05,39.19a6.08,6.08,0,0,0,6.2,6.12,6.34,6.34,0,0,0,2.87-.68v-2.7a3.67,3.67,0,0,1-2.77,1.29,3.84,3.84,0,0,1-3.94-4,3.9,3.9,0,0,1,3.84-4,3.84,3.84,0,0,1,2.87,1.32V33.77a5.83,5.83,0,0,0-2.82-.72A6.17,6.17,0,0,0,48.05,39.19Z"/><polygon class="cls-4" points="75.67 41.2 72.53 33.31 70.03 33.31 75.02 45.35 76.25 45.35 81.32 33.31 78.84 33.31 75.67 41.2"/><polygon class="cls-4" points="82.36 45.05 88.85 45.05 88.85 43.06 84.64 43.06 84.64 39.89 88.69 39.89 88.69 37.9 84.64 37.9 84.64 35.3 88.85 35.3 88.85 33.31 82.36 33.31 82.36 45.05"/><path class="cls-4" d="M97.91,36.78c0-2.2-1.51-3.47-4.15-3.47h-3.4V45.05h2.29V40.33H93l3.17,4.72h2.82l-3.7-4.95A3.12,3.12,0,0,0,97.91,36.78Zm-4.59,1.93h-.67V35.16h.71c1.43,0,2.2.6,2.2,1.74S94.79,38.71,93.32,38.71Z"/><path class="cls-5" d="M99.53,34.19c0-.21-.14-.32-.39-.32h-.33v1h.24v-.4l.29.4h.31l-.35-.43A.27.27,0,0,0,99.53,34.19Zm-.43.14h0v-.27h0c.12,0,.18,0,.18.13S99.22,34.33,99.1,34.33Z"/><path class="cls-5" d="M99.19,33.48a.91.91,0,1,0,.89.9A.9.9,0,0,0,99.19,33.48Zm0,1.64a.74.74,0,1,1,.71-.74A.73.73,0,0,1,99.19,35.12Z"/></g></g></svg>