<svg xmlns="http://www.w3.org/2000/svg" viewBox="0 0 125.43 78.39"><defs><style>.cls-1{fill:#1d1e1e;}.cls-2{fill:#ee3a3f;}.cls-3{fill:#0067b2;}.cls-4{fill:#faac18;}.cls-5{fill:#6ab845;}.cls-6{fill:#231f20;}</style></defs><title>Asset 15</title><g id="Layer_2" data-name="Layer 2"><g id="Layer_1-2" data-name="Layer 1"><rect class="cls-1" width="125.43" height="78.39" rx="4.18" ry="4.18"/><path class="cls-2" d="M34.37,31.22c-8.9,0-9.25,6.93-9.2,8.73,0,0-.44,8.11,9,8.11,8.1,0,8.5-5.09,8.5-5.09H38.93s-.73,2.8-4.76,2.73c-5.18-.1-5.38-5.12-5.38-5.12H43.14S44.23,31.22,34.37,31.22Zm-5.46,6.91s.25-4.54,5.38-4.54,5.1,4.54,5.1,4.54Z"/><path class="cls-3" d="M53.11,31.22c-4.48,0-6.4,2.65-6.4,2.65V24.92H43.12l.06,18.93s0,2.2-.16,3.66h3.49l.15-2.13s1.62,2.68,6.38,2.68,8.5-2.93,8.6-8.36S57.59,31.25,53.11,31.22Zm-.82,14.42c-5.66.07-5.56-6-5.56-6s-.21-5.84,5.55-6,5.57,6.12,5.57,6.12S57.94,45.57,52.29,45.64Z"/><path class="cls-4" d="M78.23,43.77c0-2.45.08-4.63,0-6.18-.1-1.78.07-6.1-7.66-6.42,0,0-7.41-.67-8.18,4.84h3.79s.3-2.52,4.14-2.45c3.64.07,4.31,1.85,4.29,4H70.45c-1.88,0-8.44.22-9.06,4.22-.73,4.75,3.52,6.24,6.84,6.22s5.21-1,6.62-2.8L75,47.48l3.3,0S78.22,46.22,78.23,43.77Zm-9.38,2s-3.6,0-3.81-2.87C64.81,39.83,70.57,40,70.57,40h4.07S75.3,45.85,68.85,45.77Z"/><polygon class="cls-5" points="76.27 31.82 80.43 31.82 86.52 43.97 92.63 31.82 96.39 31.82 85.37 53.48 81.34 53.48 84.53 47.46 76.27 31.82"/><path class="cls-6" d="M97.8,32.69v-.45h-.14v-.17h.14v-.23h.25v.23h.3v.17h-.3v.42c0,.07,0,.11.14.11l.15,0v.16a.67.67,0,0,1-.22,0C97.93,32.94,97.8,32.88,97.8,32.69Z"/><path class="cls-6" d="M98.6,32.07h.25v.13a.42.42,0,0,1,.34-.15.38.38,0,0,1,.32.15.53.53,0,0,1,.37-.15c.24,0,.39.12.39.33v.54H100v-.48a.2.2,0,0,0-.22-.21.21.21,0,0,0-.23.21v.48h-.25v-.48a.2.2,0,0,0-.22-.21.21.21,0,0,0-.24.21v.48H98.6Z"/></g></g></svg>