<?xml version="1.0" encoding="UTF-8"?>
<svg width="126px" height="79px" viewBox="0 0 126 79" version="1.1" xmlns="http://www.w3.org/2000/svg" xmlns:xlink="http://www.w3.org/1999/xlink">
    <!-- Generator: Sketch 50.2 (55047) - http://www.bohemiancoding.com/sketch -->
    <title>Elavon@2x</title>
    <desc>Created with Sketch.</desc>
    <defs>
        <polygon id="path-1" points="0.0424285714 0.399315789 99 0.399315789 99 26.9573684 0.0424285714 26.9573684"></polygon>
    </defs>
    <g id="Page-1" stroke="none" stroke-width="1" fill="none" fill-rule="evenodd">
        <g id="Elavon">
            <rect id="Rectangle-path-Copy-11" fill="#F1F2F2" fill-rule="nonzero" x="0" y="0" width="125.43" height="78.39" rx="4.18"></rect>
            <path d="M83.0930659,19.3901305 C82.5397936,19.4861914 81.9879201,19.5983793 81.4360467,19.7266943 C66.4809067,23.2136345 52,38 52,38 C62.0890015,29.1616968 71.9520776,23.6637884 80.0140459,21.6647403 C80.4889788,21.546943 80.9548187,21.4452727 81.4143635,21.3534188 C84.1730311,20.7945828 86.6952815,20.6718773 88.9160649,20.9853023 C88.9671254,20.3100713 88.9958032,19.6663933 89,19.0584751 C87.0534047,18.913332 85.0746342,19.0437504 83.0930659,19.3901305" id="Fill-1" fill="#283570"></path>
            <path d="M92.2856612,20.0573758 C92.1904408,20.0358599 92.0944935,20.0193643 92,20 C92.0414318,20.7028537 92.0588767,21.4681036 92.0487005,22.2871433 C100.448448,25.5324626 95.2651149,39 95.2651149,39 C96.7079584,37.1187906 101.995235,22.2254643 92.2856612,20.0573758" id="Fill-2" fill="#283570"></path>
            <path d="M70,38 C70,38 76.1416247,28.0798684 82,21 C81.5262401,21.0939108 81.0474479,21.1978578 80.5593098,21.3168592 C77.8432782,25.1112845 74.3831776,30.5287172 70,38" id="Fill-3" fill="#5696C0"></path>
            <path d="M91.9508986,19.1618845 C91.7883513,16.3645654 91.2262655,14.5760815 90.3506957,14.3648978 C90.3056196,14.3545117 90.2605435,14.3468953 90.2134184,14.3399712 L90.0337968,14.3240459 L87.9295608,14.1156318 C87.9309268,14.1163242 87.9322927,14.0567773 87.9336587,14.0574697 C87.8503361,14.0498532 87.7601838,14 87.6659337,14 L87.6126619,14 L87.6126619,14.1232482 C86.5164923,14.2589597 84.7414487,15.8141029 82,19.4610037 C82.5388647,19.3349859 83.0913889,19.224201 83.6316195,19.1293414 C85.3308533,17.2037611 86.9529112,15.7012408 88.2990486,14.9195148 C88.4417897,14.8364261 88.5872626,14.7346424 88.7224911,14.7346424 L88.723857,14.7346424 C89.2128648,15.4699773 89.4273179,16.9932698 89.4129755,18.8378386 C89.4075117,19.4381543 89.3808758,20.0550878 89.3303359,20.7218745 C88.8782086,26.5678558 86.6756247,34.547139 83.7579693,37.5279455 C86.5001009,37.3721542 88.1604053,38.4564615 89.0100222,39 C91.0350334,32.4519193 91.9461178,26.0222401 91.9973406,21.3720434 C92.0069023,20.5820085 91.9905109,19.8411344 91.9508986,19.1618845" id="Fill-4" fill="#5696C0"></path>
            <g id="Group-12" transform="translate(13.000000, 30.000000)">
                <mask id="mask-2" fill="white">
                    <use xlink:href="#path-1"></use>
                </mask>
                <g id="Clip-6"></g>
                <path d="M25.9054714,0.399315789 L25.9054714,22.6075263 C25.9054714,23.8594737 26.0723571,24.6794211 26.4061286,25.0652368 C26.7413143,25.4510526 27.4435071,25.6414737 28.5105857,25.6414737 L28.70505,25.6414737 L28.70505,26.5616053 L20.3063143,26.5616053 L20.3063143,25.6414737 L20.5778571,25.6414737 C21.6216,25.6414737 22.3032857,25.4496316 22.6243286,25.0652368 C22.9460786,24.6794211 23.1058929,23.8608947 23.1058929,22.6075263 L23.1058929,6.98021053 C23.1058929,5.55063158 23.0076,4.64186842 22.8152571,4.25534211 C22.6186714,3.86597368 22.0734643,3.48015789 21.1768071,3.09292105 L20.3239929,2.73481579 L20.3239929,2.49465789 L25.9054714,0.399315789" id="Fill-5" fill="#1B1A19" mask="url(#mask-2)"></path>
                <path d="M39.6912214,17.9159211 L38.8405286,18.1837895 C36.5317071,18.9078158 35.0163,19.5586579 34.2943071,20.1377368 C33.5730214,20.7161053 33.2130857,21.5516842 33.2130857,22.6395 C33.2130857,23.3528684 33.4577571,23.9717368 33.9513429,24.4968158 C34.4449286,25.0197632 35.0226643,25.2819474 35.6916214,25.2819474 C36.8046643,25.2819474 37.8349714,24.7632632 38.7811286,23.7180789 C39.3878571,23.0324211 39.6919286,22.0888421 39.6919286,20.8830789 L39.6912214,17.9159211 Z M39.9309429,23.6150526 C39.05055,24.7433684 38.1192429,25.5903158 37.1349,26.1537632 C36.1512643,26.7186316 35.1096429,26.9985789 34.0107429,26.9985789 C32.9111357,26.9985789 31.9968,26.6298158 31.2670286,25.8908684 C30.5386714,25.1526316 30.1730786,24.2218421 30.1730786,23.1034737 C30.1730786,21.8643158 30.7522286,20.8091842 31.9091143,19.9430526 C33.066,19.0747895 34.9759929,18.2640789 37.6405071,17.5123421 L39.6912214,16.9155 L39.6912214,14.5785789 C39.6912214,13.554 39.6311143,12.8406316 39.5123143,12.4384737 C39.3942214,12.0370263 39.1361143,11.6959737 38.7394071,11.4167368 C38.1340929,10.9712368 37.3915929,10.7467105 36.5097857,10.7467105 C35.5961571,10.7467105 34.9137643,10.9406842 34.45695,11.3279211 C34.0008429,11.7137368 33.7731429,12.2970789 33.7731429,13.0807895 L33.7731429,13.8218684 L30.5344286,14.8613684 L30.5344286,14.4130263 C30.5344286,13.2157895 31.2267214,12.0775263 32.6141357,11.0003684 C33.9803357,9.95305263 35.6824286,9.42939474 37.7175857,9.42939474 C39.4027071,9.42939474 40.6204071,9.77257895 41.3699786,10.4610789 C42.1181357,11.1559737 42.4922143,12.2771842 42.4922143,13.8303947 L42.4922143,20.898 C42.4922143,22.7006053 42.6520286,23.8999737 42.9702429,24.4982368 C43.2884571,25.0957895 43.9199357,25.3956316 44.8646786,25.3956316 C45.1645071,25.3956316 45.4926214,25.3721842 45.85185,25.3238684 L45.85185,26.2006579 C44.8752857,26.7321316 43.9022571,26.9971579 42.9363,26.9971579 C42.09975,26.9971579 41.4300857,26.7172105 40.9273071,26.1523421 C40.4209929,25.5917368 40.09005,24.7433684 39.9309429,23.6150526 Z" id="Fill-7" fill="#1B1A19" mask="url(#mask-2)"></path>
                <path d="M53.3638286,27 L46.9988357,13.7735526 C46.3609929,12.5102368 45.8766,11.6959737 45.5484857,11.3336053 C45.21825,10.9705263 44.8052786,10.7886316 44.30745,10.7886316 L44.0825786,10.7886316 L44.0825786,9.86992105 L50.9970214,9.86992105 L50.9970214,10.7886316 L50.7276,10.7886316 C49.7552786,10.7886316 49.2687643,11.0323421 49.2687643,11.5183421 C49.2687643,11.8473158 49.5417214,12.5883947 50.0855143,13.743 L54.5850643,23.1880263 L58.5273857,13.7579211 C58.9552071,12.7646053 59.1708857,12.0832105 59.1708857,11.7137368 C59.1708857,11.0962895 58.6334571,10.7886316 57.5614286,10.7886316 L57.3096857,10.7886316 L57.3096857,9.86992105 L62.8819714,9.86992105 L62.8819714,10.7886316 L62.6563929,10.7886316 C62.1882643,10.7886316 61.7767071,10.9982368 61.4217214,11.4153158 C61.06815,11.8331053 60.64245,12.6132632 60.1425,13.7593421 L54.3637286,27 L53.3638286,27" id="Fill-8" fill="#1B1A19" mask="url(#mask-2)"></path>
                <path d="M70.4858786,25.9605 C72.0182571,25.9605 73.2522214,25.2528158 74.1877714,23.8303421 C75.1226143,22.4092895 75.5900357,20.5356316 75.5900357,18.2072368 C75.5900357,15.8909211 75.1226143,14.0229474 74.1877714,12.6018947 C73.2522214,11.1808421 72.0182571,10.4703158 70.4858786,10.4703158 C68.9612786,10.4703158 67.7322643,11.1822632 66.7967143,12.6018947 C65.8611643,14.0229474 65.39445,15.8923421 65.39445,18.2072368 C65.39445,20.5356316 65.8611643,22.4107105 66.7967143,23.8303421 C67.7322643,25.2528158 68.9612786,25.9605 70.4858786,25.9605 Z M70.4858786,27 C68.0271429,27 66.0040071,26.1743684 64.4164714,24.5259474 C62.8296429,22.8768158 62.0355214,20.7715263 62.0355214,18.2072368 C62.0355214,15.6536053 62.8296429,13.554 64.4164714,11.9055789 C66.0040071,10.2557368 68.0271429,9.43081579 70.4858786,9.43081579 C72.9531,9.43081579 74.9811857,10.2557368 76.5701357,11.9055789 C78.1569643,13.554 78.9510857,15.6536053 78.9510857,18.2072368 C78.9510857,20.7701053 78.15555,22.8753947 76.5701357,24.5259474 C74.9811857,26.1757895 72.9531,27 70.4858786,27 Z" id="Fill-9" fill="#1B1A19" mask="url(#mask-2)"></path>
                <path d="M85.0834286,13.7827895 L85.0834286,22.6075263 C85.0834286,23.8594737 85.2496071,24.678 85.5847929,25.0638158 C85.9185643,25.4510526 86.6186357,25.6414737 87.6885429,25.6414737 L87.8830071,25.6414737 L87.8830071,26.5601842 L79.4828571,26.5601842 L79.4828571,25.6428947 L79.7558143,25.6428947 C80.78895,25.6428947 81.4685143,25.4496316 81.7945071,25.0652368 C82.1212071,24.6794211 82.2824357,23.8608947 82.2824357,22.6075263 L82.2824357,15.8923421 C82.2824357,14.5188947 82.1827286,13.6371316 81.9847286,13.2498947 C81.7839,12.8619474 81.2415214,12.4782632 80.35335,12.0995526 L79.5005357,11.7279474 L79.5005357,11.4877895 L85.0834286,9.43081579 L85.0834286,12.8655 C86.2770857,11.7087632 87.4078071,10.8383684 88.4770071,10.2607105 C89.5447929,9.68234211 90.5475214,9.39102632 91.4844857,9.39102632 C92.8386643,9.39102632 93.95595,9.85571053 94.8434143,10.7829474 C95.7471429,11.7293684 96.2004214,13.4545263 96.2004214,15.9548684 L96.2004214,22.6089474 C96.2004214,23.8608947 96.3658929,24.678 96.6968357,25.0652368 C97.0277786,25.4510526 97.7250214,25.6428947 98.7885643,25.6428947 L99,25.6428947 L99,26.5616053 L90.6026786,26.5616053 L90.6026786,25.6428947 L90.8416929,25.6428947 C91.8960429,25.6428947 92.5862143,25.4496316 92.9122071,25.0588421 C93.2367857,24.6673421 93.4001357,23.8509474 93.4001357,22.6089474 L93.4001357,15.8951842 C93.4001357,14.4215526 93.1597071,13.3529211 92.67885,12.6935526 C92.1972857,12.0370263 91.4123571,11.7087632 90.3212357,11.7087632 C89.5271143,11.7087632 88.6941,11.8821316 87.8193643,12.2246053 C86.9481643,12.5663684 86.03595,13.0850526 85.0834286,13.7827895" id="Fill-10" fill="#1B1A19" mask="url(#mask-2)"></path>
                <path d="M6.60259286,4.59284211 L6.60259286,13.7884737 L11.5547143,13.7884737 C12.8770714,13.7884737 13.761,13.5930789 14.2057929,13.203 C14.7990857,12.6892895 15.1300286,11.7847895 15.1993286,10.4916316 L15.8180786,10.4916316 L15.8180786,18.4573421 L15.1993286,18.4573421 C15.0395143,17.3354211 14.8797,16.6156579 14.7191786,16.2994737 C14.5141071,15.9008684 14.1768,15.5910789 13.7107929,15.3637105 C13.2426643,15.1391842 12.5235,15.0247895 11.5547143,15.0247895 L6.60259286,15.0247895 L6.60259286,22.7091316 C6.60259286,23.7415263 6.64714286,24.3689211 6.73695,24.5920263 C6.82675714,24.8158421 6.98727857,24.9934737 7.21356429,25.1249211 C7.44055714,25.2585 7.8705,25.3224474 8.50622143,25.3224474 L12.41955,25.3224474 C13.7214,25.3224474 14.6703857,25.2279474 15.2587286,25.0403684 C15.8470714,24.8542105 16.4149071,24.4854474 16.9587,23.9347895 C17.6623071,23.2086316 18.3821786,22.1151316 19.1190214,20.6535789 L19.8756643,20.6535789 L17.87445,26.5573421 L0,26.5573421 L0,25.6386316 L0.81675,25.6386316 C1.36054286,25.6386316 1.87746429,25.5050526 2.3661,25.2400263 C2.72957143,25.056 2.97495,24.7767632 3.10647857,24.4094211 C3.23659286,24.0385263 3.30094286,23.2825263 3.30094286,22.1357368 L3.30094286,7.75326316 C3.30094286,6.24339474 3.15244286,5.31189474 2.85897857,4.95947368 C2.45025,4.48910526 1.76856429,4.25534211 0.81675,4.25534211 L0,4.25534211 L0,3.35297368 L17.8822286,3.35297368 L18.0880071,8.42897368 L17.32995,8.42897368 C17.0951786,7.20402632 16.8335357,6.36134211 16.5443143,5.90234211 C16.2572143,5.44263158 15.8336357,5.09163158 15.2700429,4.84792105 C14.8181786,4.67668421 14.0247643,4.58928947 12.8876786,4.58928947 L6.60259286,4.58928947 L6.60259286,4.59284211" id="Fill-11" fill="#1B1A19" mask="url(#mask-2)"></path>
            </g>
        </g>
    </g>
</svg>