<?xml version="1.0" encoding="UTF-8"?>
<svg width="126px" height="79px" viewBox="0 0 126 79" version="1.1" xmlns="http://www.w3.org/2000/svg" xmlns:xlink="http://www.w3.org/1999/xlink">
    <!-- Generator: Sketch 52.2 (67145) - http://www.bohemiancoding.com/sketch -->
    <title>Elo@2x</title>
    <desc>Created with Sketch.</desc>
    <g id="Page-1" stroke="none" stroke-width="1" fill="none" fill-rule="evenodd">
        <g id="Elo">
            <rect id="Rectangle" fill="#000000" x="0" y="0" width="125.43" height="78.39" rx="4.18"></rect>
            <g id="elo-servicos-s-a-seeklogo.com" transform="translate(8.000000, 18.000000)">
                <g id="Group">
                    <path d="M16.8375494,9.39053198 C18.0529644,8.97477644 19.3494071,8.75304014 20.6944664,8.75304014 C26.5824769,8.75304014 31.4981555,13.0436374 32.6217391,18.7478035 L40.9675889,17.0016302 C39.055336,7.31175424 30.7040843,0.0166302219 20.6944664,0.0166302219 C18.3986825,0.0166302219 16.2001318,0.399125326 14.1366271,1.10868146 L16.8375494,9.39053198 Z" id="Path" fill="#FFCB05"></path>
                    <path d="M6.98998682,37.140829 L12.6349144,30.5940649 C10.1176548,28.3046377 8.52951252,24.9619631 8.52951252,21.2367934 C8.52951252,17.5171671 10.1176548,14.1744925 12.6349144,11.8906087 L6.98998682,5.33830124 C2.71172596,9.22977317 0.0108036891,14.9117657 0.0108036891,21.2367934 C0.0108036891,27.5673646 2.71172596,33.249357 6.98998682,37.140829" id="Path" fill="#00A4E0"></path>
                    <path d="M32.6217391,23.7424135 C31.4927536,29.4410362 26.5824769,33.7260901 20.6998682,33.7260901 C19.3494071,33.7260901 18.0475626,33.5043538 16.8375494,33.0830548 L14.1366271,41.3759922 C16.2001318,42.0800049 18.4040843,42.4625 20.6998682,42.4625 C30.6986825,42.4625 39.0445323,35.1784628 40.9675889,25.4996736 L32.6217391,23.7424135 Z" id="Path" fill="#EF4123"></path>
                </g>
                <path d="M47.9461231,31.0039638 C47.6672456,30.5657032 47.2954089,29.8655551 47.065745,29.3471249 C45.7260392,26.3113685 45.6658891,23.1687193 46.7923357,20.1543414 C48.0336141,16.8460083 50.4068073,14.3179928 53.4744603,13.0245896 C57.3295322,11.4051632 61.58925,11.720497 65.2857445,13.8636983 C67.6315967,15.1784801 69.2939256,17.2094439 70.5570768,20.0848611 C70.7156543,20.4536413 70.8578271,20.8438002 71,21.1805126 L47.9461231,31.0039638 Z M55.6453306,17.9042473 C52.9057688,19.0533452 51.4949766,21.5653268 51.7902587,24.5048796 L63.3828154,19.6252219 C61.3869271,17.3377153 58.7950064,16.5787762 55.6453306,17.9042473 Z M64.8264168,28.5187055 C64.8209486,28.5187055 64.8209486,28.5240501 64.8209486,28.5240501 L64.5803483,28.3637109 C63.8858886,29.4593624 62.8086557,30.3519175 61.4470771,30.9291388 C58.8551564,32.030135 56.4546223,31.746869 54.7266752,30.2664033 L54.5680977,30.5015675 C54.5680977,30.5015675 54.5680977,30.4962228 54.5626295,30.4962228 L51.6207449,34.7986593 C52.3534819,35.295711 53.1354327,35.712593 53.9556608,36.0493054 C57.2037639,37.3694319 60.5284217,37.3052962 63.8038658,35.9156894 C66.1715908,34.9108968 68.0307744,33.3823293 69.2993938,31.4422244 L64.8264168,28.5187055 Z" id="Shape" fill="#FFFFFF" fill-rule="nonzero"></path>
                <path d="M79.8792185,6 L79.8792185,30.4265586 L84,31.9661853 L81.6613381,37 L77.1142688,35.252906 C76.0959147,34.8434308 75.3972765,34.2210285 74.8762581,33.5167312 C74.3730018,32.8015146 74,31.8133145 74,30.4920747 L74,6 L79.8792185,6 Z" id="Path" fill="#FFFFFF"></path>
                <g id="Group" transform="translate(84.000000, 12.000000)" fill="#FFFFFF">
                    <path d="M5.79741379,12.5 C5.79741379,10.4690832 6.70797414,8.64605544 8.14116379,7.40938166 L4.29418103,3.1663113 C1.68642241,5.44776119 0.0431034483,8.7793177 0.0431034483,12.489339 C0.0377155172,16.2046908 1.68103448,19.5415778 4.28340517,21.8230277 L8.125,17.5799574 C6.69719828,16.3379531 5.79741379,14.5255864 5.79741379,12.5 Z" id="Path"></path>
                    <path d="M12.6293103,19.2643923 C11.875,19.2643923 11.1422414,19.1364606 10.4633621,18.91258 L8.62607759,24.3123667 C9.88146552,24.728145 11.2230603,24.9573561 12.6239224,24.9573561 C18.7122845,24.9626866 23.7931034,20.6876333 24.9730603,15.010661 L19.3265086,13.869936 C18.6853448,16.95629 15.9321121,19.2697228 12.6293103,19.2643923 Z" id="Path"></path>
                    <path d="M12.6454741,0.0426439232 C11.25,0.0426439232 9.90840517,0.26652452 8.65301724,0.676972281 L10.4741379,6.08208955 C11.1584052,5.85820896 11.8857759,5.73560768 12.6400862,5.73560768 C15.9482759,5.74093817 18.7068966,8.06503198 19.3318966,11.1567164 L24.9784483,10.0266525 C23.8200431,4.33901919 18.7392241,0.0479744136 12.6454741,0.0426439232 Z" id="Path"></path>
                </g>
            </g>
        </g>
    </g>
</svg>