<svg xmlns="http://www.w3.org/2000/svg" viewBox="0 0 125.43 78.39"><defs><style>.cls-1{fill:#ffb92c;}.cls-2,.cls-3{fill:#231f20;}.cls-3{fill-rule:evenodd;}.cls-4{fill:#fff;}</style></defs><title>Asset 3</title><g id="Layer_2" data-name="Layer 2"><g id="Layer_1-2" data-name="Layer 1"><rect class="cls-1" width="125.43" height="78.39" rx="4.18" ry="4.18"/><path class="cls-2" d="M54.66,33.58H60.1v.59H58.36L62,44.63h.06l2.12-6.21-1.41-4.25H61.13v-.59h6.75v.59H65.32l3.59,10.46h0l3.7-10.46H70.44v-.59h3.64v.59h-.6L68.69,47.51H67.28l-2.72-8h0l-2.83,8H60.32L55.7,34.17h-1Z"/><path class="cls-2" d="M74.67,38.24v-4.4a15.67,15.67,0,0,1,2.06-.7,8.06,8.06,0,0,1,2.1-.27,6.87,6.87,0,0,1,2.2.31,5.12,5.12,0,0,1,1.53.8,3.06,3.06,0,0,1,.9,1.12,3,3,0,0,1,.29,1.25V46.53h1.3v.59H81.37V44.73H81.3a4.47,4.47,0,0,1-1.58,2.05,4.29,4.29,0,0,1-2.56.78,4.41,4.41,0,0,1-3-1A3.5,3.5,0,0,1,73,43.77a3.79,3.79,0,0,1,.43-1.92,3.17,3.17,0,0,1,1.13-1.14,5.33,5.33,0,0,1,1.59-.62c.59-.14,1.2-.26,1.82-.37s1.22-.23,1.81-.37a5.65,5.65,0,0,0,1.57-.61V35.88A2.41,2.41,0,0,0,80.73,34,2.58,2.58,0,0,0,79,33.46a3.07,3.07,0,0,0-1.2.21,2.36,2.36,0,0,0-.88.75,6.58,6.58,0,0,0-.78,1.47c-.25.63-.55,1.41-.87,2.35Zm6.7,1.21a8.67,8.67,0,0,1-2.17.73,9.23,9.23,0,0,0-1.78.51,2.59,2.59,0,0,0-1.21,1,3.82,3.82,0,0,0-.45,2.12A3.31,3.31,0,0,0,76.31,46a2.11,2.11,0,0,0,1.65.63,3,3,0,0,0,2.48-1.43,6.4,6.4,0,0,0,.93-3.64Z"/><path class="cls-2" d="M83.52,33.58h5.81v.59h-2l4,9.49,3.28-9.49H92.18v-.59h4.35v.59H95.3l-5,14.33a12.09,12.09,0,0,1-.75,1.85,4.14,4.14,0,0,1-.77,1.1,2.18,2.18,0,0,1-.87.53,3.74,3.74,0,0,1-1,.14,2.74,2.74,0,0,1-2.07-.65V47.23h.59l.73,2.64a3.4,3.4,0,0,0,.61,1.36.93.93,0,0,0,.64.3,1.17,1.17,0,0,0,.78-.33,3.79,3.79,0,0,0,.69-.9A8.59,8.59,0,0,0,89.46,49c.19-.51.37-1.06.53-1.64L84.54,34.17h-1Z"/><g id="Shape_2" data-name="Shape 2"><path class="cls-3" d="M40.45,21.73a15,15,0,1,0,15,15A15,15,0,0,0,40.45,21.73Z"/></g><path id="e_Clipping_Path" data-name="e Clipping Path" class="cls-4" d="M43.23,42.56a4.15,4.15,0,0,1-2.42.42,4.38,4.38,0,0,1-3.42-1.37c-.75-.8-1.11-1.31-1.14-3.4H50.82c0-.39,0-1.32,0-1.51a11.55,11.55,0,0,0-2.88-7.93c-1.73-1.76-4.54-2.54-7.27-2.54A10.92,10.92,0,0,0,33.09,29a11.26,11.26,0,0,0-2.78,7.92,11.34,11.34,0,0,0,2.89,7.86c1.74,1.74,4.66,2.51,7.65,2.51a11.43,11.43,0,0,0,6.32-1.69,9,9,0,0,0,3.42-4.76l-5.9-.08A3.37,3.37,0,0,1,43.23,42.56ZM37.72,31.7a4,4,0,0,1,2.81-1,4.46,4.46,0,0,1,3.23,1.39,3.47,3.47,0,0,1,1,2.64H36.46A3.68,3.68,0,0,1,37.72,31.7Z"/><g id="Shape_1" data-name="Shape 1"><path class="cls-3" d="M61.85,49.77c-15.78.15-29.79,2.47-39,6.89,0,0,9.73-3.3,39-3.3,15.7,0,21.1.21,39,3.18C101,56.57,86.63,49.53,61.85,49.77Z"/></g><path class="cls-2" d="M98.24,34.05h-.77v-.47h2.09v.47h-.77v2.07h-.55Z"/><path class="cls-2" d="M99.85,33.58h.79l.59,1.75h0l.56-1.75h.79v2.54h-.52v-1.8h0l-.62,1.8H101l-.62-1.78h0v1.78h-.52Z"/></g></g></svg>