<?xml version="1.0" encoding="UTF-8"?>
<svg width="126px" height="79px" viewBox="0 0 126 79" version="1.1" xmlns="http://www.w3.org/2000/svg" xmlns:xlink="http://www.w3.org/1999/xlink">
    <!-- Generator: Sketch 50.2 (55047) - http://www.bohemiancoding.com/sketch -->
    <title>Global@2x</title>
    <desc>Created with Sketch.</desc>
    <defs></defs>
    <g id="Page-1" stroke="none" stroke-width="1" fill="none" fill-rule="evenodd">
        <g id="Global">
            <rect id="Rectangle-path-Copy-9" fill="#F1F2F2" fill-rule="nonzero" x="0" y="0" width="125.43" height="78.39" rx="4.18"></rect>
            <g id="Group-3" transform="translate(7.000000, 17.000000)">
                <path d="M0.00189030056,25.066352 C0.0529755278,23.4448157 2.05349826,21.4680621 5.02842439,19.8970041 C6.97723121,22.5324679 10.1577596,24.2044824 13.6965153,24.2044824 C14.2092596,24.2044824 14.7226346,24.1540041 15.2353789,24.1035259 C13.5426289,25.1679317 11.4399358,26.181236 9.1316403,26.7894679 C4.00230507,28.2084679 -0.100910836,27.448178 0.00189030056,25.066352" id="Fill-2" fill="#1B926B"></path>
                <path d="M8.46500962,11.3312795 C8.41329371,12.9534389 11.132163,13.6626273 14.5687483,12.9534389 C18.0047028,12.1931491 20.8263733,10.2668737 20.8774585,8.64533747 C20.9285437,7.02380123 18.2103051,6.31398964 14.7737198,7.07427949 C11.3371346,7.83456935 8.51609485,9.76022152 8.46500962,11.3312795 Z M2.82293007,13.4600911 C2.82293007,7.58093167 7.6955778,2.76617805 13.6965153,2.76617805 C19.6974528,2.76617805 24.5190153,7.58093167 24.5190153,13.4600911 C24.5190153,18.8830766 20.4668846,23.343236 15.2353789,24.1035259 C17.2359017,22.7350041 18.5180778,21.2144244 18.569163,19.8970041 C18.6719642,17.5656563 14.5687483,16.754265 9.43941303,18.1738882 C7.84946416,18.6294389 6.31060053,19.2376708 5.02842439,19.8970041 C3.64344712,18.1227867 2.82293007,15.8930186 2.82293007,13.4600911 Z" id="Fill-3" fill="#1B926B"></path>
                <path d="M21.7490608,1.80335196 C21.7490608,1.0430621 23.134038,0.232293987 24.7246176,0.0291345669 C26.3656517,-0.122923404 27.6478278,0.333250509 27.5967426,1.09354036 C27.5967426,1.85383022 26.2628505,2.66459833 24.6218164,2.81665631 C22.9801517,3.01981573 21.6979755,2.56364181 21.7490608,1.80335196" id="Fill-4" fill="#1B926B"></path>
                <path d="M1.48903803,39.3585549 C1.6946403,36.0643809 7.18283348,31.5537433 13.8504017,29.171294 C20.4668846,26.8405693 25.699021,27.600236 25.5451346,30.8439317 C25.3395323,34.1387288 19.8002539,38.6998447 13.183771,41.0311925 C6.56728803,43.3625404 1.33515166,42.653352 1.48903803,39.3585549" id="Fill-5" fill="#1B926B"></path>
                <path d="M30.4177823,23.8498882 C29.6994358,24.1035259 29.3405778,24.4076418 29.3405778,24.9647722 C29.3405778,25.8771201 30.2128108,26.4348737 31.8538448,26.4348737 C33.7004812,26.4348737 34.6748846,25.7761636 34.6748846,24.610178 C34.6748846,23.495294 34.0082539,23.191178 32.4693903,23.0895983 C31.4949869,22.9886418 30.9305267,23.0391201 30.9305267,22.6334244 C30.9305267,22.4813665 31.0333278,22.3293085 31.2893846,22.228352 C31.4949869,22.2788302 31.6999585,22.3293085 31.956646,22.3293085 C33.3416233,22.3293085 34.1621403,21.5690186 34.1621403,20.4541346 C34.1621403,19.9979607 34.0593392,19.6433665 33.9054528,19.3897288 C34.0593392,19.2887722 34.2132255,19.2376708 34.4181971,19.2376708 C34.5209983,19.2376708 34.5720835,19.2887722 34.6748846,19.2887722 L34.6748846,18.2243665 C34.6237994,18.2243665 34.5720835,18.2243665 34.469913,18.2243665 C34.0593392,18.2243665 33.7004812,18.4269027 33.3927085,18.7814969 C32.9310494,18.4773809 32.4693903,18.3259462 31.9049301,18.3259462 C30.5716687,18.3259462 29.6483505,19.1367143 29.6483505,20.353178 C29.6483505,21.0118882 29.9561233,21.5690186 30.5199528,21.8731346 C29.9044073,22.1772505 29.5972653,22.5829462 29.5972653,22.9886418 C29.5972653,23.3937143 29.8533221,23.5968737 30.4177823,23.8498882 Z M30.9816119,20.353178 C30.9816119,19.7449462 31.3921858,19.3897288 31.9049301,19.3897288 C32.5204755,19.3897288 32.9310494,19.7449462 32.9310494,20.353178 C32.9310494,20.9103085 32.5204755,21.2649027 31.956646,21.2649027 C31.3411005,21.2649027 30.9816119,20.9103085 30.9816119,20.353178 Z M31.2893846,24.1540041 L32.6232767,24.2044824 C33.136021,24.2555838 33.3927085,24.3565404 33.3927085,24.7117578 C33.3927085,25.1168302 32.8282483,25.4209462 31.8538448,25.4209462 C31.1354983,25.4209462 30.7255551,25.1679317 30.7255551,24.762236 C30.7255551,24.5085983 30.8794414,24.3565404 31.2893846,24.1540041 Z" id="Fill-6" fill="#005A87"></path>
                <polygon id="Fill-7" fill="#005A87" points="36.1109471 24.3060621 37.4959244 24.3060621 37.4959244 16.1460331 36.1109471 16.1460331"></polygon>
                <path d="M39.1369585,21.3664824 C39.1369585,23.2921346 40.1119926,24.4076418 41.6502255,24.4076418 C43.2408051,24.4076418 44.2152085,23.2921346 44.2152085,21.3664824 C44.2152085,19.4408302 43.2408051,18.3259462 41.6502255,18.3259462 C40.1119926,18.3259462 39.1369585,19.4408302 39.1369585,21.3664824 Z M40.5736517,21.3664824 C40.5736517,20.0995404 40.9325096,19.4913085 41.6502255,19.4913085 C42.4196573,19.4913085 42.779146,20.0995404 42.779146,21.3664824 C42.779146,22.5829462 42.4196573,23.191178 41.6502255,23.191178 C40.9325096,23.191178 40.5736517,22.5829462 40.5736517,21.3664824 Z" id="Fill-8" fill="#005A87"></path>
                <path d="M45.7540721,24.3060621 L46.8312767,24.3060621 L46.9845323,23.647352 C47.4979073,24.1540041 47.9595664,24.4076418 48.6261971,24.4076418 C49.9600892,24.4076418 50.9344926,23.191178 50.9344926,21.3664824 C50.9344926,19.4913085 49.9083733,18.3259462 48.6261971,18.3259462 C48.0617369,18.3259462 47.6000778,18.5284824 47.1901346,18.9846563 L47.1901346,16.1460331 L45.8051573,16.1460331 L45.8051573,22.9375404 C45.8051573,23.191178 45.8051573,23.647352 45.7540721,24.3060621 Z M47.1901346,22.7350041 L47.1901346,19.9474824 C47.5489926,19.6433665 47.8567653,19.4408302 48.2673392,19.4408302 C49.0361403,19.4408302 49.4984301,20.1500186 49.4984301,21.3664824 C49.4984301,22.5829462 49.0361403,23.2416563 48.2673392,23.2416563 C47.8567653,23.2416563 47.5489926,23.0895983 47.1901346,22.7350041 Z" id="Fill-9" fill="#005A87"></path>
                <path d="M55.6532539,24.3060621 L56.9865153,24.3060621 C56.9354301,23.9514679 56.8843448,23.6978302 56.8843448,23.495294 L56.8843448,20.0490621 C56.8843448,18.9846563 56.114913,18.3259462 54.7299358,18.3259462 C53.7038164,18.3259462 52.9343846,18.6805404 52.4216403,19.4408302 L53.3960437,20.0490621 C53.7038164,19.5928882 54.1654755,19.3897288 54.6788505,19.3897288 C55.2426801,19.3897288 55.5504528,19.6433665 55.5504528,20.0490621 L55.5504528,20.5046128 C53.2421573,20.809352 52.1655835,21.4680621 52.1655835,22.7854824 C52.1655835,23.7483085 52.7804983,24.3565404 53.7555323,24.3565404 C54.3704471,24.3565404 54.9859926,24.1540041 55.4993676,23.7483085 L55.6532539,24.3060621 Z M55.4993676,21.4175838 L55.4993676,22.6845259 C55.0377085,23.0895983 54.6271346,23.2921346 54.1654755,23.2921346 C53.7555323,23.2921346 53.5499301,23.0895983 53.5499301,22.6845259 C53.5499301,21.9747143 54.1654755,21.6201201 55.4993676,21.4175838 Z" id="Fill-10" fill="#005A87"></path>
                <polygon id="Fill-11" fill="#005A87" points="58.8842369 24.3060621 60.3202994 24.3060621 60.3202994 16.1460331 58.8842369 16.1460331"></polygon>
                <path d="M62.5264244,26.4348737 L63.2441403,26.4348737 L63.2441403,23.5457722 L63.2958562,23.5457722 C63.8596858,24.1035259 64.424146,24.4076418 65.0907767,24.4076418 C66.3729528,24.4076418 67.2451858,23.2921346 67.2451858,21.3664824 C67.2451858,19.4408302 66.3729528,18.3259462 65.0907767,18.3259462 C64.424146,18.3259462 63.8596858,18.6294389 63.2958562,19.1871925 L63.2441403,19.1871925 L63.0391687,18.4269027 L62.5264244,18.4269027 L62.5264244,26.4348737 Z M63.2441403,19.9979607 C63.8086005,19.2887722 64.3724301,18.9335549 65.0396914,18.9335549 C66.0140948,18.9335549 66.5785551,19.7449462 66.5785551,21.3664824 C66.5785551,22.9886418 66.0140948,23.8498882 65.0396914,23.8498882 C64.3724301,23.8498882 63.8086005,23.4448157 63.2441403,22.7350041 L63.2441403,19.9979607 Z" id="Fill-12" fill="#005A87"></path>
                <path d="M72.2717198,22.7854824 C71.6044585,23.495294 70.988913,23.8498882 70.3739983,23.8498882 C69.7584528,23.8498882 69.3478789,23.4448157 69.3478789,22.7854824 C69.3478789,21.8226563 70.2711971,21.4175838 72.2717198,21.0118882 L72.2717198,22.7854824 Z M72.3738903,24.3060621 L73.0922369,24.3060621 C73.0411517,23.9003665 72.9894358,23.647352 72.9894358,23.495294 L72.9894358,19.8459027 C72.9894358,18.9846563 72.2200039,18.3259462 71.0917142,18.3259462 C70.0662255,18.3259462 69.4506801,18.7310186 68.989021,19.5417867 L69.5017653,19.8459027 C69.8612539,19.2376708 70.3222823,18.9335549 70.988913,18.9335549 C71.8100608,18.9335549 72.2717198,19.2887722 72.2717198,19.8459027 L72.2717198,20.4541346 C69.809538,20.8598302 68.6812483,21.4680621 68.6812483,22.8365838 C68.6812483,23.7483085 69.2967937,24.4076418 70.2711971,24.4076418 C70.988913,24.4076418 71.6561744,24.1035259 72.2717198,23.495294 C72.2717198,23.7483085 72.3228051,24.0019462 72.3738903,24.3060621 Z" id="Fill-13" fill="#005A87"></path>
                <path d="M76.6316233,24.2555838 C76.3749358,25.3704679 76.0160778,25.8266418 75.1438448,25.8266418 C74.9899585,25.8266418 74.8360721,25.8266418 74.6311005,25.7761636 L74.6311005,26.333294 C74.8871573,26.3837722 75.0927596,26.3837722 75.246646,26.3837722 C76.2721346,26.3837722 76.7337937,25.9275983 77.1443676,24.762236 L79.4009471,18.4269027 L78.7343164,18.4269027 L76.9904812,23.3937143 L75.246646,18.4269027 L74.5282994,18.4269027 L76.6316233,24.2555838" id="Fill-14" fill="#005A87"></path>
                <path d="M81.0426119,24.3060621 L81.7092426,24.3060621 L81.7092426,20.0490621 C82.324788,19.2887722 82.8886176,18.9335549 83.4530778,18.9335549 C84.2735948,18.9335549 84.4274812,19.4408302 84.4274812,20.4541346 L84.4274812,24.3060621 L85.1458278,24.3060621 L85.1458278,20.0490621 C85.7096573,19.2887722 86.2741176,18.9335549 86.8385778,18.9335549 C87.6590948,18.9335549 87.8640664,19.4408302 87.8640664,20.4541346 L87.8640664,24.3060621 L88.5313278,24.3060621 L88.5313278,20.2011201 C88.5313278,18.9846563 88.0179528,18.3259462 87.0435494,18.3259462 C86.3769187,18.3259462 85.7613733,18.6805404 85.1458278,19.3392505 L85.0430267,19.3392505 C84.7869698,18.6805404 84.3253108,18.3259462 83.6580494,18.3259462 C82.9914187,18.3259462 82.3758733,18.6805404 81.7603278,19.3392505 L81.7092426,19.3392505 L81.7092426,18.4269027 L81.0426119,18.4269027 L81.0426119,24.3060621" id="Fill-15" fill="#005A87"></path>
                <path d="M94.5322653,22.5829462 C94.0706062,23.4448157 93.6089471,23.8498882 92.8395153,23.8498882 C91.7112255,23.8498882 91.0956801,22.9886418 91.0956801,21.3664824 L94.9939244,21.3664824 C94.9939244,21.2649027 94.9939244,21.2144244 94.9939244,21.1639462 C94.9939244,19.2887722 94.2244926,18.3259462 92.7884301,18.3259462 C91.3517369,18.3259462 90.3773335,19.4913085 90.3773335,21.4175838 C90.3773335,23.2416563 91.3517369,24.4076418 92.7884301,24.4076418 C93.8656346,24.4076418 94.5322653,23.9514679 95.0450096,22.8870621 L94.5322653,22.5829462 Z M94.326663,20.8598302 L91.0956801,20.8598302 C91.1984812,19.5928882 91.8651119,18.8830766 92.7884301,18.8830766 C93.7117483,18.8830766 94.326663,19.5928882 94.326663,20.8598302 Z" id="Fill-16" fill="#005A87"></path>
                <path d="M96.8399301,24.3060621 L97.5582767,24.3060621 L97.5582767,20.0490621 C98.1738221,19.2887722 98.8404528,18.9335549 99.404913,18.9335549 C100.328231,18.9335549 100.533203,19.4408302 100.533203,20.4541346 L100.533203,24.3060621 L101.199833,24.3060621 L101.199833,20.2011201 C101.199833,18.9846563 100.687089,18.3259462 99.6098846,18.3259462 C98.9432539,18.3259462 98.2766233,18.6805404 97.5582767,19.3392505 L97.5582767,18.4269027 L96.8399301,18.4269027 L96.8399301,24.3060621" id="Fill-17" fill="#005A87"></path>
                <path d="M104.380362,23.191178 L104.380362,18.9846563 L105.610822,18.9846563 L105.610822,18.4269027 L104.380362,18.4269027 L104.380362,16.7037867 L103.713101,16.7037867 L103.713101,18.4269027 L102.841498,18.4269027 L102.841498,18.9846563 L103.713101,18.9846563 L103.713101,23.1400766 C103.713101,24.0019462 104.072589,24.4076418 104.893106,24.4076418 C105.149794,24.4076418 105.405851,24.3565404 105.662538,24.3060621 L105.662538,23.7483085 C105.405851,23.7994099 105.200879,23.8498882 105.046993,23.8498882 C104.585333,23.8498882 104.380362,23.647352 104.380362,23.191178" id="Fill-18" fill="#005A87"></path>
                <path d="M107.098601,22.8365838 L106.585856,23.2416563 C107.201402,24.0019462 107.868032,24.4076418 108.842436,24.4076418 C110.022441,24.4076418 110.842958,23.6978302 110.842958,22.6845259 C110.842958,21.772178 110.227413,21.4175838 109.047407,21.0118882 C108.073004,20.6061925 107.508544,20.4541346 107.508544,19.8459027 C107.508544,19.2887722 107.919118,18.8830766 108.534663,18.8830766 C109.201294,18.8830766 109.714669,19.1871925 110.175697,19.7449462 L110.637356,19.3897288 C110.124612,18.6805404 109.457981,18.3259462 108.688549,18.3259462 C107.508544,18.3259462 106.790828,18.9846563 106.790828,19.8970041 C106.790828,20.7582505 107.406373,21.1128447 108.585748,21.5690186 C109.560782,21.924236 110.124612,22.076294 110.124612,22.7854824 C110.124612,23.3937143 109.611868,23.8498882 108.893521,23.8498882 C108.22689,23.8498882 107.611345,23.495294 107.098601,22.8365838" id="Fill-19" fill="#005A87"></path>
            </g>
        </g>
    </g>
</svg>