<?xml version="1.0" encoding="UTF-8"?>
<svg width="126px" height="79px" viewBox="0 0 126 79" version="1.1" xmlns="http://www.w3.org/2000/svg" xmlns:xlink="http://www.w3.org/1999/xlink">
    <!-- Generator: Sketch 50.2 (55047) - http://www.bohemiancoding.com/sketch -->
    <title>HSBC-logo@2x</title>
    <desc>Created with Sketch.</desc>
    <defs></defs>
    <g id="Page-1" stroke="none" stroke-width="1" fill="none" fill-rule="evenodd">
        <g id="HSBC-logo" fill-rule="nonzero">
            <rect id="Rectangle-path-Copy-12" fill="#420003" x="0.57" y="0" width="125.43" height="78.39" rx="4.18"></rect>
            <rect id="Rectangle-path" fill="#FFFFFF" x="27" y="26" width="27" height="27"></rect>
            <polygon id="Shape" fill="#DB0011" points="68 39.5158637 54 26 54 53"></polygon>
            <polygon id="Shape" fill="#DB0011" points="40.5 40 54 26 27 26"></polygon>
            <polygon id="Shape" fill="#DB0011" points="14 39.5158637 28 53 28 26"></polygon>
            <polygon id="Shape" fill="#DB0011" points="40.5 39 27 53 54 53"></polygon>
            <polygon id="Shape" fill="#FFFFFF" points="79.5 40.8764045 74.5 40.8764045 74.5 46 72 46 72 34 74.5 34 74.5 38.9213483 79.5 38.9213483 79.5 34 82 34 82 46 79.5 46"></polygon>
            <path d="M87.3758621,46 C84.9862069,46 83.0310345,44.9918699 83,42.2276423 L85.3896552,42.2276423 C85.4206897,43.4634146 86.1034483,44.2113821 87.4068966,44.2113821 C88.3689655,44.2113821 89.4862069,43.6910569 89.4862069,42.5528455 C89.4862069,41.6422764 88.7413793,41.3821138 87.5,40.9918699 L86.6931034,40.7642276 C84.9551724,40.2439024 83.2172414,39.5284553 83.2172414,37.4471545 C83.2172414,34.8780488 85.5137931,34 87.5931034,34 C89.7344828,34 91.5965517,34.7804878 91.6275862,37.3495935 L89.237931,37.3495935 C89.1448276,36.3089431 88.5551724,35.6910569 87.437931,35.6910569 C86.537931,35.6910569 85.6689655,36.1788618 85.6689655,37.2195122 C85.6689655,38.0650407 86.4137931,38.3252033 87.9655172,38.8455285 L88.8965517,39.1382114 C90.7896552,39.7560976 92,40.4390244 92,42.3902439 C91.9689655,44.9918699 89.5482759,46 87.3758621,46 Z" id="Shape" fill="#FFFFFF"></path>
            <path d="M94,34.0121796 L97.9434629,34.0121796 C98.6749117,33.9784111 99.4381625,34.0121796 100.169611,34.1472537 C101.537102,34.4849387 102.586572,35.430457 102.586572,37.0513453 C102.586572,38.6046967 101.664311,39.3813724 100.328622,39.752826 C101.855124,40.0567426 103,40.8671868 103,42.6569177 C103,45.3921669 100.45583,46 98.4840989,46 L94.0318021,46 L94,34.0121796 Z M97.9434629,39.0099188 C99.024735,39.0099188 100.137809,38.7735393 100.137809,37.3890304 C100.137809,36.1395956 99.1201413,35.8019105 98.1024735,35.8019105 L96.385159,35.8019105 L96.385159,39.0099188 L97.9434629,39.0099188 Z M98.1660777,44.2102691 C99.3109541,44.2102691 100.424028,43.940121 100.424028,42.4543066 C100.424028,40.9684923 99.4699647,40.6983442 98.2932862,40.6983442 L96.3533569,40.6983442 L96.3533569,44.2102691 L98.1660777,44.2102691 Z" id="Shape" fill="#FFFFFF"></path>
            <path d="M109.303514,46 C105.629393,46 104,43.6324324 104,40.0972973 C104,36.5621622 105.821086,34 109.43131,34 C111.699681,34 113.904153,35.0378378 113.968051,37.6324324 L111.412141,37.6324324 C111.284345,36.4648649 110.517572,35.8810811 109.43131,35.8810811 C107.194888,35.8810811 106.523962,38.3135135 106.523962,40.1621622 C106.523962,42.0108108 107.194888,44.1513514 109.335463,44.1513514 C110.453674,44.1513514 111.284345,43.5351351 111.444089,42.3675676 L114,42.3675676 C113.744409,45.027027 111.667732,46 109.303514,46 Z" id="Shape" fill="#FFFFFF"></path>
        </g>
    </g>
</svg>