<?xml version="1.0" encoding="UTF-8"?>
<svg width="126px" height="79px" viewBox="0 0 126 79" version="1.1" xmlns="http://www.w3.org/2000/svg" xmlns:xlink="http://www.w3.org/1999/xlink">
    <!-- Generator: Sketch 50.2 (55047) - http://www.bohemiancoding.com/sketch -->
    <title>Itau@2x</title>
    <desc>Created with Sketch.</desc>
    <defs>
        <polygon id="path-1" points="0 0 42.977014 0 42.977014 42.9700721 0 42.9700721"></polygon>
    </defs>
    <g id="Page-1" stroke="none" stroke-width="1" fill="none" fill-rule="evenodd">
        <g id="Itau">
            <rect id="Rectangle-path-Copy-8" fill="#FF9900" fill-rule="nonzero" x="0" y="0" width="125.43" height="78.39" rx="4.18"></rect>
            <g id="Group" transform="translate(62.500000, 40.500000) scale(-1, 1) rotate(-180.000000) translate(-62.500000, -40.500000) translate(41.000000, 19.000000)">
                <g id="Clipped">
                    <g>
                        <mask id="mask-2" fill="white">
                            <use xlink:href="#path-1"></use>
                        </mask>
                        <g id="Shape"></g>
                        <g id="Group" mask="url(#mask-2)">
                            <polygon id="Shape" fill="#1A5493" points="7.20943897 42.9763912 35.8578321 42.9763912 36.2294787 42.9688082 36.5910125 42.9384764 36.9512822 42.8929787 37.3039673 42.8310512 37.6503318 42.7501664 37.9916399 42.6541156 38.3240993 42.5416352 38.6489741 42.412725 38.9662643 42.2699127 39.2747057 42.1119344 39.5755625 41.9375265 39.8663064 41.7517441 40.1456735 41.5533235 40.4161917 41.3384731 40.6778613 41.1122484 40.9243616 40.875913 41.1632773 40.6269393 41.3870238 40.3691189 41.6019215 40.0973964 41.8003858 39.8155632 41.984945 39.5248833 42.1568632 39.2240928 42.3161403 38.9157194 42.4615123 38.5984991 42.5866586 38.273696 42.700428 37.9413098 42.7964999 37.6000769 42.8774026 37.2537887 42.9393437 36.9011813 42.9848514 36.5447825 43.0139258 36.1795369 43.0227746 35.8104998 43.0227746 7.16336378 43.0139258 6.79546413 42.9848514 6.43287255 42.9393437 6.07293501 42.8774026 5.72121233 42.7964999 5.37467134 42.700428 5.03369118 42.5866586 4.70332715 42.4615123 4.37839758 42.3161403 4.05877607 42.1568632 3.75255112 41.984945 3.45176061 41.8003858 3.16171263 41.6019215 2.87975312 41.3870238 2.61119017 41.1632773 2.35071571 40.9243616 2.10098376 40.6778613 1.86464836 40.4161917 1.63905548 40.1456735 1.42685916 39.8663064 1.22810994 39.5755625 1.04280782 39.2747057 0.870927531 38.9662643 0.71248171 38.6489741 0.567445078 38.3240993 0.441226811 37.9916399 0.328430371 37.6503318 0.231747709 37.3039673 0.151178824 36.9512822 0.0894080817 36.5910125 0.043753644 36.2294787 0.0142091918 35.8578321 0.00615268241 7.20943897 0.00615268241 6.83867722 0.0142091918 6.47613214 0.043753644 6.11611527 0.0894080817 5.76418866 0.151178824 5.41504309 0.231747709 5.07651599 0.328430371 4.74342453 0.441226811 4.41842335 0.567445078 4.0987314 0.71248171 3.78991075 0.870927531 3.49170857 1.04280782 3.19894204 1.22810994 2.91957502 1.42685916 2.64817185 1.63905548 2.38763998 1.86464836 2.14050761 2.10098376 1.90146551 2.35071571 1.67847753 2.61119017 1.46623444 2.87975312 1.26486265 3.16171263 1.07948177 3.45176061 0.907563598 3.75255112 0.749070216 4.05877607 0.604014261 4.37839758 0.477768176 4.70332715 0.364946878 5.03369118 0.268242908 5.37467134 0.187656266 5.72121233 0.125870646 6.07293501 0.0802048822 6.43287255 0.0506564469 6.79546413 0.0425977827 7.16336378 0.0425977827 35.8104998 0.0506564469 36.1795369 0.0802048822 36.5447825 0.125870646 36.9011813 0.187656266 37.2537887 0.268242908 37.6000769 0.364946878 37.9413098 0.477768176 38.273696 0.604014261 38.5984991 0.749070216 38.9157194 0.907563598 39.2240928 1.07948177 39.5248833 1.26486265 39.8155632 1.46623444 40.0973964 1.67847753 40.3691189 1.90146551 40.6269393 2.14050761 40.875913 2.38763998 41.1122484 2.64817185 41.3384731 2.91957502 41.5533235 3.19894204 41.7517441 3.49170857 41.9375265 3.78991075 42.1119344 4.0987314 42.2699127 4.41842335 42.412725 4.74342453 42.5416352 5.07651599 42.6541156 5.41504309 42.7501664 5.76418866 42.8310512 6.11611527 42.8929787 6.47613214 42.9384764 6.83867722 42.9688082"></polygon>
                            <polygon id="Shape" fill="#FFF212" points="3.62330182 7.16879823 6.96496123 7.16879823 6.96496123 21.494262 3.62330182 21.494262"></polygon>
                            <path d="M21.9385281,18.2180467 L21.7476484,18.2180467 L21.5592968,18.2117276 L21.3734735,18.2041446 L21.1939707,18.1927702 L21.0169961,18.1826596 L20.8425498,18.1662299 L20.6706316,18.1472725 L20.5012416,18.1283151 L20.3369081,18.1043024 L20.1763669,18.0802897 L20.0170897,18.0537494 L19.8616049,18.0246814 L19.7111765,17.9943496 L19.5632763,17.9627539 L19.4179043,17.9273668 L19.2763247,17.8919797 L19.1385373,17.8553288 L19.0045423,17.817414 L18.8756037,17.7769716 L18.7491932,17.7365292 L18.625311,17.6960867 L18.5077493,17.6531167 L18.3927159,17.6101466 L18.2814747,17.5646489 L18.1740258,17.5216788 L18.0703693,17.4761811 L17.9705051,17.4306833 L17.873169,17.3851856 L17.7821535,17.3396879 L17.6936662,17.2941902 L17.6102354,17.2474286 L17.5293327,17.2019309 L18.1588566,15.0913421 L18.2309105,15.1343121 L18.3067568,15.1772822 L18.3838671,15.2202523 L18.4647698,15.2606947 L18.5482007,15.3011371 L18.6341598,15.3415796 L18.722647,15.382022 L18.8136626,15.4186729 L18.9084704,15.4565877 L19.0045423,15.4945025 L19.1018783,15.5324172 L19.2004784,15.5665405 L19.3003427,15.5994 L19.4027351,15.6335233 L19.5063916,15.6663827 L19.6113123,15.6954507 L19.7187611,15.7257825 L19.82621,15.7523229 L19.9361871,15.7788632 L20.0436359,15.8028759 L20.1548771,15.8268886 L20.2673824,15.8483736 L20.3773594,15.867331 L20.4898647,15.8862884 L20.5998418,15.9027181 L20.7136111,15.9153564 L20.8261164,15.9292585 L20.9360935,15.9368414 L21.0485987,15.9456882 L21.1585758,15.9532712 L21.2723452,15.9557988 L21.3823222,15.9557988 L21.5592968,15.9532712 L21.731215,15.9456882 L21.8917562,15.9317861 L22.0421846,15.9153564 L22.1875566,15.8913437 L22.325344,15.8648034 L22.4542826,15.8332077 L22.5743725,15.7978206 L22.6906701,15.7573782 L22.7981189,15.7144081 L22.8967191,15.6689104 L22.9877346,15.620885 L23.0736936,15.5690682 L23.1545963,15.5159875 L23.2304426,15.4591153 L23.2974401,15.403507 L23.3593812,15.3441072 L23.41753,15.2821797 L23.4693583,15.2227799 L23.514866,15.1608525 L23.5553173,15.0963974 L23.5932405,15.0344699 L23.6248431,14.9738063 L23.6539175,14.9118788 L23.6791995,14.8499514 L23.696897,14.7905516 L23.7133304,14.7311518 L23.7272355,14.6755434 L23.7373483,14.6186713 L23.7436689,14.5655906 L23.7487253,14.5137738 L23.7487253,14.4657484 L23.7487253,14.3507402 L23.3480043,14.3469488 L22.956132,14.3368382 L22.5743725,14.3178808 L22.20399,14.2913404 L21.8437203,14.2559533 L21.4948275,14.2104556 L21.1535194,14.1599026 L20.8261164,14.0979751 L20.5088263,14.0309924 L20.2054413,13.9526352 L19.9096409,13.866695 L19.6277456,13.7731719 L19.3597556,13.670802 L19.1018783,13.5608492 L18.8541139,13.4420496 L18.6202546,13.315667 L18.4003005,13.1817015 L18.1929874,13.040153 L17.9970512,12.8897578 L17.8175485,12.7279881 L17.6481585,12.5615423 L17.4952019,12.3870079 L17.3548863,12.2017311 L17.2259477,12.0110198 L17.1159706,11.8123464 L17.0173705,11.6028041 L16.9339396,11.3879538 L16.8669421,11.1623609 L16.8125856,10.93146 L16.7721343,10.6923441 L16.7506445,10.4426122 L16.7430599,10.1874458 L16.7455881,10.0343965 L16.7557009,9.88134722 L16.7746625,9.72829793 L16.8024728,9.57790268 L16.8366036,9.42750743 L16.8770549,9.27711218 L16.9250909,9.12937096 L16.9819756,8.98428377 L17.0439167,8.841977 L17.1159706,8.70232427 L17.1943451,8.56532557 L17.277776,8.43110729 L17.3687915,8.29954304 L17.4686557,8.17328685 L17.5761046,8.04968471 L17.6886098,7.93151701 L17.8086997,7.81878376 L17.9351101,7.71135858 L18.0703693,7.60924147 L18.2094208,7.5125588 L18.3573209,7.42131059 L18.5128058,7.33537045 L18.6746111,7.25751879 L18.8440011,7.18762923 L19.0184474,7.12317412 L19.1979502,7.0668075 L19.38883,7.01840298 L19.5822379,6.97821332 L19.7832305,6.94598577 L19.9905435,6.92172031 L20.2054413,6.90832376 L20.4253954,6.90301569 L20.5593904,6.90566973 L20.6921214,6.9109778 L20.82106,6.91641225 L20.9499986,6.92715476 L21.0751449,6.94055132 L21.2015554,6.95672828 L21.3254376,6.9754329 L21.4493198,6.99691794 L21.5694097,7.02383743 L21.6882355,7.05063053 L21.8057972,7.08020405 L21.9220947,7.1124316 L22.0346,7.14731319 L22.1471053,7.1849752 L22.2570823,7.22794527 L22.3645312,7.27091534 L22.4694518,7.31653945 L22.5743725,7.36494397 L22.6767649,7.41322211 L22.7766292,7.4669347 L22.8727011,7.52330132 L22.9662448,7.57979433 L23.0610526,7.64146902 L23.1495399,7.7032701 L23.2380272,7.7677252 L23.3239863,7.83483435 L23.4074172,7.9047239 L23.4857916,7.9772675 L23.562902,8.04968471 L23.6387482,8.12488233 L23.7108022,8.20286037 L23.7803279,8.28336607 L23.818251,8.28336607 L24.1835771,7.16879823 L26.9026652,7.16879823 L26.9026652,13.5178791 L26.8988729,13.7592698 L26.8862319,13.9956052 L26.8672703,14.229413 L26.8407241,14.4606931 L26.8053292,14.6881817 L26.7598214,14.9118788 L26.7092573,15.1292568 L26.6473162,15.3415796 L26.5739981,15.5501108 L26.4968878,15.7523229 L26.4046082,15.9482159 L26.306008,16.1390535 L26.196031,16.3235721 L26.0772052,16.5017715 L25.9457383,16.6736518 L25.8066869,16.8366853 L25.6562585,16.9933997 L25.4919249,17.1400035 L25.3174786,17.2802881 L25.1316553,17.411726 L24.9357191,17.5355809 L24.7258778,17.6480614 L24.5059237,17.7529589 L24.2720644,17.846482 L24.0280923,17.9324221 L23.7676868,18.005724 L23.4959044,18.0701791 L23.211481,18.1232598 L22.9131524,18.1637022 L22.6009187,18.1927702 L22.2760439,18.2117276 L21.9385281,18.2180467 Z M23.8447972,11.1301333 L23.8447972,11.0656782 L23.842269,10.9985691 L23.8372126,10.93146 L23.8321562,10.8615704 L23.8233074,10.7944612 L23.8157228,10.7245717 L23.8043459,10.6574625 L23.7891766,10.5903534 L23.7828561,10.5662143 L23.7727433,10.5312064 L23.7651586,10.4989788 L23.7563099,10.4774938 L23.7461971,10.4507007 L23.7348201,10.4237812 L23.7057457,10.356672 L23.672879,10.2922169 L23.6387482,10.2277618 L23.6008251,10.1633067 L23.5603738,10.1015056 L23.5173942,10.0370505 L23.4718865,9.97537585 L23.4238505,9.91622881 L23.3720222,9.85720815 L23.3214581,9.79806111 L23.2645734,9.74169448 L23.2064246,9.68532786 L23.1470117,9.63161527 L23.0850706,9.58055671 L23.0180731,9.52949816 L22.9510755,9.48122002 L22.8802857,9.43546953 L22.81076,9.38984542 L22.7361778,9.34952939 L22.6603316,9.30933973 L22.5832212,9.27167773 L22.5023186,9.23945017 L22.4214159,9.20722262 L22.3354568,9.1776491 L22.2494977,9.15351003 L22.1635386,9.12937096 L22.0725231,9.11053996 L21.9815076,9.09448937 L21.889228,9.08096643 L21.7931561,9.07300433 L21.6958201,9.06491585 L21.5997482,9.06491585 L21.5137891,9.06491585 L21.4303582,9.07022392 L21.3494555,9.07565837 L21.2685529,9.08640089 L21.1914425,9.09979744 L21.1155963,9.11319399 L21.0410141,9.13202499 L20.9676961,9.15351003 L20.9006986,9.17499506 L20.8311728,9.20191455 L20.7667035,9.23136169 L20.7047624,9.26358924 L20.6428213,9.2958168 L20.5872007,9.3334788 L20.530316,9.37379484 L20.4797519,9.41398449 L20.4279236,9.45973498 L20.3824158,9.50801312 L20.3369081,9.55641764 L20.2964568,9.61013023 L20.2585336,9.66649686 L20.2218746,9.72286348 L20.1890079,9.78466456 L20.1599335,9.84646563 L20.1359155,9.91092074 L20.1118975,9.98068391 L20.092936,10.0505735 L20.0765026,10.1229907 L20.0625975,10.2009687 L20.0550129,10.2788204 L20.0499564,10.3593261 L20.0474282,10.4426122 L20.0499564,10.5366408 L20.0575411,10.625235 L20.0714462,10.7138292 L20.0866155,10.7997693 L20.1081052,10.8804014 L20.1359155,10.9609071 L20.1675181,11.0361047 L20.202913,11.1113023 L20.2433644,11.1838459 L20.2863439,11.2509551 L20.3343799,11.3181906 L20.3874723,11.3826457 L20.4443569,11.4443204 L20.5062981,11.5008134 L20.5707674,11.55718 L20.6402931,11.6108926 L20.7136111,11.6646052 L20.7881933,11.7128833 L20.869096,11.7586338 L20.9525268,11.8042579 L21.0384859,11.847228 L21.1295014,11.8875441 L21.2205169,11.9250797 L21.3178529,11.9599613 L21.4189813,11.9949692 L21.5213737,12.0244164 L21.6262944,12.0539899 L21.7362714,12.0835634 L21.8462485,12.1077025 L21.9625461,12.1318416 L22.0775795,12.1533266 L22.1989336,12.1721576 L22.3114388,12.1883346 L22.4290005,12.2043851 L22.5478263,12.2177817 L22.6717085,12.2313046 L22.7943266,12.2392667 L22.9232652,12.2500092 L23.0522039,12.2554437 L23.1849348,12.2607518 L23.2645734,12.2635322 L23.345476,12.2661862 L23.4289069,12.2688403 L23.5098096,12.2688403 L23.5932405,12.2688403 L23.6754072,12.2688403 L23.7588381,12.2688403 L23.8447972,12.2688403 L23.8447972,11.1301333 Z" id="Shape" fill="#FFF212"></path>
                            <polygon id="Shape" fill="#FFF212" points="36.1318899 17.9033541 36.1318899 11.6108926 36.1318899 11.516864 36.1268334 11.4256158 36.1179847 11.3368952 36.1053437 11.2509551 36.0914385 11.1650149 36.072477 11.0845092 36.048459 11.0038772 36.0193846 10.9286795 35.9953666 10.8670048 35.9650281 10.8052038 35.9334255 10.7434027 35.9005588 10.6816016 35.866428 10.622581 35.8285048 10.5607799 35.7880535 10.4989788 35.745074 10.4399582 35.6995662 10.3808111 35.6540585 10.3217905 35.6022302 10.2626434 35.551666 10.2062768 35.4985737 10.1525642 35.441689 10.0988516 35.3822761 10.0477931 35.320335 9.99686088 35.2558657 9.94845636 35.1913963 9.90017822 35.1218706 9.85720815 35.0523449 9.81423808 34.9764986 9.77657607 34.9019165 9.73904045 34.823542 9.70403248 34.7426394 9.67458534 34.6604726 9.64501182 34.5745135 9.62087275 34.4847621 9.59938772 34.3937466 9.58321075 34.3027311 9.56716016 34.2053951 9.55907168 34.1093232 9.55098319 34.0069307 9.55098319 33.8830485 9.55363723 33.7629586 9.56172571 33.6441328 9.57512226 33.5316275 9.5966073 33.4241787 9.62087275 33.319258 9.65310031 33.2206579 9.69063593 33.1258501 9.733606 33.0348346 9.77923011 32.9488755 9.8329427 32.8654446 9.89208974 32.7870702 9.95654484 32.7150162 10.023654 32.6429623 10.0988516 32.578493 10.1767033 32.5165519 10.2599894 32.457139 10.3485836 32.4040466 10.4426122 32.3547466 10.5419489 32.3067106 10.644066 32.2662593 10.7514912 32.2258079 10.8642244 32.1916771 10.9823921 32.1613386 11.1033402 32.1347924 11.22947 32.1107744 11.3583803 32.0918129 11.4927249 32.0753795 11.6323777 32.0627385 11.7746844 32.0538898 11.9224256 32.0488333 12.0728209 32.0463051 12.2285242 32.0463051 17.9084094 28.7849163 17.9084094 28.7849163 11.6323777 28.7849163 11.4738939 28.7899728 11.3208446 28.7962933 11.1731034 28.8038779 11.0253622 28.8152548 10.8804014 28.8278959 10.7380946 28.8443292 10.6010959 28.8607626 10.4640972 28.8822524 10.332533 28.9037421 10.2036228 28.9277601 10.0773666 28.9568345 9.95389081 28.987173 9.8329427 29.0187756 9.714775 29.0516423 9.59938772 29.0883013 9.48918212 29.1262245 9.37910291 29.169204 9.27167773 29.2096553 9.16690658 29.2551631 9.06491585 29.3006708 8.96557915 29.3461786 8.86889649 29.3980069 8.77486786 29.448571 8.68083923 29.4991352 8.59224506 29.5534917 8.50365088 29.6103764 8.41771073 29.6685252 8.33707866 29.7279381 8.25657296 29.7898792 8.17859492 29.8518203 8.1033973 29.9162896 8.03098009 29.9832871 7.95843649 30.0528128 7.89132735 30.1223386 7.82409183 30.1931284 7.76241714 30.2677105 7.70061606 30.3410286 7.64146902 30.4181389 7.5851024 30.4965134 7.53138981 30.5774161 7.48033125 30.6570546 7.43205311 30.7404855 7.386429 30.8239164 7.34067852 30.9098755 7.30048886 30.9983628 7.26017282 31.0868501 7.22529123 31.1791297 7.19028326 31.2726734 7.15805571 31.3636889 7.12860857 31.4610249 7.09903505 31.5545686 7.07489598 31.6544328 7.05063053 31.7505048 7.02914549 31.850369 7.00766046 31.9527614 6.99160987 32.0538898 6.9754329 32.1562822 6.96203635 32.2612028 6.95129383 32.3661235 6.94055132 32.4735723 6.93246283 32.5810212 6.9298088 32.6909983 6.92450073 32.8009753 6.92450073 32.8983114 6.92450073 32.9918551 6.92715476 33.0828706 6.9298088 33.1738861 6.93524325 33.2661657 6.94320535 33.354653 6.95129383 33.4431403 6.95938232 33.5290993 6.97277887 33.6125302 6.98352139 33.6959611 6.99969836 33.779392 7.01309491 33.8590305 7.03192591 33.937405 7.0479765 34.0157795 7.06946153 34.0928898 7.09094657 34.1687361 7.1124316 34.3128439 7.16083613 34.4556877 7.2117683 34.5896827 7.26548089 34.7211496 7.31919348 34.84756 7.37834052 34.968914 7.43736118 35.0839475 7.50181629 35.1939245 7.56627139 35.2988452 7.63350692 35.4012376 7.70061606 35.4985737 7.77037924 35.5921174 7.8402688 35.6806047 7.91281239 35.7640355 7.98801001 35.84241 8.06320764 35.9169921 8.1410593 35.9890461 8.21625693 36.0573077 8.29145455 36.1179847 8.36399814 36.1773976 8.43376132 36.2342823 8.50087046 36.2848465 8.56810599 36.3303542 8.62978068 36.3733338 8.69423579 36.7930163 7.16879823 39.4413146 7.16879823 39.4413146 17.9033541 36.1318899 17.9033541"></polygon>
                            <polygon id="Shape" fill="#FFF212" points="10.0998132 21.4938828 10.0998132 17.9084094 8.57669406 17.9084094 8.57669406 15.461643 10.0998132 15.461643 10.0998132 11.0952518 10.1024678 10.9609071 10.1051224 10.8293428 10.1079035 10.6977786 10.1132127 10.5715224 10.121303 10.4452662 10.1320478 10.3217905 10.1427927 10.2009687 10.1561922 10.0800206 10.1695917 9.96463333 10.1857723 9.84911966 10.2046074 9.73626003 10.2260972 9.62618082 10.247587 9.51875564 10.2717314 9.41133046 10.2958757 9.30933973 10.3228012 9.20722262 10.3522548 9.10788592 10.3844895 9.01120326 10.4167241 8.91717463 10.4517398 8.82592642 10.4892837 8.73455182 10.526954 8.64861168 10.5671525 8.56267154 10.610132 8.48216584 10.6531116 8.40153377 10.6988722 8.32368211 10.7471609 8.24848448 10.7982307 8.17328685 10.8493006 8.1033973 10.903025 8.03628815 10.959404 7.96917901 11.0157831 7.90737794 11.0695075 7.85366535 11.1232319 7.79995276 11.179611 7.7488942 11.2361164 7.69796203 11.2978047 7.6495575 11.3596194 7.60127937 11.4267433 7.55287484 11.4939937 7.50725074 11.5611176 7.46162663 11.6336772 7.41865656 11.7061104 7.37834052 11.7813246 7.33537045 11.8593198 7.29770844 11.9371886 7.26017282 12.0204931 7.22251082 12.1010165 7.19028326 12.1869756 7.15540168 12.2729347 7.12582816 12.3615484 7.09638102 12.4502885 7.06946153 12.5415568 7.04266843 12.6356062 7.02118339 12.7295291 6.99969836 12.8268651 6.98086735 12.9229371 6.96203635 13.0228013 6.94598577 13.1214014 6.93524325 13.2237939 6.92450073 13.3261863 6.91375821 13.4311069 6.90832376 13.5360276 6.90566973 13.6434764 6.90301569 13.820451 6.90566973 13.9835205 6.9109778 14.1377412 6.91906628 14.2767926 6.9298088 14.4082595 6.94320535 14.5296135 6.95938232 14.644647 6.97821332 14.7495676 6.99969836 14.85196 7.02118339 14.9455038 7.04532246 15.033991 7.07211557 15.1224783 7.09903505 15.2893401 7.15805571 15.4536736 7.21985678 15.4536736 9.714775 15.4106941 9.69872441 15.3538094 9.68254744 15.2868119 9.66649686 15.203381 9.65310031 15.1098373 9.63957737 15.0049166 9.63161527 14.8924114 9.62352679 14.7710574 9.62087275 14.6636085 9.62352679 14.5637443 9.62883485 14.4676724 9.63957737 14.3766569 9.65575434 14.2906978 9.67458534 14.2097951 9.69607038 14.1314207 9.72286348 14.0593667 9.75509104 13.9923692 9.78997262 13.9278999 9.82763463 13.8659588 9.87325873 13.8116023 9.91888284 13.7585099 9.9699414 13.710474 10.023654 13.6649662 10.082801 13.6245149 10.1472561 13.5865918 10.2117112 13.5511968 10.2841285 13.5195942 10.356672 13.4892557 10.4345237 13.4652378 10.5178098 13.4412198 10.6010959 13.4222582 10.6923441 13.4032966 10.7837187 13.3906556 10.8804014 13.3767505 10.9823921 13.3666376 11.0845092 13.3577889 11.1919344 13.3527325 11.3046677 13.3476761 11.4175273 13.3451479 11.535695 13.3451479 11.6565167 13.3451479 15.461643 15.4182787 15.461643 15.4182787 17.9084094 13.3451479 17.9084094 13.3451479 21.4938828 10.0998132 21.4938828"></polygon>
                            <polygon id="Shape" fill="#FFF212" points="34.8993883 21.4964105 32.8844062 18.6009859 35.2154143 18.6009859 38.0558564 21.4964105 34.8993883 21.4964105"></polygon>
                        </g>
                    </g>
                </g>
            </g>
        </g>
    </g>
</svg>