<svg xmlns="http://www.w3.org/2000/svg" viewBox="0 0 125.43 78.39"><defs><style>.cls-1{fill:#0c489c;}.cls-2{fill:#fff;}</style></defs><title>Asset 22</title><g id="Layer_2" data-name="Layer 2"><g id="Layer_1-2" data-name="Layer 1"><rect class="cls-1" width="125.43" height="78.39" rx="4.18" ry="4.18"/><path class="cls-2" d="M84.55,41.86c.15,4.57.3,9.29.07,13.93a6.31,6.31,0,0,1-3,4.65,9,9,0,0,1-4.57,1L71,61.35l0-38.76a6.57,6.57,0,0,1,4.65-5.48,85.34,85.34,0,0,1,8.83-.31l.15,2v22l-.07.08Z"/><path class="cls-2" d="M40.69,40.41V22.13a6.65,6.65,0,0,1,4-4.72c3-.91,6.4-.37,9.45-.45.15,3,0,6.7.07,9.29l.15,23.83c-.38,3.66,1,8.61-3.58,10.66-2.89,1.45-6.77.54-10.05.84l-.07-.53V40.41Z"/><path class="cls-2" d="M69.39,19.47l.08,37.08a6.7,6.7,0,0,1-3.81,4.34c-2.89,1-6.47.54-9.67.54l-.15-39.07a6,6,0,0,1,3-4.41,7.74,7.74,0,0,1,4-1.07h6.47Z"/><path class="cls-1" d="M40.69,41.17a6.6,6.6,0,0,0,5,2.89c2.51.24,5.78.46,7.46-1.9,1.14-1.22.46-2.89.69-4.49l-.08-2.89c-1.45-.31-2.74,0-4.42-.08-.83,3.12,1.37,6.62-2.21,8.22a3.94,3.94,0,0,1-2.89-.45c-1.37-.31-.61-2.52-2.44-1.91l-1.06-.15Z"/><path class="cls-1" d="M68.79,34.78a7.42,7.42,0,0,1,.07,1.37c-2.28-.61-5.1-1.3-7.15.38a3.78,3.78,0,0,0,1.21,6.24c2,.61,4,.08,5.87-.38a2.29,2.29,0,0,1,0,1.22H60a4.55,4.55,0,0,1-3.43-2.67,4.69,4.69,0,0,1,.76-4.64A4.44,4.44,0,0,1,61,34.7Z"/><path class="cls-1" d="M84.55,41.86a2.55,2.55,0,0,1-1.91,1.9H72l-.38-.15c0-3-.07-5.94.08-8.91h6.78C80.59,34.93,83,34,83.94,36a2,2,0,0,1-.31,2.14c-.3.53-1,.61-1.14,1a3.14,3.14,0,0,1,2.06,1.75Zm-9.14-6.25a7.41,7.41,0,0,0-.08,2.9c1.6-.08,3.66.53,4.73-.69a1.51,1.51,0,0,0-.08-1.6C78.76,35.16,76.93,35.84,75.41,35.61Zm4.11,4.19a20.32,20.32,0,0,0-4.26-.08,14.05,14.05,0,0,0,.15,3.13c1.52,0,3.2.22,4.57-.46a1.63,1.63,0,0,0,.46-1.52A1.6,1.6,0,0,0,79.52,39.8Z"/></g></g></svg>