<?xml version="1.0" encoding="utf-8"?>
<!-- Generator: Adobe Illustrator 22.0.0, SVG Export Plug-In . SVG Version: 6.00 Build 0)  -->
<svg version="1.1" id="Layer_1" xmlns="http://www.w3.org/2000/svg" xmlns:xlink="http://www.w3.org/1999/xlink" x="0px" y="0px"
	 viewBox="0 0 125.4 78.4" style="enable-background:new 0 0 125.4 78.4;" xml:space="preserve">
<style type="text/css">
	.st0{fill:#13457C;}
	.st1{fill:#FBB231;}
	.st2{fill:#EC1C2E;}
	.st3{fill:#FFFFFF;}
	.st4{fill:none;stroke:#FFFFFF;stroke-width:0.22;stroke-miterlimit:2.61;}
</style>
<title>Asset 6</title>
<g id="Layer_2_1_">
	<g id="Layer_1-2">
		<path class="st0" d="M4.2,0.1h117.1c2.3,0,4.2,1.9,4.2,4.2v70c0,2.3-1.9,4.2-4.2,4.2H4.2c-2.3,0-4.2-1.9-4.2-4.2v-70
			C0,1.9,1.9,0.1,4.2,0.1z"/>
		<polygon class="st1" points="77.8,59.4 78.9,59.3 80.1,59.3 81.2,59.1 82.3,58.9 83.4,58.7 84.5,58.4 85.5,58 86.5,57.6 
			87.5,57.2 88.5,56.7 89.5,56.1 90.4,55.5 91.3,54.9 92.1,54.2 92.9,53.5 93.7,52.8 94.5,52 95.2,51.2 95.8,50.3 96.5,49.4 
			97.1,48.5 97.6,47.6 98.1,46.6 98.5,45.6 98.9,44.6 99.3,43.5 99.6,42.5 99.9,41.4 100.1,40.3 100.2,39.1 100.3,38 100.3,36.8 
			100.3,35.7 100.2,34.5 100.1,33.4 99.9,32.3 99.6,31.2 99.3,30.2 98.9,29.1 98.5,28.1 98.1,27.1 97.6,26.1 97.1,25.2 96.5,24.3 
			95.8,23.4 95.2,22.6 94.5,21.7 93.7,21 92.9,20.2 92.1,19.5 91.3,18.8 90.4,18.2 89.5,17.6 88.5,17.1 87.5,16.6 86.5,16.1 
			85.5,15.7 84.5,15.4 83.4,15.1 82.3,14.8 81.2,14.6 80.1,14.5 78.9,14.4 77.8,14.4 76.6,14.4 75.5,14.5 74.3,14.6 73.2,14.8 
			72.2,15.1 71.1,15.4 70,15.7 69,16.1 68,16.6 67.1,17.1 66.1,17.6 65.2,18.2 64.3,18.8 63.5,19.5 62.7,20.2 61.9,21 61.1,21.7 
			60.4,22.6 59.8,23.4 59.1,24.3 58.5,25.2 58,26.1 57.5,27.1 57.1,28.1 56.7,29.1 56.3,30.2 56,31.2 55.8,32.3 55.6,33.4 
			55.4,34.5 55.3,35.7 55.3,36.8 55.3,38 55.4,39.1 55.6,40.3 55.8,41.4 56,42.5 56.3,43.5 56.7,44.6 57.1,45.6 57.5,46.6 58,47.6 
			58.5,48.5 59.1,49.4 59.8,50.3 60.4,51.2 61.1,52 61.9,52.8 62.7,53.5 63.5,54.2 64.3,54.9 65.2,55.5 66.1,56.1 67.1,56.7 
			68,57.2 69,57.6 70,58 71.1,58.4 72.2,58.7 73.2,58.9 74.3,59.1 75.5,59.3 76.6,59.3 77.8,59.4 77.8,59.4 		"/>
		<polygon class="st2" points="47.7,59.4 48.8,59.3 50,59.3 51.1,59.1 52.2,58.9 53.3,58.7 54.3,58.4 55.4,58 56.4,57.6 57.4,57.2 
			58.4,56.7 59.3,56.1 60.2,55.5 61.1,54.9 62,54.2 62.8,53.5 63.5,52.8 64.3,52 65,51.2 65.7,50.3 66.3,49.4 66.9,48.5 67.4,47.6 
			67.9,46.6 68.4,45.6 68.8,44.6 69.1,43.5 69.4,42.5 69.7,41.4 69.9,40.3 70,39.1 70.1,38 70.1,36.8 70.1,35.7 70,34.5 69.9,33.4 
			69.7,32.3 69.4,31.2 69.1,30.2 68.8,29.1 68.4,28.1 67.9,27.1 67.4,26.1 66.9,25.2 66.3,24.3 65.7,23.4 65,22.6 64.3,21.7 
			63.5,21 62.8,20.2 62,19.5 61.1,18.8 60.2,18.2 59.3,17.6 58.4,17.1 57.4,16.6 56.4,16.1 55.4,15.7 54.3,15.4 53.3,15.1 
			52.2,14.8 51.1,14.6 50,14.5 48.8,14.4 47.7,14.4 46.5,14.4 45.3,14.5 44.2,14.6 43.1,14.8 42,15.1 41,15.4 39.9,15.7 38.9,16.1 
			37.9,16.6 36.9,17.1 36,17.6 35,18.2 34.2,18.8 33.3,19.5 32.5,20.2 31.7,21 31,21.7 30.3,22.6 29.6,23.4 29,24.3 28.4,25.2 
			27.8,26.1 27.3,27.1 26.9,28.1 26.5,29.1 26.1,30.2 25.8,31.2 25.6,32.3 25.4,33.4 25.2,34.5 25.1,35.7 25.1,36.8 25.1,38 
			25.2,39.1 25.4,40.3 25.6,41.4 25.8,42.5 26.1,43.5 26.5,44.6 26.9,45.6 27.3,46.6 27.8,47.6 28.4,48.5 29,49.4 29.6,50.3 
			30.3,51.2 31,52 31.7,52.8 32.5,53.5 33.3,54.2 34.2,54.9 35,55.5 36,56.1 36.9,56.7 37.9,57.2 38.9,57.6 39.9,58 41,58.4 
			42,58.7 43.1,58.9 44.2,59.1 45.3,59.3 46.5,59.3 47.7,59.4 47.7,59.4 		"/>
		<polygon class="st1" points="60.1,23 72,23 72,21.8 61.1,21.8 60.1,23 60.1,23 		"/>
		<polygon class="st1" points="58.3,25.7 72,25.7 72,24.5 59,24.5 58.3,25.7 58.3,25.7 		"/>
		<polygon class="st1" points="57,28.4 72,28.4 72,27.2 57.5,27.2 57,28.4 57,28.4 		"/>
		<polygon class="st1" points="56,31.1 72,31.1 72,29.9 56.4,29.9 56,31.1 56,31.1 		"/>
		<polygon class="st1" points="56.6,44.3 72.1,44.3 72.1,43.1 56.2,43.1 56.6,44.3 56.6,44.3 		"/>
		<polygon class="st1" points="57.7,47 72.1,47 72.1,45.8 57.1,45.8 57.7,47 57.7,47 		"/>
		<polygon class="st1" points="59.3,49.7 72.1,49.7 72.1,48.5 58.5,48.5 59.3,49.7 59.3,49.7 		"/>
		<polygon class="st1" points="61.5,52.4 72.1,52.4 72.1,51.2 60.5,51.2 61.5,52.4 61.5,52.4 		"/>
		<polygon class="st1" points="55.5,33.9 72,33.9 72,32.6 55.7,32.6 55.5,33.9 55.5,33.9 		"/>
		<polygon class="st1" points="65.6,41.6 71.9,41.6 71.9,40.3 65.8,40.3 65.6,41.6 65.6,41.6 		"/>
		<polygon class="st1" points="66.1,38.9 71.9,38.9 71.9,37.6 66.3,37.6 66.1,38.9 66.1,38.9 		"/>
		<polygon class="st1" points="55.1,37.6 56.7,37.6 56.7,38.9 55.2,38.9 55.1,37.6 55.1,37.6 		"/>
		<polygon class="st3" points="52,36.1 51.9,36.1 51.8,36.1 51.7,36.1 51.6,36.1 51.5,36.1 51.4,36.1 51.3,36 51.2,36 51.1,36 
			51,36 50.8,36 50.7,36 50.5,36 50.4,36 50.2,36 50,36 49.8,36.1 49.7,36.1 49.5,36.1 49.4,36.2 49.3,36.2 49.2,36.3 49.1,36.4 
			49.1,36.4 49,36.5 49,36.6 49,36.7 49,36.8 49,36.9 49,37 49.1,37.1 49.2,37.2 49.3,37.3 49.5,37.4 49.7,37.5 49.9,37.6 
			50.2,37.7 50.4,37.8 50.7,37.9 50.9,38 51.2,38.1 51.4,38.3 51.5,38.4 51.7,38.7 51.8,39 51.9,39.3 51.9,39.7 51.9,40.2 
			51.8,40.6 51.8,40.9 51.6,41.2 51.5,41.4 51.3,41.6 51.1,41.8 50.9,42 50.7,42.1 50.4,42.2 50.2,42.3 49.9,42.4 49.7,42.5 
			49.4,42.5 49.1,42.5 48.9,42.6 48.7,42.6 48.3,42.6 48,42.6 47.8,42.6 47.5,42.5 47.3,42.5 47.1,42.5 46.9,42.5 46.7,42.5 
			46.6,42.5 46.4,42.4 46.3,42.4 46.1,42.4 46,42.3 45.9,42.3 45.8,42.3 45.6,42.2 46,40.5 46,40.6 46.1,40.6 46.2,40.6 46.4,40.6 
			46.5,40.7 46.7,40.7 46.8,40.7 47,40.8 47.2,40.8 47.4,40.8 47.6,40.8 47.8,40.9 48,40.9 48.2,40.9 48.5,40.9 48.7,40.9 
			48.9,40.8 49.1,40.8 49.2,40.7 49.3,40.6 49.4,40.5 49.5,40.4 49.5,40.2 49.5,40.1 49.5,39.9 49.5,39.7 49.3,39.6 49.2,39.4 
			48.9,39.3 48.7,39.2 48.4,39.1 48.1,39 47.8,38.8 47.5,38.7 47.2,38.5 47,38.2 46.8,38 46.7,37.6 46.6,37.2 46.6,36.7 46.6,36.4 
			46.7,36.1 46.8,35.9 46.8,35.6 47,35.4 47.1,35.2 47.3,35 47.5,34.9 47.7,34.7 47.9,34.6 48.2,34.5 48.5,34.4 48.8,34.3 
			49.2,34.3 49.6,34.2 50.1,34.2 50.3,34.2 50.6,34.2 50.8,34.3 51,34.3 51.2,34.3 51.4,34.3 51.6,34.3 51.7,34.3 51.8,34.3 
			51.9,34.4 52,34.4 52.1,34.4 52.2,34.4 52.3,34.4 52.3,34.4 52.4,34.4 52,36.1 52,36.1 		"/>
		<polyline class="st4" points="52,36.1 52,36.1 51.9,36.1 51.8,36.1 51.7,36.1 51.6,36.1 51.5,36.1 51.4,36.1 51.3,36 51.2,36 
			51.1,36 51,36 50.8,36 50.7,36 50.5,36 50.4,36 50.2,36 50,36 50,36 49.8,36.1 49.7,36.1 49.5,36.1 49.4,36.2 49.3,36.2 
			49.2,36.3 49.1,36.4 49.1,36.4 49,36.5 49,36.6 49,36.7 49,36.8 49,36.9 49,37 49.1,37.1 49.2,37.2 49.2,37.2 49.3,37.3 
			49.5,37.4 49.7,37.5 49.9,37.6 50.2,37.7 50.4,37.8 50.7,37.9 50.9,38 51.2,38.1 51.4,38.3 51.5,38.4 51.7,38.7 51.8,39 
			51.9,39.3 51.9,39.7 51.9,40.2 51.9,40.2 51.8,40.6 51.8,40.9 51.6,41.2 51.5,41.4 51.3,41.6 51.1,41.8 50.9,42 50.7,42.1 
			50.4,42.2 50.2,42.3 49.9,42.4 49.7,42.5 49.4,42.5 49.1,42.5 48.9,42.6 48.7,42.6 48.7,42.6 48.3,42.6 48,42.6 47.8,42.6 
			47.5,42.5 47.3,42.5 47.1,42.5 46.9,42.5 46.7,42.5 46.6,42.5 46.4,42.4 46.3,42.4 46.1,42.4 46,42.3 45.9,42.3 45.8,42.3 
			45.6,42.2 46,40.5 46,40.5 46,40.6 46.1,40.6 46.2,40.6 46.4,40.6 46.5,40.7 46.7,40.7 46.8,40.7 47,40.8 47.2,40.8 47.4,40.8 
			47.6,40.8 47.8,40.9 48,40.9 48.2,40.9 48.5,40.9 48.7,40.9 48.7,40.9 48.9,40.8 49.1,40.8 49.2,40.7 49.3,40.6 49.4,40.5 
			49.5,40.4 49.5,40.2 49.5,40.1 49.5,40.1 49.5,39.9 49.5,39.7 49.3,39.6 49.2,39.4 48.9,39.3 48.7,39.2 48.4,39.1 48.1,39 
			47.8,38.8 47.5,38.7 47.2,38.5 47,38.2 46.8,38 46.7,37.6 46.6,37.2 46.6,36.7 46.6,36.7 46.6,36.4 46.7,36.1 46.8,35.9 
			46.8,35.6 47,35.4 47.1,35.2 47.3,35 47.5,34.9 47.7,34.7 47.9,34.6 48.2,34.5 48.5,34.4 48.8,34.3 49.2,34.3 49.6,34.2 
			50.1,34.2 50.1,34.2 50.3,34.2 50.6,34.2 50.8,34.3 51,34.3 51.2,34.3 51.4,34.3 51.6,34.3 51.7,34.3 51.8,34.3 51.9,34.4 
			52,34.4 52.1,34.4 52.2,34.4 52.3,34.4 52.3,34.4 52.4,34.4 52,36.1 		"/>
		<polygon class="st3" points="53.8,32.6 55.9,32.6 55.6,34.4 56.9,34.4 56.6,36.1 55.3,36.1 54.5,40.3 54.5,40.5 54.6,40.6 
			54.6,40.7 54.7,40.8 54.9,40.8 55,40.9 55.2,40.9 55.4,40.9 55.5,40.9 55.7,40.9 55.8,40.9 56,40.8 56.1,40.8 56.1,40.8 
			56.2,40.8 56.2,40.8 55.9,42.2 55.9,42.2 55.8,42.2 55.8,42.3 55.7,42.3 55.7,42.3 55.6,42.3 55.5,42.4 55.5,42.4 55.4,42.4 
			55.3,42.4 55.2,42.4 55.1,42.5 55,42.5 54.9,42.5 54.8,42.5 54.7,42.5 54.1,42.5 53.8,42.5 53.5,42.5 53.3,42.4 53.1,42.4 
			52.9,42.3 52.8,42.2 52.6,42.1 52.5,42 52.4,41.9 52.4,41.8 52.3,41.7 52.3,41.5 52.3,41.4 52.3,41.2 52.3,41 52.4,40.8 
			53.8,32.6 53.8,32.6 		"/>
		<polyline class="st4" points="53.8,32.6 55.9,32.6 55.6,34.4 56.9,34.4 56.6,36.1 55.3,36.1 54.5,40.3 54.5,40.3 54.5,40.5 
			54.6,40.6 54.6,40.7 54.7,40.8 54.9,40.8 55,40.9 55.2,40.9 55.4,40.9 55.4,40.9 55.5,40.9 55.7,40.9 55.8,40.9 56,40.8 
			56.1,40.8 56.1,40.8 56.2,40.8 56.2,40.8 55.9,42.2 55.9,42.2 55.9,42.2 55.8,42.2 55.8,42.3 55.7,42.3 55.7,42.3 55.6,42.3 
			55.5,42.4 55.5,42.4 55.4,42.4 55.3,42.4 55.2,42.4 55.1,42.5 55,42.5 54.9,42.5 54.8,42.5 54.7,42.5 54.1,42.5 54.1,42.5 
			53.8,42.5 53.5,42.5 53.3,42.4 53.1,42.4 52.9,42.3 52.8,42.2 52.6,42.1 52.5,42 52.4,41.9 52.4,41.8 52.3,41.7 52.3,41.5 
			52.3,41.4 52.3,41.2 52.3,41 52.4,40.8 53.8,32.6 		"/>
		<polyline class="st4" points="58.5,39 58.5,39 58.5,39.1 58.5,39.2 58.5,39.4 58.6,39.5 58.6,39.7 58.7,39.8 58.8,40 58.9,40.1 
			59,40.2 59.1,40.3 59.2,40.4 59.3,40.5 59.5,40.6 59.6,40.7 59.8,40.7 59.9,40.8 59.9,40.8 60.1,40.8 60.3,40.8 60.5,40.8 
			60.7,40.9 60.9,40.9 61.1,40.9 61.3,40.9 61.5,40.8 61.7,40.8 61.9,40.8 62.1,40.7 62.3,40.7 62.5,40.6 62.8,40.5 63,40.4 
			63.2,40.2 62.9,42.1 62.9,42.1 62.8,42.2 62.7,42.2 62.5,42.3 62.4,42.3 62.3,42.3 62.2,42.4 62.1,42.4 61.9,42.4 61.8,42.5 
			61.7,42.5 61.5,42.5 61.3,42.5 61.1,42.5 60.9,42.5 60.7,42.5 60.4,42.5 60.4,42.5 60.1,42.5 59.7,42.5 59.3,42.4 58.9,42.3 
			58.5,42.2 58.2,42.1 57.8,41.9 57.5,41.7 57.2,41.4 57,41.1 56.8,40.7 56.6,40.3 56.4,39.9 56.4,39.4 56.3,38.8 56.4,38.2 
			56.4,38.2 56.4,38 56.5,37.7 56.5,37.4 56.6,37.1 56.7,36.7 56.8,36.4 57,36.1 57.2,35.8 57.5,35.5 57.8,35.2 58.1,34.9 
			58.5,34.7 58.9,34.5 59.4,34.4 60,34.3 60.6,34.2 60.6,34.2 60.9,34.2 61.2,34.3 61.5,34.3 61.8,34.4 62.1,34.5 62.4,34.7 
			62.7,34.8 62.9,35 63.2,35.3 63.3,35.6 63.5,36 63.6,36.4 63.7,36.8 63.7,37.3 63.6,37.9 63.5,38.5 63.5,39 57.9,39 58.3,37.5 
			61.6,37.5 61.6,37.5 61.6,37.3 61.6,37.1 61.6,37 61.6,36.8 61.5,36.7 61.5,36.5 61.4,36.4 61.3,36.3 61.2,36.2 61.1,36.2 
			61,36.1 60.9,36 60.8,36 60.7,36 60.5,35.9 60.4,35.9 60.4,35.9 60.2,35.9 60.1,35.9 60,36 59.8,36 59.7,36.1 59.6,36.2 
			59.5,36.2 59.4,36.3 59.3,36.4 59.2,36.5 59.1,36.7 59,36.8 59,36.9 58.9,37.1 58.9,37.2 58.9,37.4 58.5,39 		"/>
		<polygon class="st3" points="76.7,34.8 76.6,34.8 76.5,34.8 76.4,34.7 76.2,34.6 76.1,34.6 76,34.6 75.9,34.5 75.7,34.5 
			75.6,34.4 75.4,34.4 75.3,34.4 75.1,34.3 74.9,34.3 74.8,34.3 74.6,34.3 74.4,34.3 74.2,34.3 74,34.3 73.8,34.3 73.6,34.4 
			73.4,34.4 73.2,34.5 73,34.6 72.8,34.8 72.5,34.9 72.3,35.1 72.2,35.4 72,35.7 71.8,36 71.7,36.4 71.5,36.8 71.4,37.3 71.3,37.6 
			71.3,37.8 71.3,38.1 71.3,38.3 71.3,38.6 71.4,38.8 71.4,39.1 71.5,39.3 71.6,39.5 71.8,39.7 71.9,39.9 72.1,40 72.3,40.2 
			72.6,40.3 72.8,40.4 73.1,40.5 73.2,40.5 73.3,40.5 73.4,40.5 73.6,40.5 73.8,40.6 73.9,40.6 74.1,40.6 74.3,40.5 74.5,40.5 
			74.7,40.5 74.9,40.4 75.1,40.4 75.3,40.3 75.5,40.2 75.6,40.1 75.8,39.9 75.4,41.9 75.4,42 75.3,42 75.3,42.1 75.2,42.1 
			75.1,42.2 75,42.2 74.9,42.3 74.8,42.3 74.6,42.4 74.4,42.4 74.2,42.5 73.9,42.5 73.6,42.5 73.3,42.5 72.9,42.5 72.4,42.5 
			72.1,42.4 71.8,42.4 71.4,42.3 71.1,42.1 70.7,41.9 70.4,41.7 70.1,41.4 69.8,41.1 69.6,40.8 69.4,40.4 69.2,40 69,39.5 68.9,39 
			68.9,38.5 68.9,37.9 69,37.2 69.1,36.9 69.1,36.6 69.2,36.3 69.3,36.1 69.4,35.8 69.5,35.5 69.6,35.3 69.7,35 69.8,34.8 
			69.9,34.6 70,34.4 70.2,34.2 70.3,34 70.5,33.8 70.6,33.6 70.8,33.5 70.9,33.3 71.1,33.2 71.3,33.1 71.5,32.9 71.7,32.8 
			71.9,32.7 72.1,32.6 72.3,32.5 72.6,32.5 72.8,32.4 73.1,32.4 73.3,32.3 73.6,32.3 73.8,32.2 74.1,32.2 74.4,32.2 74.7,32.2 
			74.9,32.2 75.1,32.3 75.3,32.3 75.6,32.3 75.8,32.4 75.9,32.4 76.1,32.5 76.3,32.5 76.5,32.5 76.6,32.6 76.7,32.6 76.8,32.7 
			76.9,32.7 77,32.7 77,32.7 76.7,34.8 76.7,34.8 		"/>
		<polyline class="st4" points="76.7,34.8 76.7,34.8 76.6,34.8 76.5,34.8 76.4,34.7 76.2,34.6 76.1,34.6 76,34.6 75.9,34.5 
			75.7,34.5 75.6,34.4 75.4,34.4 75.3,34.4 75.1,34.3 74.9,34.3 74.8,34.3 74.6,34.3 74.4,34.3 74.4,34.3 74.2,34.3 74,34.3 
			73.8,34.3 73.6,34.4 73.4,34.4 73.2,34.5 73,34.6 72.8,34.8 72.5,34.9 72.3,35.1 72.2,35.4 72,35.7 71.8,36 71.7,36.4 71.5,36.8 
			71.4,37.3 71.4,37.3 71.3,37.6 71.3,37.8 71.3,38.1 71.3,38.3 71.3,38.6 71.4,38.8 71.4,39.1 71.5,39.3 71.6,39.5 71.8,39.7 
			71.9,39.9 72.1,40 72.3,40.2 72.6,40.3 72.8,40.4 73.1,40.5 73.1,40.5 73.2,40.5 73.3,40.5 73.4,40.5 73.6,40.5 73.8,40.6 
			73.9,40.6 74.1,40.6 74.3,40.5 74.5,40.5 74.7,40.5 74.9,40.4 75.1,40.4 75.3,40.3 75.5,40.2 75.6,40.1 75.8,39.9 75.4,41.9 
			75.4,41.9 75.4,42 75.3,42 75.3,42.1 75.2,42.1 75.1,42.2 75,42.2 74.9,42.3 74.8,42.3 74.6,42.4 74.4,42.4 74.2,42.5 73.9,42.5 
			73.6,42.5 73.3,42.5 72.9,42.5 72.4,42.5 72.4,42.5 72.1,42.4 71.8,42.4 71.4,42.3 71.1,42.1 70.7,41.9 70.4,41.7 70.1,41.4 
			69.8,41.1 69.6,40.8 69.4,40.4 69.2,40 69,39.5 68.9,39 68.9,38.5 68.9,37.9 69,37.2 69,37.2 69.1,36.9 69.1,36.6 69.2,36.3 
			69.3,36.1 69.4,35.8 69.5,35.5 69.6,35.3 69.7,35 69.8,34.8 69.9,34.6 70,34.4 70.2,34.2 70.3,34 70.5,33.8 70.6,33.6 70.8,33.5 
			70.9,33.3 71.1,33.2 71.3,33.1 71.5,32.9 71.7,32.8 71.9,32.7 72.1,32.6 72.3,32.5 72.6,32.5 72.8,32.4 73.1,32.4 73.3,32.3 
			73.6,32.3 73.8,32.2 74.1,32.2 74.4,32.2 74.4,32.2 74.7,32.2 74.9,32.2 75.1,32.3 75.3,32.3 75.6,32.3 75.8,32.4 75.9,32.4 
			76.1,32.5 76.3,32.5 76.5,32.5 76.6,32.6 76.7,32.6 76.8,32.7 76.9,32.7 77,32.7 77,32.7 76.7,34.8 		"/>
		<polygon class="st3" points="95.3,42.5 93.2,42.5 93.4,41.7 93.4,41.6 93.3,41.8 93.2,41.9 93,42 92.9,42.1 92.7,42.2 92.6,42.3 
			92.5,42.4 92.3,42.4 92.2,42.5 92,42.5 91.9,42.6 91.7,42.6 91.6,42.6 91.4,42.6 91.3,42.6 91.1,42.6 90.8,42.6 90.4,42.5 
			90.1,42.4 89.7,42.2 89.5,42 89.2,41.7 89,41.5 88.8,41.1 88.7,40.8 88.6,40.4 88.5,40.1 88.4,39.7 88.4,39.3 88.4,38.9 
			88.4,38.5 88.5,38.1 88.6,37.7 88.8,37.3 88.9,36.9 89.1,36.5 89.3,36.2 89.5,35.9 89.8,35.6 90,35.3 90.3,35.1 90.6,34.9 
			90.8,34.8 91.1,34.6 91.4,34.5 91.8,34.5 92.1,34.4 92.4,34.4 92.6,34.4 92.8,34.4 93,34.5 93.2,34.5 93.3,34.6 93.5,34.6 
			93.7,34.7 93.8,34.8 93.9,34.9 94,35 94.1,35.1 94.2,35.2 94.3,35.3 94.4,35.4 94.4,35.5 94.5,35.6 94.5,35.6 95,32.6 97.1,32.6 
			95.3,42.5 95.3,42.5 		"/>
		<polyline class="st4" points="95.3,42.5 93.2,42.5 93.4,41.7 93.4,41.6 93.4,41.6 93.3,41.8 93.2,41.9 93,42 92.9,42.1 92.7,42.2 
			92.6,42.3 92.5,42.4 92.3,42.4 92.2,42.5 92,42.5 91.9,42.6 91.7,42.6 91.6,42.6 91.4,42.6 91.3,42.6 91.1,42.6 91.1,42.6 
			90.8,42.6 90.4,42.5 90.1,42.4 89.7,42.2 89.5,42 89.2,41.7 89,41.5 88.8,41.1 88.7,40.8 88.6,40.4 88.5,40.1 88.4,39.7 
			88.4,39.3 88.4,38.9 88.4,38.5 88.5,38.1 88.5,38.1 88.6,37.7 88.8,37.3 88.9,36.9 89.1,36.5 89.3,36.2 89.5,35.9 89.8,35.6 
			90,35.3 90.3,35.1 90.6,34.9 90.8,34.8 91.1,34.6 91.4,34.5 91.8,34.5 92.1,34.4 92.4,34.4 92.4,34.4 92.6,34.4 92.8,34.4 
			93,34.5 93.2,34.5 93.3,34.6 93.5,34.6 93.7,34.7 93.8,34.8 93.9,34.9 94,35 94.1,35.1 94.2,35.2 94.3,35.3 94.4,35.4 94.4,35.5 
			94.5,35.6 94.5,35.6 95,32.6 97.1,32.6 95.3,42.5 		"/>
		<polygon class="st1" points="91.9,40.7 92.1,40.7 92.3,40.6 92.5,40.6 92.7,40.5 92.8,40.4 93,40.3 93.1,40.2 93.3,40 93.4,39.9 
			93.5,39.7 93.6,39.5 93.7,39.3 93.7,39.2 93.8,39 93.8,38.8 93.9,38.5 93.9,38.3 93.9,38.1 93.9,37.9 93.9,37.7 93.9,37.5 
			93.9,37.3 93.8,37.1 93.8,37 93.7,36.8 93.6,36.7 93.5,36.5 93.4,36.4 93.3,36.3 93.1,36.3 93,36.2 92.8,36.2 92.6,36.2 
			92.4,36.3 92.3,36.3 92.1,36.4 91.9,36.5 91.8,36.6 91.7,36.8 91.5,36.9 91.4,37.1 91.3,37.2 91.2,37.4 91.1,37.6 91,37.8 91,38 
			90.9,38.3 90.9,38.5 90.8,38.8 90.8,39.2 90.9,39.5 91,39.9 91.2,40.2 91.3,40.5 91.6,40.6 91.9,40.7 91.9,40.7 		"/>
		<polygon class="st3" points="45.3,40.8 45,42.5 43.1,42.5 43.1,42.2 43.2,41.9 43.2,41.7 43.2,41.6 43.1,41.7 43,41.8 42.9,42 
			42.7,42.1 42.5,42.2 42.3,42.3 42.1,42.4 41.9,42.4 41.7,42.5 41.5,42.6 41.3,42.6 41,42.6 40.8,42.6 40.6,42.7 40.4,42.6 
			40.2,42.6 39.9,42.5 39.7,42.5 39.5,42.4 39.3,42.2 39.1,42.1 39,42 38.8,41.8 38.7,41.7 38.6,41.5 38.5,41.4 38.5,41.2 38.5,41 
			38.4,40.9 38.4,40.7 38.4,40.5 38.4,40.3 38.4,40 38.5,39.8 38.5,39.5 38.6,39.2 38.7,39 38.9,38.8 39,38.6 39.2,38.4 39.4,38.2 
			39.6,38 39.8,37.9 40.1,37.8 40.3,37.7 40.6,37.6 40.8,37.5 41.1,37.5 41.1,37.5 41.1,37.5 41.2,37.5 41.3,37.5 41.4,37.4 
			41.5,37.4 41.6,37.4 41.7,37.4 41.8,37.4 42,37.4 42.1,37.4 42.2,37.3 42.3,37.3 42.5,37.3 42.6,37.3 42.7,37.3 42.8,37.3 
			43,37.3 43.2,37.3 43.3,37.3 43.5,37.3 43.6,37.4 43.7,37.4 43.7,37.4 43.7,37.3 43.8,37.2 43.8,37 43.8,36.9 43.8,36.7 
			43.7,36.5 43.6,36.4 43.5,36.3 43.3,36.2 43.2,36.1 43,36.1 42.8,36.1 42.6,36.1 42.4,36.1 42.1,36.1 41.9,36.1 41.6,36.1 
			41.4,36.1 41.2,36.1 40.9,36.2 40.7,36.2 40.5,36.2 40.3,36.3 40.1,36.3 39.9,36.3 39.8,36.4 39.7,36.4 39.6,36.5 40.1,34.7 
			40.3,34.6 40.5,34.5 40.7,34.5 40.8,34.4 41,34.4 41.2,34.4 41.4,34.3 41.6,34.3 41.8,34.3 42,34.3 42.3,34.3 42.5,34.3 
			42.8,34.3 43,34.3 43.3,34.3 43.5,34.3 43.8,34.3 44,34.4 44.2,34.4 44.5,34.5 44.7,34.6 44.9,34.7 45.2,34.8 45.4,35 45.5,35.1 
			45.7,35.3 45.9,35.5 46,35.7 46.1,36 46.1,36.2 46.1,36.5 46.1,36.8 45.3,40.8 45.3,40.8 		"/>
		<polyline class="st4" points="45.3,40.8 45,42.5 43.1,42.5 43.1,42.5 43.1,42.2 43.2,41.9 43.2,41.7 43.2,41.6 43.2,41.6 
			43.1,41.7 43,41.8 42.9,42 42.7,42.1 42.5,42.2 42.3,42.3 42.1,42.4 41.9,42.4 41.7,42.5 41.5,42.6 41.3,42.6 41,42.6 40.8,42.6 
			40.6,42.7 40.4,42.6 40.2,42.6 40.2,42.6 39.9,42.5 39.7,42.5 39.5,42.4 39.3,42.2 39.1,42.1 39,42 38.8,41.8 38.7,41.7 
			38.6,41.5 38.5,41.4 38.5,41.2 38.5,41 38.4,40.9 38.4,40.7 38.4,40.5 38.4,40.3 38.4,40.3 38.4,40 38.5,39.8 38.5,39.5 
			38.6,39.2 38.7,39 38.9,38.8 39,38.6 39.2,38.4 39.4,38.2 39.6,38 39.8,37.9 40.1,37.8 40.3,37.7 40.6,37.6 40.8,37.5 41.1,37.5 
			41.1,37.5 41.1,37.5 41.1,37.5 41.2,37.5 41.3,37.5 41.4,37.4 41.5,37.4 41.6,37.4 41.7,37.4 41.8,37.4 42,37.4 42.1,37.4 
			42.2,37.3 42.3,37.3 42.5,37.3 42.6,37.3 42.7,37.3 42.7,37.3 42.8,37.3 43,37.3 43.2,37.3 43.3,37.3 43.5,37.3 43.6,37.4 
			43.7,37.4 43.7,37.4 43.7,37.4 43.7,37.3 43.8,37.2 43.8,37 43.8,36.9 43.8,36.9 43.8,36.7 43.7,36.5 43.6,36.4 43.5,36.3 
			43.3,36.2 43.2,36.1 43,36.1 42.8,36.1 42.8,36.1 42.6,36.1 42.4,36.1 42.1,36.1 41.9,36.1 41.6,36.1 41.4,36.1 41.2,36.1 
			40.9,36.2 40.7,36.2 40.5,36.2 40.3,36.3 40.1,36.3 39.9,36.3 39.8,36.4 39.7,36.4 39.6,36.5 40.1,34.7 40.1,34.7 40.3,34.6 
			40.5,34.5 40.7,34.5 40.8,34.4 41,34.4 41.2,34.4 41.4,34.3 41.6,34.3 41.8,34.3 42,34.3 42.3,34.3 42.5,34.3 42.8,34.3 43,34.3 
			43.3,34.3 43.5,34.3 43.5,34.3 43.8,34.3 44,34.4 44.2,34.4 44.5,34.5 44.7,34.6 44.9,34.7 45.2,34.8 45.4,35 45.5,35.1 
			45.7,35.3 45.9,35.5 46,35.7 46.1,36 46.1,36.2 46.1,36.5 46.1,36.8 45.3,40.8 		"/>
		<polygon class="st2" points="43.5,38.9 43.5,38.8 43.4,38.8 43.4,38.8 43.3,38.7 43.2,38.7 43.1,38.7 43,38.7 42.9,38.7 
			42.8,38.7 42.6,38.7 42.5,38.8 42.4,38.8 42.3,38.8 42.2,38.8 42.1,38.8 42,38.9 42,38.9 41.9,38.9 41.8,38.9 41.7,39 41.6,39 
			41.5,39.1 41.4,39.1 41.3,39.2 41.2,39.3 41.1,39.3 41,39.4 40.9,39.5 40.9,39.6 40.8,39.7 40.8,39.8 40.8,40 40.7,40.2 
			40.8,40.4 40.8,40.6 41,40.7 41.1,40.8 41.2,40.8 41.3,40.8 41.4,40.8 41.7,40.8 41.9,40.8 42.1,40.8 42.2,40.7 42.4,40.7 
			42.5,40.6 42.7,40.5 42.8,40.5 42.9,40.4 43,40.3 43,40.2 43.1,40.1 43.2,40 43.2,39.9 43.2,39.9 43.3,39.8 43.3,39.5 43.4,39.3 
			43.4,39.1 43.5,38.9 43.5,38.9 		"/>
		<polygon class="st3" points="29.3,42.5 27.3,42.5 29,32.6 32.6,32.6 32.9,38.5 35.4,32.6 39.1,32.6 37.4,42.5 35.3,42.5 
			36.6,35.1 36.5,35.1 33.5,42.5 31.1,42.5 31.1,42.2 31,41.4 31,40.2 30.9,38.9 30.8,37.5 30.8,36.3 30.7,35.4 30.7,35.1 
			30.7,35.1 30.6,35.1 30.6,35.1 30.6,35.1 29.3,42.5 29.3,42.5 		"/>
		<polyline class="st4" points="29.3,42.5 27.3,42.5 29,32.6 32.6,32.6 32.9,38.5 35.4,32.6 39.1,32.6 37.4,42.5 35.3,42.5 
			36.6,35.1 36.5,35.1 33.5,42.5 31.1,42.5 31.1,42.5 31.1,42.2 31,41.4 31,40.2 30.9,38.9 30.8,37.5 30.8,36.3 30.7,35.4 
			30.7,35.1 30.7,35.1 30.7,35.1 30.6,35.1 30.6,35.1 30.6,35.1 29.3,42.5 		"/>
		<polygon class="st3" points="83,40.8 82.7,42.5 80.8,42.5 80.8,42.2 80.8,41.9 80.8,41.7 80.8,41.6 80.7,41.8 80.6,41.9 80.4,42 
			80.3,42.1 80.1,42.2 79.9,42.3 79.8,42.4 79.6,42.4 79.4,42.5 79.2,42.6 78.9,42.6 78.7,42.6 78.5,42.6 78.3,42.7 78.1,42.6 
			77.9,42.6 77.6,42.5 77.4,42.5 77.2,42.4 76.9,42.2 76.8,42.1 76.6,42 76.5,41.8 76.4,41.7 76.3,41.5 76.3,41.4 76.2,41.2 
			76.2,41 76.1,40.9 76.1,40.7 76.1,40.5 76.1,40.3 76.1,40 76.2,39.8 76.2,39.5 76.3,39.2 76.4,39 76.6,38.8 76.7,38.6 76.9,38.4 
			77.1,38.2 77.3,38 77.5,37.9 77.8,37.8 78,37.7 78.2,37.6 78.5,37.5 78.8,37.5 78.8,37.5 78.8,37.5 78.9,37.5 78.9,37.5 79,37.4 
			79.2,37.4 79.3,37.4 79.4,37.4 79.5,37.4 79.7,37.4 79.8,37.4 79.9,37.3 80,37.3 80.1,37.3 80.2,37.3 80.3,37.3 80.5,37.3 
			80.7,37.3 80.9,37.3 81,37.3 81.2,37.3 81.3,37.4 81.4,37.4 81.4,37.4 81.4,37.3 81.4,37.2 81.4,37 81.5,36.9 81.4,36.7 
			81.4,36.5 81.3,36.4 81.2,36.3 81,36.2 80.9,36.1 80.7,36.1 80.5,36.1 80.3,36.1 80.1,36.1 79.8,36.1 79.6,36.1 79.3,36.1 
			79.1,36.1 78.9,36.1 78.6,36.2 78.4,36.2 78.2,36.2 78,36.3 77.8,36.3 77.6,36.3 77.5,36.4 77.4,36.4 77.3,36.5 77.8,34.7 
			78,34.6 78.2,34.5 78.4,34.5 78.5,34.4 78.7,34.4 78.9,34.4 79.1,34.3 79.3,34.3 79.5,34.3 79.8,34.3 80,34.3 80.2,34.3 
			80.4,34.3 80.7,34.3 80.9,34.3 81.2,34.3 81.4,34.3 81.7,34.4 81.9,34.4 82.1,34.5 82.4,34.6 82.6,34.7 82.8,34.8 83,35 
			83.2,35.1 83.4,35.3 83.6,35.5 83.7,35.7 83.8,36 83.8,36.2 83.8,36.5 83.8,36.8 83,40.8 83,40.8 		"/>
		<polygon class="st3" points="82.7,42.6 82.7,42.5 83,40.8 82.9,40.8 82.6,42.5 82.7,42.5 82.7,42.6 82.7,42.6 82.7,42.5 
			82.7,42.6 82.7,42.6 		"/>
		<polygon class="st3" points="80.7,42.5 80.8,42.6 82.7,42.6 82.7,42.5 80.8,42.5 80.8,42.5 80.7,42.5 80.7,42.6 80.8,42.6 
			80.7,42.5 80.7,42.5 		"/>
		<polygon class="st3" points="80.8,41.7 80.8,41.6 80.7,41.7 80.7,41.9 80.7,42.2 80.7,42.5 80.8,42.5 80.8,42.2 80.8,41.9 
			80.8,41.7 80.8,41.7 80.8,41.6 80.8,41.7 80.8,41.7 		"/>
		<polygon class="st3" points="77.9,42.6 77.9,42.6 78.1,42.7 78.3,42.7 78.5,42.7 78.7,42.7 78.9,42.6 79.2,42.6 79.4,42.5 
			79.6,42.5 79.8,42.4 80,42.3 80.2,42.2 80.3,42.1 80.5,42 80.6,41.9 80.7,41.8 80.8,41.7 80.8,41.6 80.7,41.7 80.6,41.8 
			80.4,41.9 80.3,42 80.1,42.1 79.9,42.2 79.7,42.3 79.6,42.4 79.3,42.5 79.1,42.5 78.9,42.6 78.7,42.6 78.5,42.6 78.3,42.6 
			78.1,42.6 77.9,42.6 77.9,42.6 77.9,42.6 77.9,42.6 		"/>
		<polygon class="st3" points="76,40.3 76,40.3 76,40.5 76.1,40.7 76.1,40.9 76.1,41 76.2,41.2 76.2,41.4 76.3,41.6 76.4,41.7 
			76.5,41.9 76.6,42 76.8,42.2 76.9,42.3 77.1,42.4 77.3,42.5 77.6,42.6 77.9,42.6 77.9,42.6 77.6,42.5 77.4,42.4 77.2,42.3 
			77,42.2 76.8,42.1 76.7,42 76.6,41.8 76.4,41.7 76.4,41.5 76.3,41.3 76.2,41.2 76.2,41 76.2,40.8 76.2,40.7 76.1,40.5 76.1,40.3 
			76.1,40.3 76,40.3 76,40.3 		"/>
		<polygon class="st3" points="78.8,37.4 78.8,37.4 78.5,37.5 78.2,37.5 78,37.6 77.7,37.7 77.5,37.9 77.3,38 77.1,38.2 76.9,38.3 
			76.7,38.5 76.5,38.8 76.4,39 76.3,39.2 76.2,39.5 76.1,39.8 76.1,40 76,40.3 76.1,40.3 76.2,40 76.2,39.8 76.3,39.5 76.4,39.3 
			76.5,39 76.6,38.8 76.8,38.6 76.9,38.4 77.1,38.2 77.3,38.1 77.6,37.9 77.8,37.8 78,37.7 78.3,37.6 78.5,37.6 78.8,37.5 
			78.8,37.5 78.8,37.4 78.8,37.4 		"/>
		<polygon class="st3" points="80.3,37.3 80.3,37.3 80.2,37.3 80.1,37.3 80,37.3 79.9,37.3 79.8,37.3 79.7,37.3 79.5,37.3 
			79.4,37.4 79.3,37.4 79.2,37.4 79,37.4 78.9,37.4 78.9,37.4 78.8,37.4 78.8,37.4 78.8,37.4 78.8,37.5 78.8,37.5 78.8,37.5 
			78.9,37.5 78.9,37.5 79,37.5 79.2,37.5 79.3,37.5 79.4,37.4 79.5,37.4 79.7,37.4 79.8,37.4 79.9,37.4 80,37.4 80.1,37.4 
			80.2,37.4 80.3,37.4 80.3,37.4 80.3,37.3 80.3,37.3 		"/>
		<polygon class="st3" points="81.3,37.4 81.4,37.3 81.4,37.3 81.3,37.3 81.2,37.3 81,37.3 80.9,37.3 80.7,37.3 80.5,37.3 
			80.3,37.3 80.3,37.4 80.5,37.4 80.7,37.4 80.9,37.4 81,37.4 81.2,37.4 81.3,37.4 81.4,37.4 81.4,37.4 81.4,37.4 81.4,37.4 
			81.4,37.4 81.4,37.4 81.3,37.4 81.3,37.4 		"/>
		<polygon class="st3" points="81.4,36.9 81.4,36.9 81.4,37 81.4,37.2 81.4,37.3 81.3,37.4 81.4,37.4 81.4,37.3 81.5,37.2 81.5,37 
			81.5,36.9 81.5,36.9 81.4,36.9 81.4,36.9 		"/>
		<polygon class="st3" points="80.5,36.1 80.5,36.1 80.7,36.1 80.9,36.2 81,36.2 81.1,36.3 81.2,36.4 81.3,36.6 81.4,36.7 
			81.4,36.9 81.5,36.9 81.5,36.7 81.4,36.5 81.3,36.4 81.2,36.3 81.1,36.2 80.9,36.1 80.7,36 80.5,36 80.5,36 80.5,36.1 80.5,36.1 
					"/>
		<polygon class="st3" points="77.3,36.5 77.3,36.5 77.4,36.5 77.5,36.4 77.6,36.4 77.8,36.3 78,36.3 78.2,36.3 78.4,36.2 
			78.6,36.2 78.9,36.2 79.1,36.1 79.3,36.1 79.6,36.1 79.8,36.1 80.1,36.1 80.3,36.1 80.5,36.1 80.5,36 80.3,36 80.1,36 79.8,36 
			79.6,36 79.3,36 79.1,36.1 78.9,36.1 78.6,36.1 78.4,36.1 78.2,36.2 78,36.2 77.8,36.3 77.6,36.3 77.5,36.3 77.4,36.4 77.3,36.5 
			77.4,36.5 77.3,36.5 77.3,36.5 		"/>
		<polygon class="st3" points="77.8,34.6 77.8,34.7 77.3,36.5 77.4,36.5 77.9,34.7 77.9,34.7 77.8,34.6 77.8,34.6 77.8,34.7 
			77.8,34.6 77.8,34.6 		"/>
		<polygon class="st3" points="81.2,34.3 81.2,34.3 80.9,34.3 80.7,34.2 80.4,34.2 80.2,34.2 80,34.2 79.8,34.3 79.5,34.3 
			79.3,34.3 79.1,34.3 78.9,34.3 78.7,34.4 78.5,34.4 78.3,34.4 78.2,34.5 78,34.5 77.8,34.6 77.9,34.7 78,34.6 78.2,34.6 
			78.4,34.5 78.6,34.5 78.7,34.4 78.9,34.4 79.1,34.4 79.3,34.4 79.5,34.4 79.8,34.3 80,34.3 80.2,34.3 80.4,34.3 80.7,34.3 
			80.9,34.4 81.2,34.4 81.2,34.4 81.2,34.3 81.2,34.3 		"/>
		<polygon class="st3" points="83.8,36.8 83.8,36.8 83.8,36.5 83.8,36.2 83.8,36 83.7,35.7 83.6,35.5 83.4,35.3 83.2,35.1 
			83.1,34.9 82.8,34.8 82.6,34.6 82.4,34.5 82.1,34.4 81.9,34.4 81.7,34.3 81.4,34.3 81.2,34.3 81.2,34.4 81.4,34.4 81.6,34.4 
			81.9,34.5 82.1,34.5 82.3,34.6 82.6,34.7 82.8,34.8 83,35 83.2,35.2 83.4,35.3 83.5,35.5 83.6,35.8 83.7,36 83.8,36.2 83.8,36.5 
			83.7,36.8 83.7,36.8 83.8,36.8 83.8,36.8 		"/>
		<polygon class="st3" points="83,40.8 83,40.8 83.8,36.8 83.7,36.8 82.9,40.8 82.9,40.8 83,40.8 83,40.8 		"/>
		<polygon class="st1" points="81.1,38.9 81.1,38.8 81.1,38.8 81,38.8 80.9,38.7 80.9,38.7 80.8,38.7 80.7,38.7 80.6,38.7 
			80.4,38.7 80.3,38.8 80.2,38.8 80.1,38.8 79.9,38.8 79.8,38.8 79.8,38.8 79.7,38.9 79.6,38.9 79.6,38.9 79.5,38.9 79.4,38.9 
			79.3,39 79.2,39 79.1,39.1 79,39.2 78.9,39.2 78.8,39.3 78.7,39.4 78.7,39.5 78.6,39.6 78.5,39.7 78.5,39.8 78.5,40 78.4,40.2 
			78.5,40.4 78.6,40.6 78.6,40.7 78.8,40.8 78.9,40.8 79,40.8 79.1,40.8 79.4,40.8 79.6,40.8 79.8,40.8 79.9,40.7 80.1,40.7 
			80.3,40.6 80.4,40.5 80.5,40.4 80.6,40.3 80.7,40.2 80.8,40.1 80.9,40 80.9,40 81,39.9 81,39.8 81,39.7 81.1,39.5 81.1,39.3 
			81.1,39 81.1,38.9 81.1,38.9 		"/>
		<path class="st3" d="M98.2,41.4"/>
		<path class="st4" d="M97.8,42.6 M98.7,42.1 M98.9,41.3 M98.2,41.2L98.2,41.2L98.2,41.2L98.2,41.2L98.2,41.2 M98,41.1L98,41.1
			L98,41.1L98,41.1L98,41.1L98,41.1L98,41.1L98,41.1L98,41.1L98,41.1 M97.8,41.1L97.8,41.1"/>
		<polygon class="st3" points="83.5,42.5 85.7,42.5 85.7,42.5 86.4,38.2 86.5,38 86.5,37.9 86.6,37.7 86.6,37.5 86.7,37.4 
			86.8,37.2 86.9,37.1 87,36.9 87.2,36.8 87.3,36.7 87.5,36.5 87.7,36.5 87.9,36.4 88.1,36.3 88.4,36.3 88.7,36.3 88.8,36.3 
			88.9,36.3 88.9,36.3 88.9,36.3 89.2,34.3 89,34.3 88.8,34.3 88.6,34.4 88.4,34.4 88.3,34.5 88.1,34.6 88,34.7 87.8,34.8 
			87.7,34.9 87.6,35 87.4,35.1 87.3,35.2 87.2,35.3 87.1,35.5 87,35.6 86.9,35.8 87.1,34.4 84.9,34.4 83.5,42.5 83.5,42.5 
			83.5,42.5 		"/>
		<polyline class="st4" points="83.5,42.5 85.7,42.5 85.7,42.5 86.4,38.2 86.4,38.2 86.5,38 86.5,37.9 86.6,37.7 86.6,37.5 
			86.7,37.4 86.8,37.2 86.9,37.1 87,36.9 87.2,36.8 87.3,36.7 87.5,36.5 87.7,36.5 87.9,36.4 88.1,36.3 88.4,36.3 88.7,36.3 
			88.7,36.3 88.8,36.3 88.9,36.3 88.9,36.3 88.9,36.3 89.2,34.3 89.2,34.3 89,34.3 88.8,34.3 88.6,34.4 88.4,34.4 88.3,34.5 
			88.1,34.6 88,34.7 87.8,34.8 87.7,34.9 87.6,35 87.4,35.1 87.3,35.2 87.2,35.3 87.1,35.5 87,35.6 86.9,35.8 87.1,34.4 84.9,34.4 
			83.5,42.5 83.5,42.5 		"/>
		<polygon class="st3" points="63.4,42.5 65.6,42.5 65.6,42.5 66.3,38.2 66.4,38 66.4,37.9 66.4,37.7 66.5,37.6 66.6,37.4 
			66.6,37.3 66.7,37.1 66.8,37 67,36.9 67.1,36.8 67.3,36.7 67.4,36.6 67.7,36.5 67.9,36.5 68.2,36.4 68.4,36.4 68.5,36.4 
			68.5,36.4 68.5,36.4 68.6,36.4 68.6,36.4 68.6,36.4 68.7,36.5 68.7,36.5 68.7,36.4 68.7,36.3 68.7,36.2 68.8,36 68.8,35.8 
			68.9,35.6 68.9,35.4 69,35.2 69.1,35 69.2,34.9 69.2,34.8 69.3,34.6 69.4,34.5 69.4,34.4 69.5,34.4 69.5,34.3 69.5,34.3 
			69.4,34.3 69.4,34.3 69.3,34.3 69.3,34.3 69.2,34.3 69.2,34.3 69.1,34.3 68.9,34.3 68.7,34.3 68.5,34.4 68.3,34.4 68.1,34.5 
			68,34.6 67.8,34.6 67.7,34.7 67.6,34.8 67.4,34.9 67.3,35.1 67.2,35.2 67.1,35.3 67,35.5 66.9,35.6 66.8,35.8 67,34.4 64.9,34.4 
			63.4,42.5 63.4,42.5 63.4,42.5 		"/>
		<polyline class="st4" points="63.4,42.5 65.6,42.5 65.6,42.5 66.3,38.2 66.3,38.2 66.4,38 66.4,37.9 66.4,37.7 66.5,37.6 
			66.6,37.4 66.6,37.3 66.7,37.1 66.8,37 67,36.9 67.1,36.8 67.3,36.7 67.4,36.6 67.7,36.5 67.9,36.5 68.2,36.4 68.4,36.4 
			68.4,36.4 68.5,36.4 68.5,36.4 68.5,36.4 68.6,36.4 68.6,36.4 68.6,36.4 68.7,36.5 68.7,36.5 68.7,36.5 68.7,36.4 68.7,36.3 
			68.7,36.2 68.8,36 68.8,35.8 68.9,35.6 68.9,35.4 69,35.2 69,35.2 69.1,35 69.2,34.9 69.2,34.8 69.3,34.6 69.4,34.5 69.4,34.4 
			69.5,34.4 69.5,34.3 69.5,34.3 69.5,34.3 69.4,34.3 69.4,34.3 69.3,34.3 69.3,34.3 69.2,34.3 69.2,34.3 69.1,34.3 69.1,34.3 
			68.9,34.3 68.7,34.3 68.5,34.4 68.3,34.4 68.1,34.5 68,34.6 67.8,34.6 67.7,34.7 67.6,34.8 67.4,34.9 67.3,35.1 67.2,35.2 
			67.1,35.3 67,35.5 66.9,35.6 66.8,35.8 67,34.4 64.9,34.4 63.4,42.5 63.4,42.5 		"/>
		<path class="st3" d="M63.7,36.8l-0.1-0.5L63.5,36l-0.2-0.3l-0.2-0.3L62.9,35l-0.2-0.2l-0.3-0.2l-0.3-0.1l-0.3-0.1l-0.3-0.1h-0.3
			h-0.3h-0.3H60l-0.5,0.1l-0.5,0.1l-0.4,0.2L58.1,35l-0.3,0.2l-0.3,0.3l-0.2,0.3L57,36.1l-0.2,0.3l-0.1,0.3l-0.1,0.3l-0.1,0.3
			l-0.1,0.3V38v0.2v0.6v0.6l0.1,0.5l0.1,0.5l0.2,0.4l0.2,0.3l0.3,0.3l0.3,0.3l0.3,0.2l0.3,0.2l0.4,0.2l0.4,0.1l0.4,0.1h0.4h0.4h1.4
			h0.2h0.2H62h0.1h0.1h0.1h0.1h0.1h0.1l0.1-0.1l0.1-0.1l0.3-1.9l-0.2,0.1l-0.2,0.1l-0.2,0.1l-0.2,0.1l-0.2,0.1H62h-0.2h-0.2h-0.2
			h-0.6h-0.2h-0.2h-0.2H60h-0.2l-0.2-0.3l-0.2-0.1l-0.1-0.1l-0.1-0.1l-0.1-0.1L59,40.2l-0.1-0.1L58.8,40l-0.1-0.2l-0.1-0.1v-0.1
			v-0.1v-0.3V39h4.9v-0.5l0.1-0.6l0.1-0.6L63.7,36.8z M61.6,37.5h-2.8v-0.1v-0.2v-0.2l0.1-0.2l0.1-0.1l0.1-0.1l0.1-0.1l0.1-0.1
			l0.1-0.1l0.1-0.1l0.1-0.1l0.1-0.1l0.1-0.1h0.1H60h0.1h0.1h0.1h0.1h0.1h0.1l0.1,0.1l0.1,0.1l0.1,0.1l0.1,0.1l0.1,0.1l0.1,0.1l0,0.1
			l0.1,0.2V37v0.3L61.6,37.5z"/>
	</g>
</g>
</svg>
