<?xml version="1.0" encoding="UTF-8"?>
<svg width="126px" height="79px" viewBox="0 0 126 79" version="1.1" xmlns="http://www.w3.org/2000/svg" xmlns:xlink="http://www.w3.org/1999/xlink">
    <!-- Generator: Sketch 50.2 (55047) - http://www.bohemiancoding.com/sketch -->
    <title>PAGSEGURO@2x</title>
    <desc>Created with Sketch.</desc>
    <defs></defs>
    <g id="Page-1" stroke="none" stroke-width="1" fill="none" fill-rule="evenodd">
        <g id="PAGSEGURO">
            <rect id="Rectangle-path-Copy-13" fill="#F1F2F2" fill-rule="nonzero" x="0" y="0" width="125.43" height="78.39" rx="4.18"></rect>
            <g id="Group-2" transform="translate(9.000000, 27.000000)">
                <path d="M32.8860759,12.3501105 C34.1505063,11.2866464 34.1364557,9.3560442 33.2683544,8.80162983 C32.4007595,8.24721547 30.4383544,8.68955249 29.7988608,10.275663 C29.1601266,11.8620276 29.1082278,12.8291713 28.7583544,13.6922431 C29.4901266,13.6382376 31.6216456,13.4137017 32.8860759,12.3501105 Z M24.6124051,18.4607403 C25.8536709,14.675779 27.0355696,10.8351602 27.9277215,6.87356906 C28.6237975,6.87356906 29.4182278,6.89034254 30.1140506,6.89034254 L29.8511392,8.38610497 C31.6181013,7.23534254 32.7816456,6.93710497 33.94,7.03228177 C38.1288608,7.37601105 35.8767089,12.9010939 33.6629114,14.2291215 C32.3641772,15.0085801 30.6043038,15.3561215 28.1735443,15.0093425 C27.886962,16.1599779 27.6003797,17.3103591 27.3140506,18.4607403 C26.4134177,18.4607403 25.513038,18.4607403 24.6124051,18.4607403 Z" id="Fill-1" fill="#1C1B19"></path>
                <path d="M40.3713924,9.71756354 C39.2717722,10.7807735 39.2839241,12.7116298 40.0389873,13.2659171 C40.7935443,13.8204586 42.5010127,13.3781215 43.056962,11.791884 C43.6129114,10.2056464 43.6579747,9.23862983 43.9621519,8.37543094 C43.3258228,8.42943646 41.4711392,8.65409945 40.3713924,9.71756354 Z M45.0918987,15.2163425 C44.3037975,15.2163425 43.6148101,15.2326077 42.8267089,15.2326077 L42.9736709,13.5187901 C41.3539241,15.0554696 38.7283544,16.0711547 37.5239241,14.6229171 C35.8740506,12.3601492 37.4368354,9.41716575 39.2963291,8.20833149 C41.3602532,6.8661989 44.1008861,6.93583425 46.8316456,6.87776243 C45.8539241,9.60535912 45.1972152,12.4017017 45.0918987,15.2163425 Z" id="Fill-2" fill="#1C1B19"></path>
                <path d="M50.1418987,9.71756354 C49.0418987,10.7807735 49.0541772,12.7116298 49.8092405,13.2659171 C50.5644304,13.8204586 52.2716456,13.3781215 52.8275949,11.791884 C53.3835443,10.2056464 53.4287342,9.23862983 53.7327848,8.37543094 C53.0963291,8.42943646 51.2420253,8.65409945 50.1418987,9.71756354 Z M45.9897468,18.5247845 L46.3859494,16.4092928 C48.1465823,16.9820055 49.6746835,17.257116 50.8226582,16.6789392 C51.7160759,16.229105 52.3798734,15.2627238 52.7443038,13.5187901 C51.1248101,15.0554696 48.4988608,16.0711547 47.2946835,14.6229171 C45.6443038,12.3601492 47.2072152,9.41716575 49.066962,8.20833149 C51.1310127,6.8661989 53.871519,6.93583425 56.6026582,6.87776243 C55.7567089,9.23672376 55.7410127,12.9388343 54.6181013,15.5730331 C54.025443,16.9639613 53.0292405,17.856895 51.8372152,18.3679779 C50.0939241,19.1149061 47.9307595,19.0464144 45.9897468,18.5247845 Z" id="Fill-3" fill="#1C1B19"></path>
                <path d="M77.1960759,9.71756354 C76.0965823,10.7807735 76.1086076,12.7116298 76.863038,13.2659171 C77.6186076,13.8204586 79.3256962,13.3781215 79.8820253,11.791884 C80.4377215,10.2056464 80.4829114,9.23862983 80.7870886,8.37543094 C80.1503797,8.42943646 78.2963291,8.65409945 77.1960759,9.71756354 Z M57.0207595,13.1379558 C56.7577215,13.7082541 56.4629114,14.3117182 56.2008861,14.8820166 C59.4037975,15.5818011 61.8562025,15.1597956 62.8235443,14.1253039 C63.7686076,12.9553536 63.6101266,11.6311381 61.9712658,10.6686961 C61.6217722,10.4252265 60.6341772,9.93396685 60.6596203,9.35261326 C60.7060759,8.02979558 62.7096203,8.34442541 63.9392405,8.72716575 L64.3317722,6.91651934 C63.4724051,6.71625414 62.3811392,6.65665746 61.5044304,6.74293923 C60.436962,6.84777348 59.288481,7.31120442 58.3979747,8.20007182 C57.7063291,8.92107735 57.5637975,9.89279558 57.8172152,10.4839337 C58.1212658,11.1928674 59.1077215,11.4909779 59.6107595,11.7871823 C60.4524051,12.1807238 60.9536709,12.4780718 60.8111392,13.0765801 C60.691519,13.5791492 60.0813924,13.9902265 58.9898734,13.7947901 C58.3118987,13.6730552 57.52,13.4307293 57.0207595,13.1379558 Z M67.5620253,10.3731271 C67.9574684,9.49417127 68.6272152,8.60504972 69.9882278,8.43096133 C71.0597468,8.32663536 71.1740506,9.46037017 70.544557,9.89635359 C69.4012658,10.3910442 69.2735443,9.71311602 67.5620253,10.3731271 Z M72.0040506,13.3023867 C71.9387342,13.8507017 71.7416456,14.3991436 71.6767089,14.9479669 C69.1305063,15.2989392 66.3981013,15.8907127 64.9875949,13.8949227 C63.5282278,11.0693536 65.6334177,8.48153591 67.4794937,7.50943646 C70.7203797,6.05014365 72.9713924,6.79325967 73.446962,8.23349171 C74.4077215,10.7598066 71.4363291,12.4266077 67.1516456,11.9198453 C66.7049367,14.1164088 68.9406329,14.0834972 72.0040506,13.3023867 Z M85.4472152,6.85107735 C86.2337975,6.87306077 87.0211392,6.89517127 87.8075949,6.91702762 C87.3918987,8.67227072 86.7143038,10.3618177 86.2994937,12.1171878 C85.6843038,14.2527569 88.2212658,14.0306354 89.3156962,12.7097238 C90.2903797,10.9894254 90.7263291,8.92539779 91.3491139,6.85107735 C92.1356962,6.85107735 92.9225316,6.85107735 93.7093671,6.85107735 C92.8183544,9.59392265 92.0422785,12.3366409 91.6764557,15.0797403 C90.9772152,15.0357735 90.1462025,14.9918066 89.4473418,14.9479669 C89.4692405,14.5088066 89.4905063,14.0702818 89.5127848,13.6311215 C87.1474684,15.8125635 83.2544304,16.388326 83.7418987,12.7097238 C84.0217722,10.7566298 84.8110127,8.80391713 85.4472152,6.85107735 Z M93.1193671,14.9479669 C94.1736709,12.2591271 94.8835443,8.82767956 95.4141772,6.91702762 L97.3160759,6.91702762 L97.25,8.62855801 C98.0807595,7.47639779 99.5889873,6.84040331 101.11962,6.91702762 L100.398101,9.08932044 C98.4956962,8.83873481 97.1550633,10.3666464 96.4135443,12.8918177 C96.2248101,13.5348011 96.0741772,14.2432265 95.9641772,15.0028619 L93.1193671,14.9479669 Z M102.82481,7.93716022 C100.42,9.5549116 99.455443,12.2816188 100.671392,14.026442 C101.887342,15.7711381 104.823544,15.8744475 107.227848,14.2569503 C109.632911,12.639453 110.597089,9.91261878 109.382025,8.16766851 C108.165443,6.4228453 105.229873,6.31979006 102.82481,7.93716022 Z M103.516835,10.419 C102.740253,11.8122155 102.837848,13.290442 103.734684,13.7196906 C104.631519,14.1486851 105.988228,13.366558 106.765316,11.9729613 C107.542025,10.5793646 107.444937,9.10164641 106.547595,8.67227072 C105.650759,8.24314917 104.293544,9.0250221 103.516835,10.419 Z M73.0440506,18.5247845 L73.4402532,16.4092928 C75.2005063,16.9820055 76.7287342,17.257116 77.8770886,16.6789392 C78.7698734,16.229105 79.4337975,15.2627238 79.7981013,13.5187901 C78.1787342,15.0554696 75.5529114,16.0711547 74.3488608,14.6229171 C72.698481,12.3601492 74.2616456,9.41716575 76.1208861,8.20833149 C78.1846835,6.8661989 80.9259494,6.93583425 83.6567089,6.87776243 C82.8107595,9.23672376 82.7950633,12.9388343 81.6718987,15.5730331 C81.0791139,16.9639613 80.0836709,17.856895 78.8913924,18.3679779 C77.1481013,19.1149061 74.984557,19.0464144 73.0440506,18.5247845 Z" id="Fill-4" fill="#9DC73D"></path>
                <path d="M2.61898734,3.94685083 C1.79898734,4.91450276 1.18063291,6.01481768 0.72835443,7.21856906 C0.253544304,8.47060773 0,9.75720994 0,11.1292044 C0,12.6838011 0.330632911,14.1239061 0.89835443,15.4844641 C1.46417722,16.8348564 2.23772152,17.9959116 3.25582278,19.0161713 C4.24620253,20.01 5.4064557,20.8052155 6.7478481,21.3841547 C8.08911392,21.9717348 9.54696203,22.2955138 11.0593671,22.2955138 C12.5973418,22.2955138 14.0318987,21.9858398 15.3973418,21.3841547 C16.7036709,20.8118232 17.8822785,20.0290608 18.8894937,19.0161713 C19.8872152,18.0129392 20.656962,16.8278674 21.2098734,15.4844641 C21.7907595,14.109674 22.1196203,12.6838011 22.1196203,11.1292044 C22.1196203,9.75720994 21.8637975,8.47060773 21.3905063,7.21856906 C20.9274684,6.01481768 20.3146835,4.93813812 19.5003797,3.94685083 C18.685443,2.97729282 17.7424051,2.17458011 16.6739241,1.55396133 C14.9956962,0.581480663 13.2643038,0 11.2578481,0 C11.1607595,0 11.0655696,0 10.9701266,0 C8.98987342,0 7.1756962,0.56940884 5.46974684,1.55396133 C4.38974684,2.16987845 3.43721519,2.98110497 2.61898734,3.94685083" id="Fill-5" fill="#1C1B19"></path>
                <path d="M102.281646,19.0154088 C102.562405,19.0154088 102.785696,19.105884 102.951772,19.3064033 C103.120253,19.497011 103.210633,19.7434033 103.210633,20.0689613 C103.210633,20.3706298 103.120253,20.6301105 102.951772,20.8102983 C102.785696,20.9974751 102.562405,21.0879503 102.281646,21.0879503 C102.005823,21.0879503 101.791899,21.0015414 101.626076,20.8102983 C101.446456,20.6301105 101.367468,20.3706298 101.367468,20.0689613 C101.367468,19.7434033 101.446456,19.497011 101.626076,19.3064033 C101.791899,19.105884 102.005823,19.0154088 102.281646,19.0154088 Z M102.281646,17.1788398 C101.871392,17.1788398 101.492278,17.2445359 101.132658,17.3902873 C100.777089,17.536547 100.463418,17.7364309 100.197342,18.0073481 C99.9286076,18.2772486 99.7177215,18.5791713 99.5825316,18.9255691 C99.4374684,19.2756519 99.3727848,19.6566133 99.3727848,20.0689613 C99.3727848,20.4603425 99.4374684,20.841558 99.5825316,21.191768 C99.7177215,21.5243149 99.9286076,21.8404696 100.197342,22.110116 C100.477468,22.3664199 100.787722,22.5778674 101.146709,22.7233646 C101.492278,22.858442 101.882025,22.937989 102.281646,22.937989 C102.696835,22.937989 103.065823,22.858442 103.43557,22.7233646 C103.780253,22.5778674 104.101392,22.3664199 104.370886,22.110116 C104.649494,21.8404696 104.850253,21.5243149 104.995823,21.1774088 C105.140506,20.8311381 105.209241,20.4608508 105.209241,20.0689613 C105.209241,19.6566133 105.140506,19.2756519 104.995823,18.9255691 C104.861139,18.5791713 104.66038,18.2772486 104.380633,18.0073481 C104.115443,17.7364309 103.79038,17.536547 103.43557,17.3902873 C103.076582,17.2445359 102.696835,17.1788398 102.281646,17.1788398 Z" id="Fill-6" fill="#1C1B19"></path>
                <path d="M98.4682278,21.2472983 C98.5131646,20.9868011 98.5326582,20.6649282 98.5326582,20.2702431 L98.5326582,17.2996851 L96.5689873,17.2996851 L96.5689873,20.2941326 C96.5689873,20.6301105 96.534557,20.8659558 96.4451899,21.0118343 C96.3556962,21.1466575 96.224557,21.2122265 96.0201266,21.2122265 C95.8201266,21.2122265 95.6863291,21.1466575 95.5994937,21.0118343 C95.52,20.8864144 95.4749367,20.6412928 95.4749367,20.2941326 L95.4749367,17.2996851 L93.5220253,17.2996851 L93.5220253,20.2702431 C93.5106329,20.6856409 93.5450633,21.0015414 93.5901266,21.2472983 C93.631519,21.5037293 93.7220253,21.7045028 93.8216456,21.874779 C94.0468354,22.2202873 94.3464557,22.4777348 94.7259494,22.6576685 C95.0958228,22.8482762 95.5306329,22.937989 96.0201266,22.937989 C96.5140506,22.937989 96.9388608,22.8482762 97.3151899,22.6576685 C97.6949367,22.4777348 97.9987342,22.2202873 98.2086076,21.874779 C98.3189873,21.7045028 98.4092405,21.4930552 98.4682278,21.2472983" id="Fill-7" fill="#1C1B19"></path>
                <polyline id="Fill-8" fill="#1C1B19" points="107.999241 17.2996851 106.034177 17.2996851 106.034177 22.7926188 109.907342 22.7926188 109.907342 21.0118343 107.999241 21.0118343 107.999241 17.2996851"></polyline>
                <path d="M18.4487342,4.03885083 C17.0789873,2.36772928 15.3062025,1.29143094 13.1183544,0.875906077 C10.9701266,0.470038674 8.9356962,0.79521547 7.00898734,1.84368508 C6.01936709,2.40229282 5.18253165,3.0991547 4.50797468,3.92067403 C3.81455696,4.761 3.28405063,5.72763536 2.94227848,6.81181215 C2.59088608,7.92305525 2.50101266,9.08932044 2.61898734,10.2267403 C2.90670886,9.49531492 3.34734177,8.82501105 3.87050633,8.18456906 C4.62544304,7.28058011 5.56164557,6.60354144 6.60607595,6.10656354 C7.64822785,5.63652486 8.79202532,5.37437569 9.98,5.34794475 C11.1755696,5.34794475 12.3374684,5.58226519 13.4153165,6.0530663 C14.551519,6.51446409 15.5417722,7.21856906 16.3858228,8.15826519 C16.7016456,8.47441989 16.9636709,8.85322099 17.2225316,9.2329116 C17.6001266,9.2329116 17.9792405,9.25921547 18.3029114,9.35083425 C19.1491139,9.58528177 19.8162025,10.0187238 20.3375949,10.6692044 L20.363038,10.2531713 C20.4550633,9.11473481 20.3375949,8.03996133 20.0235443,6.98310497 C19.6982278,5.93463536 19.1748101,4.9409337 18.4487342,4.03885083" id="Fill-9" fill="#E8A33F"></path>
                <path d="M2.3835443,14.5534088 C2.52721519,15.4303315 2.78924051,16.2696409 3.2278481,17.0372818 C3.63531646,17.7971713 4.19189873,18.4918729 4.88531646,19.1070276 L5.2364557,19.396116 C6.43379747,20.2185249 7.71,20.8052155 9.10721519,21.0948122 C10.0077215,21.2657238 10.9155696,21.211337 11.7883544,21.0042099 C12.7148101,20.8052155 13.5894937,20.4262873 14.4079747,19.8657735 C13.6512658,19.6942265 12.9768354,19.2867072 12.4532911,18.6732044 L12.2475949,18.4386298 C11.1492405,18.5557901 10.0432911,18.5200829 8.9356962,18.2941492 C7.53025316,17.9693536 6.31632911,17.3813923 5.18253165,16.568768 C4.10227848,15.746232 3.20367089,14.6976354 2.52721519,13.4703757 L2.35607595,13.1166077 C2.32936709,13.5867735 2.32936709,14.0826077 2.3835443,14.5534088" id="Fill-10" fill="#E8A33F"></path>
                <path d="M12.7410127,7.19137569 C11.7250633,6.74878453 10.6163291,6.5500442 9.48455696,6.5500442 C8.37696203,6.57622099 7.33240506,6.81181215 6.37037975,7.28058011 C5.4064557,7.71554696 4.57139241,8.35700552 3.87050633,9.17941436 C3.37367089,9.79380663 2.96822785,10.4622044 2.70886076,11.1663094 C2.90670886,12.0422155 3.2278481,12.8548398 3.69860759,13.677884 C4.36405063,14.8158122 5.2364557,15.7818122 6.31632911,16.5408122 C7.36075949,17.2993039 8.55822785,17.7971713 9.83417722,18.084989 C10.6163291,18.2306133 11.436962,18.2941492 12.2475949,18.256663 C11.9322785,17.7345249 11.7250633,17.1829061 11.6351899,16.5408122 C11.5265823,15.8918564 11.5549367,15.2495083 11.6705063,14.5534088 C11.8143038,13.7040608 12.1301266,12.9182486 12.5687342,12.1865691 C13.0398734,11.4545083 13.6512658,10.7864917 14.3698734,10.2531713 C14.8389873,9.91083978 15.3337975,9.64907182 15.8294937,9.4399116 L15.5673418,9.14192818 C14.7491139,8.30261878 13.8213924,7.62443646 12.7410127,7.19137569" id="Fill-11" fill="#C74439"></path>
                <path d="M20.5164557,12.1865691 L20.2572152,11.744105 C19.8779747,13.0624751 19.1748101,14.2293757 18.2765823,15.2859779 C18.0691139,16.1615028 17.7183544,16.9475691 17.2605063,17.679884 C16.791519,18.4020331 16.1783544,19.0526409 15.4779747,19.6040055 C15.9732911,19.6304365 16.4681013,19.5505083 16.9636709,19.3685414 C17.4297468,19.1969945 17.8620253,18.9356077 18.3029114,18.5818398 C18.8894937,18.0314917 19.4383544,17.3813923 19.9056962,16.7131215 L19.9856962,16.5959613 C20.1931646,16.1615028 20.4008861,15.7200552 20.5427848,15.3121547 C20.6886076,14.8695635 20.7782278,14.4362486 20.8059494,14.0311436 C20.8325316,13.5867735 20.8325316,13.2068287 20.7518987,12.8282818 C20.6886076,12.5944696 20.5986076,12.3856906 20.5164557,12.1865691" id="Fill-12" fill="#E18239"></path>
                <path d="M1.36544304,7.04511602 C0.988101266,8.09561878 0.782278481,9.20482873 0.72835443,10.4076906 C0.701772152,11.9504696 0.988101266,13.4422928 1.57455696,14.8441492 C1.86037975,15.510768 2.2135443,16.1615028 2.6435443,16.7769116 C3.06012658,17.3545801 3.51772152,17.9153481 4.03873418,18.4020331 C2.90670886,17.1461823 2.23772152,15.6919724 2.0343038,14.0573204 C1.97873418,13.4976961 1.97873418,12.9733978 2.00620253,12.4221602 C1.62886076,11.3632707 1.42151899,10.3168343 1.42151899,9.2329116 C1.42151899,8.21265193 1.60025316,7.21856906 1.91632911,6.19627624 C2.18544304,5.49318785 2.52721519,4.82364641 2.90670886,4.21141436 C2.23772152,5.08732044 1.74632911,6.02587293 1.36544304,7.04511602" id="Fill-13" fill="#D36438"></path>
                <path d="M21.2379747,7.66116022 C20.9759494,6.81181215 20.634557,5.98927624 20.1931646,5.23065746 C19.761519,4.49910497 19.2289873,3.82943646 18.5925316,3.21720442 C18.0151899,2.60116022 17.3410127,2.07698895 16.585443,1.63554144 C17.2225316,2.07698895 17.8070886,2.60116022 18.3305063,3.18912155 C19.1491139,4.11966851 19.761519,5.11337017 20.1388608,6.2248674 C20.5164557,7.36190608 20.6886076,8.5379558 20.5986076,9.75720994 C20.5724051,10.1369006 20.5164557,10.4885083 20.4550633,10.8681989 C20.5986076,11.1026464 20.7518987,11.3913536 20.8694937,11.689337 C21.1555696,12.5394475 21.2098734,13.4422928 21.0659494,14.3462818 C21.5070886,13.0917017 21.7310127,11.7700276 21.704557,10.4076906 C21.6502532,9.46812155 21.5070886,8.5379558 21.2379747,7.66116022" id="Fill-14" fill="#D36438"></path>
                <path d="M17.8070886,10.4342486 C18.0956962,11.0483867 18.2765823,11.7178011 18.3565823,12.3856906 C18.4487342,13.0624751 18.4741772,13.7040608 18.4203797,14.3462818 L18.3029114,14.9877403 C19.1748101,13.9676077 19.761519,12.8282818 20.1039241,11.5085138 C19.9056962,11.3107901 19.6982278,11.1026464 19.4627848,10.9318619 C18.9955696,10.6056685 18.4487342,10.4342486 17.8070886,10.4342486" id="Fill-15" fill="#D36438"></path>
                <path d="M16.0631646,18.1403923 C16.4141772,17.6422707 16.7016456,17.0935746 16.9087342,16.5408122 C15.7375949,17.3813923 14.4616456,17.9693536 13.0664557,18.256663 C13.2643038,18.5818398 13.5327848,18.8453867 13.8213924,19.0526409 C14.1106329,19.2512541 14.4335443,19.396116 14.8107595,19.5137845 C15.2798734,19.1070276 15.7112658,18.6362265 16.0631646,18.1403923" id="Fill-16" fill="#C74439"></path>
                <path d="M10.211519,21.2657238 L11.4651899,21.3283702 C12.5444304,21.3024475 13.5593671,21.0948122 14.551519,20.7686188 C15.4779747,20.4525912 16.3858228,20.01 17.1706329,19.4587624 C16.6739241,19.6942265 16.1520253,19.8657735 15.5959494,19.8919503 C15.4236709,19.9277845 15.2163291,19.9277845 15.0187342,19.9277845 C13.5894937,20.8597293 11.9843038,21.3024475 10.211519,21.2657238" id="Fill-17" fill="#C74439"></path>
                <path d="M17.1422785,12.8008343 C16.9636709,12.0422155 16.7016456,11.3388729 16.3243038,10.6692044 C15.6572152,10.8681989 15.0725316,11.2209503 14.523038,11.689337 C13.938481,12.1865691 13.4437975,12.8008343 13.0664557,13.4976961 C12.7410127,14.2007845 12.5444304,14.8695635 12.4812658,15.5734144 C12.4005063,16.2420663 12.4812658,16.8576022 12.6606329,17.4442928 C12.7410127,17.6422707 12.8046835,17.823221 12.9226582,17.9959116 C13.6512658,17.9153481 14.3160759,17.7063149 14.983038,17.4172265 C15.6835443,17.1461823 16.3243038,16.7769116 16.9353165,16.3072541 L16.9893671,16.2696409 C17.1074684,15.8355635 17.1970886,15.3937348 17.2605063,14.9586409 C17.3124051,14.2293757 17.2860759,13.5320055 17.1422785,12.8008343" id="Fill-18" fill="#FAE542"></path>
            </g>
        </g>
    </g>
</svg>