<svg xmlns="http://www.w3.org/2000/svg" viewBox="0 0 125.43 78.39"><defs><style>.cls-1{fill:#1c3663;}.cls-2{fill:#fff;}</style></defs><title>Asset 17</title><g id="Layer_2" data-name="Layer 2"><g id="Layer_1-2" data-name="Layer 1"><rect class="cls-1" width="125.43" height="78.39" rx="4.18" ry="4.18"/><path class="cls-2" d="M60.63,34.44a1.79,1.79,0,0,0-1.31.8s-3,5.13-3.28,5.64c-.16.28-.32.1-.35,0l-.93-5.61a1.13,1.13,0,0,0-1.14-.81H51.76a.62.62,0,0,0-.63.79s1.42,8.09,1.7,10c.14,1,0,1.24,0,1.24L51,49.7c-.27.44-.12.8.32.8h2.17a1.73,1.73,0,0,0,1.3-.79l8.32-14.07s.79-1.2.06-1.19c-.5,0-2.51,0-2.51,0"/><path class="cls-2" d="M34.38,37.3a4.39,4.39,0,0,1-2.64.69h-.51a.62.62,0,0,1-.63-.8l.62-2.7a1.08,1.08,0,0,1,1-.8h.68a3.25,3.25,0,0,1,1.82.41,1.36,1.36,0,0,1,.6,1.24,2.26,2.26,0,0,1-.94,2m4.51-4.17a3.09,3.09,0,0,0-1.15-1.23,5.12,5.12,0,0,0-1.81-.67,14.59,14.59,0,0,0-2.47-.2H29.11a1.07,1.07,0,0,0-1,.79L25.17,44.61a.62.62,0,0,0,.63.8h2.09a1.07,1.07,0,0,0,1-.8l.72-3.1a1,1,0,0,1,1-.79h.6a10,10,0,0,0,6-1.57A4.91,4.91,0,0,0,39.29,35a3.93,3.93,0,0,0-.4-1.88"/><path class="cls-2" d="M49,35a8,8,0,0,0-3.73-.66,16.67,16.67,0,0,0-2.53.19c-.62.1-.68.11-1.07.2a1.21,1.21,0,0,0-.91,1l-.26,1c-.14.68.24.65.41.6a9.72,9.72,0,0,1,1.24-.37,9.1,9.1,0,0,1,2-.27,5.08,5.08,0,0,1,1.89.27,1,1,0,0,1,.63.95.54.54,0,0,1,0,.29c0,.09-.1.17-.3.19-1.19.07-2,.18-3.08.33a9.79,9.79,0,0,0-2.65.73,4.07,4.07,0,0,0-1.8,1.42,3.85,3.85,0,0,0-.6,2.18A2.54,2.54,0,0,0,39,45a3.19,3.19,0,0,0,2.2.75,5.6,5.6,0,0,0,1.31-.12,7,7,0,0,0,1-.34,5.52,5.52,0,0,0,.87-.48l.78-.52h0l-.08.34h0a.62.62,0,0,0,.56.78h2a1.07,1.07,0,0,0,.89-.78L50,38.05a3.6,3.6,0,0,0,.07-.53c0-.21,0-.38,0-.51A2.2,2.2,0,0,0,49,35Zm-3.69,7.84a5.34,5.34,0,0,1-.82.43,3,3,0,0,1-1.09.23,2.39,2.39,0,0,1-1.19-.23.82.82,0,0,1-.41-.78,1.59,1.59,0,0,1,.31-1,2.12,2.12,0,0,1,.89-.6,7.79,7.79,0,0,1,1.37-.31l1.54-.17c.12,0,.2-.06.15.26,0,.14-.3,1.25-.42,1.76A1.05,1.05,0,0,1,45.26,42.79Z"/><path class="cls-2" d="M86.87,35a8,8,0,0,0-3.73-.66,16.67,16.67,0,0,0-2.53.19c-.62.1-.69.11-1.07.2a1.22,1.22,0,0,0-.92,1l-.25,1.05c-.15.67.24.64.41.59A9.21,9.21,0,0,1,80,36.93a9,9,0,0,1,2-.27,5.08,5.08,0,0,1,1.89.27,1,1,0,0,1,.63,1,.68.68,0,0,1,0,.29.31.31,0,0,1-.3.19c-1.2.07-2,.18-3.08.33a9.79,9.79,0,0,0-2.65.73,4.07,4.07,0,0,0-1.8,1.42A3.85,3.85,0,0,0,76,43a2.56,2.56,0,0,0,.85,2,3.23,3.23,0,0,0,2.21.75,5.66,5.66,0,0,0,1.31-.12,7.9,7.9,0,0,0,1-.34,5.05,5.05,0,0,0,.86-.48l.79-.52h0l-.08.34h0a.63.63,0,0,0,.56.79h2a1.1,1.1,0,0,0,.9-.78l1.52-6.58a2.8,2.8,0,0,0,.08-.54c0-.21,0-.38,0-.51A2.2,2.2,0,0,0,86.87,35Zm-3.7,7.84a4.83,4.83,0,0,1-.81.43,3.09,3.09,0,0,1-1.09.23,2.39,2.39,0,0,1-1.19-.23.82.82,0,0,1-.41-.78,1.63,1.63,0,0,1,.3-1,2.22,2.22,0,0,1,.9-.6,7.79,7.79,0,0,1,1.37-.31c.48-.06,1.42-.17,1.54-.17s.2-.06.15.26c0,.14-.3,1.25-.42,1.76A1,1,0,0,1,83.17,42.8Z"/><path class="cls-2" d="M72.29,37.35a4.37,4.37,0,0,1-2.63.69h-.52a.63.63,0,0,1-.64-.8l.63-2.71a1.06,1.06,0,0,1,1-.79h.69a3.39,3.39,0,0,1,1.81.41,1.39,1.39,0,0,1,.61,1.24,2.29,2.29,0,0,1-.94,2m4.51-4.18a3.3,3.3,0,0,0-1.15-1.23,5.18,5.18,0,0,0-1.82-.67,14.56,14.56,0,0,0-2.46-.19H67a1.1,1.1,0,0,0-1,.8L63.08,44.66a.61.61,0,0,0,.62.79h2.1a1.1,1.1,0,0,0,1-.79l.71-3.1a1.06,1.06,0,0,1,1-.79h.6a9.81,9.81,0,0,0,6-1.58,4.9,4.9,0,0,0,2.13-4.14,4.06,4.06,0,0,0-.39-1.88"/><path class="cls-2" d="M94.07,31.19H92.2a1.06,1.06,0,0,0-1,.72s0,.05,0,.07l-.11.47L88.51,44.14l-.11.51h0a.61.61,0,0,0,.55.77v0H90.9a1.05,1.05,0,0,0,1-.73s0,0,0-.06L94.7,32h0A.63.63,0,0,0,94.07,31.19Z"/><path class="cls-2" d="M96.9,33.76l-.21.05h-.2a.61.61,0,0,1-.47-.16.76.76,0,0,1-.16-.54V32h-.24v-.29h.24v-.58h.34v.58h.7V32h-.7V33a1.7,1.7,0,0,0,0,.25.31.31,0,0,0,.05.17.2.2,0,0,0,.11.11.51.51,0,0,0,.21,0l.18,0,.12,0h0Z"/><path class="cls-2" d="M100.28,33.78h-.34V32.63a2.26,2.26,0,0,0,0-.26.74.74,0,0,0-.05-.19.34.34,0,0,0-.12-.12.47.47,0,0,0-.23,0,.65.65,0,0,0-.29.07,2.2,2.2,0,0,0-.28.18.34.34,0,0,0,0,.1v1.41h-.34V32.63c0-.09,0-.18,0-.26a.74.74,0,0,0-.05-.19.28.28,0,0,0-.12-.12.5.5,0,0,0-.23,0,.61.61,0,0,0-.28.07,1.47,1.47,0,0,0-.28.18v1.51h-.34v-2h.34V32a1.46,1.46,0,0,1,.32-.21.77.77,0,0,1,.34-.08.65.65,0,0,1,.35.09.49.49,0,0,1,.21.24,2,2,0,0,1,.38-.25,1,1,0,0,1,.37-.08.57.57,0,0,1,.49.21.85.85,0,0,1,.16.56Z"/></g></g></svg>