<?xml version="1.0" encoding="UTF-8"?>
<svg width="126px" height="79px" viewBox="0 0 126 79" version="1.1" xmlns="http://www.w3.org/2000/svg" xmlns:xlink="http://www.w3.org/1999/xlink">
    <!-- Generator: Sketch 50.2 (55047) - http://www.bohemiancoding.com/sketch -->
    <title>logo-beta@2x</title>
    <desc>Created with Sketch.</desc>
    <defs></defs>
    <g id="Page-1" stroke="none" stroke-width="1" fill="none" fill-rule="evenodd">
        <g id="logo-beta">
            <rect id="Rectangle-path-Copy" fill="#EC7000" fill-rule="nonzero" x="0" y="0" width="125.43" height="78.39" rx="4.18"></rect>
            <path d="M109.838,43.008 L88.914,43.008 C85.865,43.008 84.573,41.908 84.046,40.444 L90.638,40.444 C95.047,40.444 97.759,38.649 97.759,34.774 C97.759,30.898 95.047,28.904 90.638,28.904 L88.544,28.904 C84.594,28.904 79.795,31.027 78.786,36.112 L72.889,36.112 L72.889,25 L67.895,25 L67.895,36.112 L61.733,36.112 C55.824,36.139 52.536,38.905 52.105,43.008 L41.795,43.008 C38.746,43.008 37.453,41.908 36.925,40.444 L43.519,40.444 C47.927,40.444 50.639,38.649 50.639,34.774 C50.639,30.898 47.927,28.904 43.519,28.904 L41.424,28.904 C37.474,28.904 32.675,31.027 31.665,36.112 L27.34,36.112 C24.628,36.112 22.225,36.882 20.9,38.392 L20.9,36.455 L16,36.455 L16,52.439 C16,53.351 16.31,53.636 17.263,53.636 L19.73,53.636 C20.655,53.636 20.994,53.351 20.994,52.439 L20.994,46.143 C20.994,41.383 24.229,40.444 27.558,40.444 L31.713,40.444 C32.749,45.164 37.026,47.424 41.981,47.424 L52.729,47.424 C53.966,50.155 56.915,51.585 61.642,51.585 L64.506,51.585 C69.193,51.585 73.136,48.507 73.136,43.978 L73.136,40.444 L78.832,40.444 C79.87,45.164 84.146,47.424 89.099,47.424 L109.839,47.424 C110.392,47.424 110.854,46.998 110.854,46.455 L110.854,43.92 C110.854,43.406 110.392,43.008 109.839,43.008 L109.838,43.008 Z M41.238,33.234 L43.673,33.234 C44.785,33.234 45.554,33.661 45.554,34.687 C45.554,35.657 44.784,36.112 43.673,36.112 L36.788,36.112 C37.198,34.506 38.342,33.234 41.238,33.234 Z M67.896,44.12 C67.896,45.915 66.418,47.197 64.506,47.197 L61.303,47.197 C58.713,47.197 57.019,46.257 57.019,43.892 C57.019,41.584 58.713,40.445 61.303,40.445 L67.896,40.445 L67.896,44.12 Z M88.359,33.234 L90.794,33.234 C91.903,33.234 92.672,33.661 92.672,34.687 C92.672,35.657 91.902,36.112 90.794,36.112 L83.91,36.112 C84.318,34.506 85.462,33.234 88.36,33.234 L88.359,33.234 Z" id="Shape" fill="#FFF200"></path>
        </g>
    </g>
</svg>