<svg xmlns="http://www.w3.org/2000/svg" viewBox="0 0 125.43 78.39"><defs><style>.cls-1{fill:#008060;}.cls-2{fill:#fff;fill-rule:evenodd;}</style></defs><title>Asset 13</title><g id="Layer_2" data-name="Layer 2"><g id="Layer_1-2" data-name="Layer 1"><rect class="cls-1" width="125.43" height="78.39" rx="4.18" ry="4.18"/><path class="cls-2" d="M100.27,38.45c0-3.2-2.49-9.16-10.5-9.18a11.67,11.67,0,0,0-7.31,2.53V29.54H77.1V31.8a9.64,9.64,0,0,0-4.52-2.4,12,12,0,0,0-5.53.46,7.94,7.94,0,0,0-4,2.53c-2.24-2.5-5.78-3-8.6-3.1-3.21-.12-6.45.27-9,2.11a19.47,19.47,0,0,0-8.91-2.19,12,12,0,0,0-7.91,2.45,4.65,4.65,0,0,0-1.43,2,5.37,5.37,0,0,0,.39,4.91c1.49,2,3.17,2.78,6.19,3.11,2.64.3,4.49.3,6.45.66a2,2,0,0,1,1.78,1.87c0,1.19-1.66,3.12-5.66,2.86-3.33-.21-4.58-.68-7.72-2.72l-3.53,2.86s.6.48,1,.75a13.73,13.73,0,0,0,1.23.73h0A19.81,19.81,0,0,0,39.59,50.8a14.09,14.09,0,0,0,5.54-2.06A10,10,0,0,0,52.44,51c2.66-.12,4.63,0,6.48-2.15V51H64.1V48.86a15.75,15.75,0,0,0,1.39,1c3.29,2,8.53,1.23,11.62-1.12v2.74c-.09,1.7-1.65,2.86-3.29,3.51-2.82,1.13-5.4.12-7.7-1.5l-3.92,2.62a10.94,10.94,0,0,0,3.54,2.37,14,14,0,0,0,12.63-.75c2.26-1.34,3.14-3,3.68-5.51a18.62,18.62,0,0,0,.37-3.5h0v-.1l.13.1A11.76,11.76,0,0,0,86.1,50.5a14.8,14.8,0,0,0,8.14,0A11.37,11.37,0,0,0,98,48.72h0a12.83,12.83,0,0,0,1.69-1.45l-3.39-2.41A9.73,9.73,0,0,1,91.52,47c-2.25.28-4.8-.13-6.18-1.62-.74-.81-1-1.06-1-3.11l15.94,0ZM66.35,39.93c0-1.17.15-2.43.27-3.67.07-.6.79-1.33,1.82-1.88a7,7,0,0,1,3.24-.88,6.86,6.86,0,0,1,2.55.46,3.53,3.53,0,0,1,2.54,2.69c.1,1.13.22,2.2.27,3.23a12.64,12.64,0,0,1-.24,3.66,3.4,3.4,0,0,1-1.32,2,5.64,5.64,0,0,1-3.8,1.21c-2.22-.12-4.22-1-4.8-2.24A10.63,10.63,0,0,1,66.35,39.93Zm-9.46,6.86a12.32,12.32,0,0,1-4.77.29c-1.58-.19-3.08-.3-3.69-1.71a1.93,1.93,0,0,1,.26-2.12c.81-1,2.68-1.23,3.81-1.24h6.17C58.83,43.62,59.35,46,56.89,46.79ZM38.57,38c-2.48-.14-4.75-.18-6-1.17a1.9,1.9,0,0,1,.43-2.8,7.42,7.42,0,0,1,4.17-.77,12.69,12.69,0,0,1,6.19,2l2.15-2s2.27,2.07,2.27,2a8.06,8.06,0,0,1,6-1.84c3.37,0,4.34.66,4.84,1.4.31.46,0,3.31,0,3.31s-3,.1-5.12,0a17.34,17.34,0,0,0-4.37.19,7.06,7.06,0,0,0-3.66,1.58,13.27,13.27,0,0,0-1.91-1.09C41.8,38,40.51,38.12,38.57,38Zm45.89.37a5.33,5.33,0,0,1,.89-3.11,5.94,5.94,0,0,1,5-2.28,6.28,6.28,0,0,1,4.94,2.14,5.1,5.1,0,0,1,1,3.25Z"/></g></g></svg>