<?xml version="1.0" encoding="UTF-8"?>
<svg width="126px" height="79px" viewBox="0 0 126 79" version="1.1" xmlns="http://www.w3.org/2000/svg" xmlns:xlink="http://www.w3.org/1999/xlink">
    <!-- Generator: Sketch 50.2 (55047) - http://www.bohemiancoding.com/sketch -->
    <title>banco-santander-seeklogo.com@2x</title>
    <desc>Created with Sketch.</desc>
    <defs></defs>
    <g id="Page-1" stroke="none" stroke-width="1" fill="none" fill-rule="evenodd">
        <g id="banco-santander-seeklogo.com" fill-rule="nonzero">
            <rect id="Rectangle-path-Copy-3" fill="#EA1D25" x="0" y="0" width="125.43" height="78.39" rx="4.18"></rect>
            <path d="M21.6788413,38.7445783 C21.6322418,38.0578313 21.4458438,37.3710843 21.0730479,36.7759036 L17.9042821,31.3277108 C17.6712846,30.9156627 17.4848866,30.4578313 17.3916877,30 L17.2518892,30.2289157 C16.4596977,31.5566265 16.4596977,33.2506024 17.2518892,34.5783133 L19.8148615,38.9277108 C20.6070529,40.2554217 20.6070529,41.9493976 19.8148615,43.2771084 L19.675063,43.5060241 C19.581864,43.0481928 19.395466,42.5903614 19.1624685,42.1783133 L16.8324937,38.1951807 L15.3413098,35.6313253 C15.1083123,35.2192771 14.9219144,34.7614458 14.8287154,34.3036145 L14.6889169,34.5325301 C13.8967254,35.860241 13.8967254,37.5084337 14.6889169,38.8819277 L17.2518892,43.2313253 C18.0440806,44.5590361 18.0440806,46.253012 17.2518892,47.5807229 L17.1120907,47.8096386 C17.0188917,47.3518072 16.8324937,46.8939759 16.5994962,46.4819277 L13.384131,41.0337349 C12.9647355,40.3012048 12.7783375,39.4771084 12.7783375,38.653012 C9.37657431,39.5228916 7,41.4 7,43.5518072 C7,46.573494 11.5667506,49 17.2052897,49 C22.8438287,49 27.4105793,46.573494 27.4105793,43.5518072 C27.4571788,41.4915663 25.127204,39.6144578 21.6788413,38.7445783 Z M31.324937,48.0385542 C31.3715365,47.260241 31.4647355,46.7566265 31.697733,46.1156627 C32.7695214,46.6192771 34.1675063,46.8481928 35.1926952,46.8481928 C36.9634761,46.8481928 37.988665,46.2987952 37.988665,45.1542169 C37.988665,44.0554217 37.243073,43.5518072 35.4722922,42.773494 L34.4937028,42.4072289 C32.6763224,41.6289157 31.4647355,40.6216867 31.4647355,38.653012 C31.4647355,36.5012048 33.0025189,35.1277108 36.0780856,35.1277108 C37.336272,35.1277108 38.5012594,35.3108434 39.5730479,35.6771084 C39.5264484,36.4096386 39.3866499,37.0048193 39.2002519,37.5542169 C38.175063,37.1879518 36.9168766,37.0048193 36.0314861,37.0048193 C34.3539043,37.0048193 33.6083123,37.6457831 33.6083123,38.653012 C33.6083123,39.6144578 34.3539043,40.2096386 35.7052897,40.7590361 L36.7304786,41.1710843 C39.1536524,42.1783133 40.1788413,43.2771084 40.1788413,45.1084337 C40.1788413,47.260241 38.5012594,48.7710843 35.2392947,48.7710843 C33.7015113,48.7710843 32.3967254,48.5421687 31.324937,48.0385542 Z M50.47733,39.0192771 L50.47733,48.4506024 L48.5201511,48.4506024 L48.4269521,47.3060241 C47.8677582,48.1301205 47.0755668,48.6795181 45.7241814,48.6795181 C43.2078086,48.6795181 41.4836272,46.8481928 41.4836272,43.6891566 C41.4836272,40.3927711 43.3010076,38.4698795 46.8425693,38.4698795 C48.2405542,38.5156627 49.4055416,38.653012 50.47733,39.0192771 Z M48.3803526,46.2987952 L48.3803526,40.3927711 C47.9609572,40.3012048 47.4483627,40.3012048 46.8425693,40.3012048 C44.6523929,40.3012048 43.627204,41.6289157 43.627204,43.7349398 C43.627204,45.6578313 44.4193955,47.0313253 46.2833753,47.0313253 C47.1687657,46.9855422 47.8211587,46.7108434 48.3803526,46.2987952 Z M61.2884131,42.1325301 L61.2884131,48.4506024 L59.1914358,48.4506024 L59.1914358,42.4987952 C59.1914358,40.9879518 58.6788413,40.3012048 56.581864,40.3012048 C56.0692695,40.3012048 55.5100756,40.346988 54.9042821,40.4385542 L54.9042821,48.4506024 L52.8073048,48.4506024 L52.8073048,39.0192771 C54.1586902,38.6987952 55.6498741,38.4698795 56.6284635,38.4698795 C60.1700252,38.5156627 61.2884131,39.8433735 61.2884131,42.1325301 Z M67.1599496,46.939759 C67.7657431,46.939759 68.3715365,46.8481928 68.790932,46.6650602 C68.7443325,47.2144578 68.6511335,47.8554217 68.5579345,48.4048193 C67.9987406,48.6337349 67.3463476,48.7253012 66.7871537,48.7253012 C64.7367758,48.7253012 63.4319899,47.8096386 63.4319899,45.5204819 L63.4319899,35.5855422 C64.0843829,35.3566265 64.8765743,35.2650602 65.5289673,35.2650602 L65.5289673,38.8361446 L68.884131,38.8361446 C68.8375315,39.4771084 68.790932,40.0722892 68.697733,40.6216867 L65.5289673,40.6216867 L65.5289673,45.2457831 C65.5289673,46.4361446 66.1347607,46.939759 67.1599496,46.939759 Z M78.4836272,39.0192771 L78.4836272,48.4506024 L76.5264484,48.4506024 L76.4332494,47.3060241 C75.8740554,48.1301205 75.081864,48.6795181 73.7304786,48.6795181 C71.2141058,48.6795181 69.4899244,46.8481928 69.4899244,43.6891566 C69.4899244,40.3927711 71.3073048,38.4698795 74.8488665,38.4698795 C76.2468514,38.5156627 77.3652393,38.653012 78.4836272,39.0192771 Z M76.3400504,46.2987952 L76.3400504,40.3927711 C75.9206549,40.3012048 75.4080605,40.3012048 74.802267,40.3012048 C72.6120907,40.3012048 71.5869018,41.6289157 71.5869018,43.7349398 C71.5869018,45.6578313 72.3790932,47.0313253 74.243073,47.0313253 C75.1284635,46.9855422 75.8274559,46.7108434 76.3400504,46.2987952 Z M89.2947103,42.1325301 L89.2947103,48.4506024 L87.1511335,48.4506024 L87.1511335,42.4987952 C87.1511335,40.9879518 86.638539,40.3012048 84.5415617,40.3012048 C84.0289673,40.3012048 83.4697733,40.346988 82.8639798,40.4385542 L82.8639798,48.4506024 L80.7670025,48.4506024 L80.7670025,39.0192771 C82.1183879,38.6987952 83.6095718,38.4698795 84.5881612,38.4698795 C88.1297229,38.5156627 89.2947103,39.8433735 89.2947103,42.1325301 Z M99.965995,35.2650602 L99.965995,48.4506024 L98.0088161,48.4506024 L97.9156171,47.260241 C97.3564232,48.1301205 96.5642317,48.6795181 95.1662469,48.6795181 C92.6498741,48.6795181 90.9256927,46.8481928 90.9256927,43.6891566 C90.9256927,40.3927711 92.743073,38.4698795 96.2846348,38.4698795 C96.8438287,38.4698795 97.3564232,38.5156627 97.8690176,38.6072289 L97.8690176,35.4939759 C98.5214106,35.3108434 99.2670025,35.2650602 99.965995,35.2650602 Z M97.8690176,46.2987952 L97.8690176,40.4843373 C97.3098237,40.3927711 96.7506297,40.3012048 96.1914358,40.3012048 C94.0944584,40.3012048 93.115869,41.5831325 93.115869,43.7349398 C93.115869,45.6578313 93.9080605,47.0313253 95.7720403,47.0313253 C96.6108312,46.9855422 97.3098237,46.7108434 97.8690176,46.2987952 Z M110.59068,44.4216867 L103.833753,44.4216867 C104.11335,46.1156627 105.09194,46.8939759 107.002519,46.8939759 C108.167506,46.8939759 109.332494,46.6650602 110.357683,46.1614458 C110.264484,46.7108434 110.171285,47.4433735 110.031486,48.0385542 C109.052897,48.4506024 108.074307,48.6337349 106.90932,48.6337349 C103.367758,48.6337349 101.690176,46.7108434 101.690176,43.5060241 C101.690176,40.713253 102.994962,38.4698795 106.350126,38.4698795 C109.379093,38.4698795 110.683879,40.3927711 110.683879,42.773494 C110.683879,43.4144578 110.683879,43.8722892 110.59068,44.4216867 Z M103.833753,42.6819277 L108.586902,42.6819277 C108.586902,41.1253012 107.748111,40.2096386 106.303526,40.2096386 C104.765743,40.2554217 103.973552,41.0795181 103.833753,42.6819277 Z M118,38.6072289 C118,39.2481928 117.906801,39.9807229 117.813602,40.3927711 C117.301008,40.346988 116.835013,40.3012048 116.229219,40.3012048 C115.716625,40.3012048 115.20403,40.346988 114.691436,40.3927711 L114.691436,48.4506024 L112.594458,48.4506024 L112.594458,39.0192771 C113.479849,38.6987952 115.017632,38.4698795 116.18262,38.4698795 C116.788413,38.5156627 117.534005,38.5156627 118,38.6072289 Z" id="Shape" fill="#FFFFFF"></path>
        </g>
    </g>
</svg>