<svg xmlns="http://www.w3.org/2000/svg" viewBox="0 0 125.43 78.39"><defs><style>.cls-1{fill:#8bb43f;}.cls-2{fill:#fff;}</style></defs><title>Asset 8</title><g id="Layer_2" data-name="Layer 2"><g id="Layer_1-2" data-name="Layer 1"><rect class="cls-1" width="125.43" height="78.39" rx="4.18" ry="4.18"/><path class="cls-2" d="M26,42.9a6.43,6.43,0,0,0,2.91.77c1,0,1.55-.54,1.55-1.21s-.39-1.08-1.47-1.7a3.94,3.94,0,0,1-2.34-3.27c0-2.5,2.13-4.28,5.25-4.28a6.33,6.33,0,0,1,3,.59l-.82,2.53a5.37,5.37,0,0,0-2.22-.49c-1,0-1.65.46-1.65,1.19,0,.56.47,1,1.37,1.46,1.39.8,2.55,1.89,2.55,3.4,0,2.84-2.29,4.44-5.49,4.41a7,7,0,0,1-3.5-.87Z"/><path class="cls-2" d="M34.88,46.07,38.33,27.9h3.56L40.53,35l0,0a4.79,4.79,0,0,1,3.76-1.89c1.86,0,2.91,1.22,2.91,3.23A12.85,12.85,0,0,1,47,38.73L45.6,46.07H42.05L43.39,39a8.35,8.35,0,0,0,.15-1.57c0-.78-.31-1.32-1.11-1.32-1.13,0-2.34,1.44-2.81,3.79l-1.18,6.21Z"/><path class="cls-2" d="M60.11,38.16c0,4.41-2.83,8.17-7,8.17a4.64,4.64,0,0,1-4.9-5c0-4.31,2.84-8.18,7.11-8.18C58.62,33.18,60.11,35.61,60.11,38.16Zm-8.3,3.12c0,1.29.52,2.32,1.73,2.32,1.88,0,2.94-3.35,2.94-5.55,0-1-.41-2.13-1.68-2.13C52.87,35.92,51.81,39.24,51.81,41.28Z"/><path class="cls-2" d="M59.26,51.12l2.48-13c.28-1.47.56-3.43.72-4.72H65.6l-.2,1.91h0a4.7,4.7,0,0,1,3.76-2.12c2.6,0,3.66,2.14,3.66,4.54,0,4.33-2.73,8.61-6.91,8.61a4.39,4.39,0,0,1-2.08-.46H63.8l-1,5.25Zm5.08-8a2.18,2.18,0,0,0,1.47.52c2,0,3.35-3.27,3.35-5.57,0-.95-.34-2-1.42-2-1.24,0-2.4,1.47-2.81,3.69Z"/><path class="cls-2" d="M73,46.07l2.4-12.6H79l-2.42,12.6Zm4.62-14.15a1.64,1.64,0,0,1-1.68-1.78,2,2,0,0,1,2-2.06,1.7,1.7,0,0,1,1.78,1.78,2,2,0,0,1-2.09,2.06Z"/><path class="cls-2" d="M79.62,46.07l1.88-10H79.86l.51-2.68H82l.1-.59a6.75,6.75,0,0,1,2.06-4,5.28,5.28,0,0,1,3.48-1.19A5.05,5.05,0,0,1,89.6,28l-.7,2.79a3.28,3.28,0,0,0-1.13-.19c-1.19,0-1.91,1.09-2.12,2.3l-.13.59H88l-.49,2.68H85.06l-1.88,10Z"/><path class="cls-2" d="M92.41,33.47,93,39.14c.16,1.26.26,2.16.31,3h0c.29-.85.55-1.65,1.06-3l2.16-5.64h3.72L95.91,42.8a24,24,0,0,1-4.67,7.06,8.09,8.09,0,0,1-3.47,1.93l-1-3a7.88,7.88,0,0,0,2-1,6,6,0,0,0,1.93-2.14.77.77,0,0,0,.08-.59L88.67,33.47Z"/></g></g></svg>