<svg xmlns="http://www.w3.org/2000/svg" viewBox="0 0 125.43 78.39"><defs><style>.cls-1{fill:#862165;}.cls-2{fill:#fff;}</style></defs><title>Asset 21</title><g id="Layer_2" data-name="Layer 2"><g id="Layer_1-2" data-name="Layer 1"><rect class="cls-1" width="125.43" height="78.39" rx="4.18" ry="4.18"/><path class="cls-2" d="M84.86,28.9l6.24-1.11v24H84.86Zm9.12,0V51.75h6.24v-24ZM76,51.75h6.24V34.22H76ZM34.7,36.7c-.79-.05-2.61-.17-2.61-1.81,0-2,2.62-2,3.61-2a21.7,21.7,0,0,1,5.59,1s.89.32,1.66.64l.07,0V29.12l-.1,0a22.16,22.16,0,0,0-8.18-1.3c-7,0-9.53,4.1-9.53,7.61,0,2,.87,6.79,8.93,7.34.68,0,2.49.15,2.49,1.85,0,1.4-1.48,2.23-4,2.23a19.63,19.63,0,0,1-7-1.36v5.6A32.72,32.72,0,0,0,34,52c6.89,0,10-3.88,10-7.73C43.94,39.92,40.49,37.09,34.7,36.7ZM72.45,34c-5.77.18-8.7,2.77-8.7,7.92v9.86H70v-8c0-3.08.41-4.41,4.07-4.53V34.06A8.83,8.83,0,0,0,72.45,34Zm-16.94.23A21.68,21.68,0,0,1,52,40.3V27.79l-6.44,1.27V51.75H52v-7a24.31,24.31,0,0,1,2.79,7h7.72c-.76-3.18-4.1-9-4.1-9a28.44,28.44,0,0,0,4.52-8.52Zm23.58-1.66A3.08,3.08,0,1,0,76,29.46,3.08,3.08,0,0,0,79.09,32.54Z"/></g></g></svg>