<svg xmlns="http://www.w3.org/2000/svg" viewBox="0 0 125.43 78.39"><defs><style>.cls-1{fill:#862165;}.cls-2{fill:#fff;}</style></defs><title>Asset 7</title><g id="Layer_2" data-name="Layer 2"><g id="Layer_1-2" data-name="Layer 1"><rect class="cls-1" width="125.43" height="78.39" rx="4.18" ry="4.18"/><path class="cls-2" d="M84.59,22.12,90.8,21V44.86H84.59Zm9.07,0V44.86h6.22V21ZM75.74,44.86H82V27.42H75.74Zm-41.08-15c-.78-.05-2.6-.17-2.6-1.8,0-2,2.62-2,3.6-2a21.55,21.55,0,0,1,5.56,1s.89.31,1.65.64h.07V22.33l-.1,0A22.16,22.16,0,0,0,34.7,21c-7,0-9.49,4.08-9.49,7.58,0,2,.87,6.76,8.89,7.31.68,0,2.49.14,2.49,1.83,0,1.4-1.48,2.23-4,2.23a19.5,19.5,0,0,1-7-1.36v5.57a32.48,32.48,0,0,0,8.29.95c6.85,0,9.92-3.86,9.92-7.69C43.86,33.09,40.42,30.27,34.66,29.88Zm37.58-2.72c-5.75.19-8.66,2.76-8.66,7.89v9.81h6.26v-8c0-3.07.41-4.39,4-4.51v-5.1A8.73,8.73,0,0,0,72.24,27.16Zm-16.86.24a22,22,0,0,1-3.55,6.07V21l-6.41,1.27V44.86h6.41v-7a24.31,24.31,0,0,1,2.78,7h7.68c-.76-3.16-4.08-9-4.08-9a28.42,28.42,0,0,0,4.5-8.48Zm23.47-1.66a3.06,3.06,0,1,0-3.06-3.06A3.06,3.06,0,0,0,78.85,25.74Z"/><path class="cls-2" d="M32.33,56.6V52.91c0-.42-.16-.71-.58-.71a1.52,1.52,0,0,0-1,.52V56.6H29V52.91c0-.42-.16-.71-.58-.71a1.49,1.49,0,0,0-1,.52V56.6H25.63V50.72h1.6l.13.8a2.49,2.49,0,0,1,1.82-.92,1.45,1.45,0,0,1,1.47.92,2.57,2.57,0,0,1,1.83-.92c1.09,0,1.67.68,1.67,1.82V56.6Z"/><path class="cls-2" d="M37.88,56.71a3.07,3.07,0,0,1,0-6.11,3.06,3.06,0,0,1,0,6.11Zm0-4.63c-.69,0-1.07.62-1.07,1.58s.39,1.59,1.07,1.59S39,54.62,39,53.67,38.59,52.08,37.89,52.08Z"/><path class="cls-2" d="M45.09,56.6V52.91c0-.42-.17-.71-.6-.71a1.51,1.51,0,0,0-1,.53V56.6H41.68V50.72h1.6l.13.8a2.61,2.61,0,0,1,1.83-.92c1.1,0,1.67.68,1.67,1.82V56.6Z"/><path class="cls-2" d="M53.17,54.11H49.65a1.28,1.28,0,0,0,1.44,1.28A4,4,0,0,0,53,54.78l.18,1.27a4.27,4.27,0,0,1-2.34.66,2.75,2.75,0,0,1-3-3,2.78,2.78,0,0,1,2.78-3.08c1.8,0,2.6,1.34,2.6,3A2,2,0,0,1,53.17,54.11Zm-2.61-2.34c-.51,0-.87.45-.93,1.35h1.85C51.42,52.23,51.11,51.77,50.56,51.77Z"/><path class="cls-2" d="M57.34,56.71c-.52,1.54-1.24,2.07-2.53,2.07a3,3,0,0,1-.68-.07l-.23-1.46a2.13,2.13,0,0,0,.72.1,1,1,0,0,0,1-.56l.07-.18-2.13-5.75,1.94-.23,1.14,3.71,1.08-3.62h1.75Z"/><path class="cls-2" d="M62.67,56.67a7.26,7.26,0,0,1-2.52-.42v-8L62,47.93v3.43a2.19,2.19,0,0,1,1.57-.76c1.2,0,2.12.91,2.12,2.9C65.65,55.68,64.48,56.67,62.67,56.67ZM63,52.22a1.36,1.36,0,0,0-1,.56v2.33a2,2,0,0,0,.66.1c.71,0,1.21-.43,1.21-1.59C63.83,52.63,63.47,52.22,63,52.22Z"/><path class="cls-2" d="M69.16,56.71a3.07,3.07,0,0,1,0-6.11,3.06,3.06,0,0,1,0,6.11Zm0-4.63c-.69,0-1.07.62-1.07,1.58s.39,1.59,1.07,1.59,1.08-.63,1.08-1.58S69.87,52.08,69.17,52.08Z"/><path class="cls-2" d="M75.48,56.71a3.07,3.07,0,0,1,0-6.11,3.06,3.06,0,0,1,0,6.11Zm0-4.63c-.69,0-1.06.62-1.06,1.58s.38,1.59,1.06,1.59,1.08-.63,1.08-1.58S76.19,52.08,75.49,52.08Z"/><path class="cls-2" d="M82.8,56.68l-1.71-2.82V56.6H79.28V48.22l1.81-.29v5.2l1.58-2.41h1.94l-1.85,2.67,1.92,3Z"/><path class="cls-2" d="M90.15,54.11H86.62a1.29,1.29,0,0,0,1.44,1.28A4,4,0,0,0,90,54.78l.18,1.27a4.27,4.27,0,0,1-2.34.66,2.75,2.75,0,0,1-3-3,2.78,2.78,0,0,1,2.77-3.08c1.8,0,2.61,1.34,2.61,3A2,2,0,0,1,90.15,54.11Zm-2.61-2.34c-.51,0-.87.45-.93,1.35h1.85C88.4,52.23,88.09,51.77,87.54,51.77Z"/><path class="cls-2" d="M93,53.33V56.6H91.16V50.72h1.58l.19,1.16a2.09,2.09,0,0,1,1.72-1.28l.3,1.84A2.88,2.88,0,0,0,93,53.33Z"/><path class="cls-2" d="M97.8,56.69a5.27,5.27,0,0,1-2.42-.59l.21-1.38a4.57,4.57,0,0,0,2.22.7c.51,0,.75-.17.75-.45s-.17-.43-1-.63c-1.47-.38-2.1-.78-2.1-1.88s.82-1.83,2.26-1.83a5.49,5.49,0,0,1,2.17.43l-.23,1.38a4.4,4.4,0,0,0-1.93-.55c-.43,0-.62.16-.62.39s.16.37,1,.6c1.56.42,2.11.81,2.11,1.9S99.36,56.69,97.8,56.69Z"/></g></g></svg>