<svg xmlns="http://www.w3.org/2000/svg" viewBox="0 0 125.43 78.39"><defs><style>.cls-1{fill:#c92f92;}.cls-2{fill:#fff;}</style></defs><title>Asset 23</title><g id="Layer_2" data-name="Layer 2"><g id="Layer_1-2" data-name="Layer 1"><rect class="cls-1" width="125.43" height="78.39" rx="4.18" ry="4.18"/><path class="cls-2" d="M67.62,31.84a9.37,9.37,0,0,1-15.7,10.23l2.69-1.81a6.09,6.09,0,0,0,10.2-6.64Z"/><path d="M73.89,27.86A9.37,9.37,0,0,0,58.2,38.11l2.74-1.74a6.08,6.08,0,1,1,10.19-6.65Z"/><path class="cls-2" d="M44.92,34.6A17.8,17.8,0,1,1,62.71,52.39,17.8,17.8,0,0,1,44.92,34.6ZM62.71,51.15A16.55,16.55,0,1,0,46.17,34.6,16.55,16.55,0,0,0,62.71,51.15Z"/><path class="cls-2" d="M64.76,56.18H65.9L65,60.39H68l-.21,1h-4.2Z"/><path class="cls-2" d="M51.94,59.77a2.55,2.55,0,0,0,2.07.94c1,0,1.32-.31,1.39-.77,0-.18.1-.6-.71-.7l-1.31-.14c-1.38-.19-1.61-.75-1.58-1.44C51.85,56.71,53,56,54.31,56a3,3,0,0,1,2.52.84l-.79.48a2.53,2.53,0,0,0-1.94-.52c-.48,0-1.14.23-1.24.7s-.06.54.64.63l1.66.21a1.5,1.5,0,0,1,1.33,1.42c-.09.9-.87,2-2.74,1.86a3,3,0,0,1-2.65-1.32Z"/><path class="cls-2" d="M57.46,58.73a3.36,3.36,0,0,1,3.22-2.82,2.39,2.39,0,0,1,2.41,2.82,3.36,3.36,0,0,1-3.22,2.82A2.38,2.38,0,0,1,57.46,58.73ZM60,60.57a2.19,2.19,0,0,0,2.1-1.84,1.55,1.55,0,0,0-1.57-1.83,2.19,2.19,0,0,0-2.1,1.83A1.56,1.56,0,0,0,60,60.57Z"/><path class="cls-2" d="M68.69,58.73a3.37,3.37,0,0,1,3.22-2.82,2.39,2.39,0,0,1,2.42,2.82,3.36,3.36,0,0,1-3.22,2.82A2.39,2.39,0,0,1,68.69,58.73Zm2.56,1.84a2.18,2.18,0,0,0,2.09-1.84,1.55,1.55,0,0,0-1.57-1.83,2.18,2.18,0,0,0-2.09,1.83A1.55,1.55,0,0,0,71.25,60.57Z"/></g></g></svg>