<?xml version="1.0" encoding="UTF-8"?>
<svg width="126px" height="79px" viewBox="0 0 126 79" version="1.1" xmlns="http://www.w3.org/2000/svg" xmlns:xlink="http://www.w3.org/1999/xlink">
    <!-- Generator: Sketch 50.2 (55047) - http://www.bohemiancoding.com/sketch -->
    <title>logo-stone@2x</title>
    <desc>Created with Sketch.</desc>
    <defs></defs>
    <g id="Page-1" stroke="none" stroke-width="1" fill="none" fill-rule="evenodd">
        <g id="logo-stone" fill-rule="nonzero">
            <rect id="Rectangle-path-Copy-10" fill="#D6EBCE" x="0" y="0" width="125.43" height="78.39" rx="4.18"></rect>
            <path d="M108.777326,34.7957374 L100.482494,26.6498013 C100.173699,26.3490859 100,25.9397024 100,25.5126287 C100,25.0855549 100.173699,24.6761714 100.482494,24.375456 L108.777326,16.2042675 C108.983626,16.003401 109.292904,15.9445234 109.560688,16.055138 C109.828472,16.1657526 110.00191,16.4240277 109.999984,16.7093155 L109.999984,34.291504 C110.001572,34.5766433 109.82801,34.8346147 109.560302,34.9450194 C109.292594,35.0554242 108.983519,34.996496 108.777326,34.7957374 Z" id="Path_1" fill="#91C92C"></path>
            <path d="M111.714147,16.0018688 C111.527891,15.9874807 111.344496,16.0566613 111.208706,16.1925324 C111.072916,16.3284035 110.997217,16.518471 111.000078,16.7163638 L111.000078,20.520501 C110.99928,20.8648272 111.234669,21.1587387 111.55538,21.2138619 C113.577818,21.5067115 115.085387,23.3375581 115.085387,25.5008319 C115.085387,27.6641058 113.577818,29.4949524 111.55538,29.787802 C111.234669,29.8429252 110.99928,30.1368367 111.000078,30.4811629 L111.000078,34.2844872 C111.000865,34.4811622 111.077686,34.6688992 111.212626,34.8039195 C111.347565,34.9389398 111.528829,35.0094408 111.714147,34.9989822 C116.391674,34.6095586 120,30.4733012 120,25.5008319 C120,20.5283627 116.391674,16.3921053 111.714147,16.0026817 L111.714147,16.0018688 Z" id="Path_2" fill="#91C92C"></path>
            <path d="M12.9316458,53.4539408 C12.3297363,53.1106145 11.9709879,52.4619862 12.0018418,51.7728264 C11.9951863,51.2469199 12.2024114,50.7406183 12.5765325,50.3687169 C12.9506535,49.9968154 13.4599767,49.7908196 13.9890218,49.7974356 C14.3580613,49.80544 14.7201262,49.8989683 15.0463979,50.0705761 C16.8509247,51.339316 18.9895017,52.0553872 21.1984783,52.1305103 C23.3124127,52.1305103 24.517805,51.2476813 24.517805,49.8397073 L24.517805,49.7584155 C24.517805,48.1195728 22.2558544,47.5521561 19.7395774,46.7741935 C16.589529,45.8913646 13.0592178,44.6093929 13.0592178,40.553745 L13.0592178,40.4724532 C13.0592178,36.4582641 16.4202507,34 20.6701992,34 C23.016292,34.0410809 25.3195796,34.6315201 27.3930828,35.7233862 C28.1133568,36.0614728 28.5740399,36.780973 28.5772131,37.5727746 C28.5825973,38.1056967 28.3690708,38.6177436 27.9859781,38.9905851 C27.6028854,39.3634265 27.0833775,39.5647985 26.5475091,39.5481654 C26.2092694,39.5515394 25.8753752,39.4722598 25.575181,39.3172967 C24.0297103,38.4621627 22.3093765,37.9663285 20.5434449,37.867051 C18.6404951,37.867051 17.5414128,38.7498799 17.5414128,39.9473081 L17.5414128,40.0285999 C17.5414128,41.6048479 19.8458875,42.2348594 22.3613466,43.0363966 C25.490133,44.0029561 29,45.4109301 29,49.2357093 L29,49.3170011 C29,53.7726047 25.511395,56 21.0512798,56 C18.1539684,55.9560272 15.3325792,55.0722811 12.9332813,53.4571925" id="Path_3" fill="#91C92C"></path>
            <path d="M42,45.0967423 L42,45.0160076 C42.1367825,38.9072732 46.9980158,34.0219588 52.9616329,34.0000738 C58.9252501,33.9781887 63.8205132,38.8276992 64,44.9352729 L64,45.0160076 C63.9866435,47.9855881 62.8056915,50.8243159 60.7240504,52.8906117 C58.6424093,54.9569074 55.8357986,56.076347 52.9385387,55.9959265 C50.0663135,56.0763181 47.2842911,54.9639434 45.2244199,52.9114831 C43.1645486,50.8590228 42.0016927,48.040712 42,45.0967423 M59.256447,45.0967423 L59.256447,45.0160076 C59.3275834,43.2464346 58.6923792,41.5234746 57.4971569,40.2440199 C56.3019345,38.9645652 54.649754,38.238939 52.9212034,38.2342929 C49.1318768,38.2342929 46.7080946,41.2610368 46.7080946,44.9352729 L46.7080946,45.0160076 C46.642782,46.7729753 47.2755518,48.4819952 48.4617935,49.7524949 C49.6480353,51.0229947 51.2863644,51.7463884 53.0023639,51.7573549 C56.8318768,51.7573549 59.256447,48.730611 59.256447,45.0991643" id="Path_4" fill="#91C92C"></path>
            <path d="M75.3940381,34.0021758 C72.910906,33.958379 70.5143695,34.8834785 68.7463976,36.5682659 C66.9784256,38.2530533 65.9883609,40.5552128 66.0001033,42.9541185 L66.0001033,52.6541408 C66.0001033,53.9492913 67.0870626,54.9992183 68.4278948,54.9992183 C69.7687271,54.9992183 70.8556864,53.9492913 70.8556864,52.6541408 L70.8556864,42.7930898 C70.8335342,41.6162127 71.3020277,40.4801237 72.1558263,39.6402719 C73.0096249,38.8004202 74.1770681,38.3272958 75.3956566,38.3272805 C77.9772879,38.309258 80.0939757,40.2998247 80.1444169,42.7930898 L80.1444169,52.6549225 C80.1444169,53.950073 81.2313762,55 82.5722084,55 C83.9130407,55 85,53.950073 85,52.6549225 L85,42.9541185 C84.9650027,40.5334914 83.9308289,38.226564 82.1271692,36.545706 C80.3235095,34.864848 77.8996885,33.9492172 75.3940381,34.0021758 Z" id="Path_5" fill="#91C92C"></path>
            <path d="M31.0023335,48.5022204 C30.8994887,52.5246825 34.2089949,55.8671149 38.3981261,55.9715938 C38.8308103,56.0004644 39.2647823,56.0073343 39.6982225,55.9921749 C40.309493,55.9947139 40.8964913,55.7626804 41.3287288,55.3476548 C41.7609664,54.9326292 42.0026228,54.3690056 41.9999785,53.7820763 C41.9963559,52.5629162 40.9679437,51.5754561 39.6982225,51.5719777 L39.0386936,51.5719777 C38.2181603,51.5694894 37.4325988,51.2526461 36.8563516,50.6917659 C36.2801043,50.1308858 35.9608388,49.3723651 35.9694108,48.584545 L35.9694108,39.1504636 L39.7617022,39.1504636 C40.9974128,39.1504636 41.9991541,38.1886122 41.9991541,37.0021085 C41.9991541,35.8156047 40.9974128,34.8537533 39.7617022,34.8537533 L35.9488005,34.8537533 L35.9488005,31.3747478 C35.9488005,30.0632108 34.8414961,29 33.475567,29 C32.1096378,29 31.0023335,30.0632108 31.0023335,31.3747478 L31.0023335,37.0226896 L31.0023335,48.5022204 Z" id="Path_6" fill="#91C92C"></path>
            <path d="M95.1682238,44.6247635 C95.1707372,45.1755994 95.3878594,45.7028314 95.7717794,46.0903618 C96.1556995,46.4778921 96.6749347,46.6939419 97.215148,46.6909364 L104.953076,46.6909364 C106.07504,46.6896821 106.987428,45.7687134 107,44.6247635 C107,38.592572 103.049476,34 97.5421808,34 C91.2992599,34 87.0003231,38.9890123 87.0003231,45.0212038 L87.0003231,45.1019453 C86.9779949,48.020489 88.1136166,50.8243077 90.1491347,52.8762748 C92.1846528,54.9282418 94.9472019,56.0540947 97.8090332,55.9979999 C100.309604,56.0226007 102.743435,55.1757193 104.707603,53.5975575 C105.206828,53.1958527 105.506432,52.5897226 105.526134,51.9415832 C105.545835,51.2934439 105.283621,50.6695581 104.809752,50.2370996 C103.976201,49.5337674 102.767611,49.542621 101.944058,50.2580923 C100.812636,51.2229802 99.3861496,51.7544708 97.9111814,51.7606902 C94.2876901,51.7606902 91.6880567,48.6925162 91.6880567,45.0187816 L91.6880567,44.9380402 C91.6880567,41.2643056 93.7349809,38.2365023 97.4812086,38.2365023 C99.9581056,38.2365023 101.698585,40.0523768 102.37403,42.5569757 L97.215148,42.5569757 C96.6746614,42.5539705 96.1551868,42.7702416 95.7712212,43.1581209 C95.3872555,43.5460002 95.170318,44.0736471 95.1682238,44.6247635 Z" id="Path_7" fill="#91C92C"></path>
        </g>
    </g>
</svg>