<svg xmlns="http://www.w3.org/2000/svg" viewBox="0 0 125.43 78.39"><defs><style>.cls-1{fill:#045ea0;}.cls-2{fill:#faa929;}.cls-2,.cls-3{fill-rule:evenodd;}.cls-3{fill:#fff;}</style></defs><title>Asset 11</title><g id="Layer_2" data-name="Layer 2"><g id="Layer_1-2" data-name="Layer 1"><rect class="cls-1" width="125.43" height="78.39" rx="4.18" ry="4.18"/><path class="cls-2" d="M42.24,44.15a65,65,0,0,1,40.45-4.06l.18-4.48c-18.61-2-32,3.9-40.63,8.1v.44Z"/><polygon class="cls-3" points="25.11 47.44 34.05 47.44 34.05 50.13 28.49 50.13 28.46 52.62 34 52.62 34 55.2 28.44 55.2 28.46 57.69 33.94 57.69 33.94 60.39 25.11 60.39 25.11 47.44 25.11 47.44"/><polygon class="cls-3" points="36.3 46.35 39.55 46.35 39.57 60.39 36.31 60.39 36.3 46.35 36.3 46.35"/><path class="cls-3" d="M50.75,59.32a6.83,6.83,0,0,1-4.28,1.4,4.66,4.66,0,0,1-5-4.84,5.11,5.11,0,0,1,5.07-5.26c3.59,0,4.72,2.54,4.72,5.78H44.75a2,2,0,0,0,2.26,2,4.18,4.18,0,0,0,2.66-.93l1.08,1.89Zm-2.39-4.83c0-1-.47-1.85-1.55-1.85a2.24,2.24,0,0,0-2,1.85Z"/><path class="cls-3" d="M61.16,59.75a7.43,7.43,0,0,1-3.46,1c-3,0-5.15-1.72-5.15-4.82a5,5,0,0,1,5.35-5.28,6.64,6.64,0,0,1,3.2.82l-1.05,2.13a4.09,4.09,0,0,0-1.53-.37,2.46,2.46,0,0,0-2.71,2.53,2.39,2.39,0,0,0,2.43,2.41A4.16,4.16,0,0,0,60,57.6l1.16,2.15Z"/><path class="cls-3" d="M62.36,51h1.47v-3.2H67L66.89,51h2.67l0,2.35H66.83c0,1.31-.09,2.7-.09,3.5S67,58,67.68,58a2.38,2.38,0,0,0,1.19-.45l.71,2.21a6.33,6.33,0,0,1-3.21.93c-2.64,0-2.77-1.66-2.77-3.83,0-1.16.09-2.32.09-3.58h-1.4L62.36,51Z"/><path class="cls-3" d="M71.23,51h3.26v1.32h0a2.69,2.69,0,0,1,2.39-1.59,4.59,4.59,0,0,1,1.06.12L77.55,54a3.9,3.9,0,0,0-1.15-.18,2.29,2.29,0,0,0-1.93,1.1l-.06,5.45H71.16L71.23,51Z"/><path class="cls-3" d="M83.88,50.62c3.48,0,5.28,2.21,5.28,5.05s-1.8,5-5.28,5-5.27-2.21-5.27-5,1.79-5.05,5.27-5.05Zm0,7.63c1.56,0,2-1.34,2-2.58s-.46-2.58-2-2.58-2,1.35-2,2.58.47,2.58,2,2.58Z"/><path class="cls-3" d="M90.93,51h3.26v1a4.59,4.59,0,0,1,3-1.36c2,0,3.08,1.1,3.08,3.68,0,1.93,0,4,0,6.09H97c0-1.82,0-3.65,0-5.6,0-.77-.21-1.37-1.18-1.37a3.08,3.08,0,0,0-1.7.86l0,6.11H90.85L90.93,51Z"/><polygon class="cls-3" points="51.89 31.53 56 17.97 59.67 17.97 55.56 31.53 51.89 31.53 51.89 31.53"/><path class="cls-3" d="M50.25,18,47,23.72a14.24,14.24,0,0,0-1.57,3.22h-.05c.06-1.21-.11-2.69-.13-3.52L44.84,18H38.66l-.06.37a2.55,2.55,0,0,1,2.78,2.42l1.21,10.77h3.8L54.08,18Z"/><path class="cls-3" d="M78.79,31.53l-.1-2H74.11l-.94,2h-4L76.41,18H81.3l1.22,13.54Zm-.42-8c0-1-.07-2.36,0-3.19h0c-.22.68-1.19,2.7-1.6,3.69l-1.37,3h3.22l-.19-3.48Z"/><path class="cls-3" d="M63.53,31.92A10.27,10.27,0,0,1,58,30.36l1.75-2.67A6.72,6.72,0,0,0,63.69,29a1.71,1.71,0,0,0,1.61-.77c.51-.89-.11-1.36-1.55-2.17L63,25.62c-2.12-1.45-3-2.83-2-5.24.64-1.54,2.33-2.71,5.11-2.71a8.2,8.2,0,0,1,4.77,1.64l-2,2.36A4.49,4.49,0,0,0,66,20.42a1.74,1.74,0,0,0-1.57.7c-.38.76.13,1.28,1.25,2l.84.54c2.58,1.63,3.19,3.33,2.55,4.93-1.12,2.74-3.3,3.36-5.57,3.36Z"/></g></g></svg>