<svg xmlns="http://www.w3.org/2000/svg" viewBox="0 0 125.43 78.39"><defs><style>.cls-1{fill:#121212;}.cls-2{fill:#ffde37;fill-rule:evenodd;}</style></defs><title>Asset 5</title><g id="Layer_2" data-name="Layer 2"><g id="Layer_1-2" data-name="Layer 1"><rect class="cls-1" width="125.43" height="78.39" rx="4.18" ry="4.18"/><polygon class="cls-2" points="95.89 47.22 95.26 47.22 95.26 31.37 95.89 31.37 95.89 47.22 95.89 47.22"/><polygon class="cls-2" points="88.3 47.17 87.68 47.17 87.68 31.32 88.3 31.32 88.3 47.17 88.3 47.17"/><polygon class="cls-2" points="29.79 38.41 30.42 33.84 31.06 38.41 34.14 38.41 35.64 31.35 33.23 31.35 32.57 35.81 31.91 31.35 28.97 31.35 28.31 35.7 27.66 31.35 25.15 31.35 26.66 38.41 29.79 38.41 29.79 38.41"/><polygon class="cls-2" points="36.85 38.41 42.98 38.41 42.98 36.57 39.89 36.57 39.89 35.74 42.8 35.74 42.8 33.92 39.89 33.92 39.89 33.16 42.88 33.16 42.88 31.35 36.85 31.35 36.85 38.41 36.85 38.41"/><path class="cls-2" d="M44.29,36.14a2.35,2.35,0,0,0,0,.26c0,1.34,1.23,2.13,3.52,2.13s3.5-.81,3.5-2.31c0-1.28-.72-1.66-2.52-2.27-1-.33-1.53-.31-1.53-.8,0-.26.17-.46.58-.46a.66.66,0,0,1,.68.78h2.61v-.3c0-1.24-1.13-2-3.21-2-2.29,0-3.51.88-3.51,2.27,0,1,.62,1.57,1.88,1.93a12.26,12.26,0,0,1,1.86.66.44.44,0,0,1,.26.5c0,.28-.21.45-.62.45s-.66-.31-.66-.79v-.06Z"/><polygon class="cls-2" points="58.78 31.35 52.07 31.35 52.07 33.23 53.94 33.23 53.94 38.41 56.92 38.41 56.92 33.23 58.78 33.23 58.78 31.35 58.78 31.35"/><polygon class="cls-2" points="60.07 38.41 66.2 38.41 66.2 36.57 63.11 36.57 63.11 35.74 65.99 35.74 65.99 33.92 63.11 33.92 63.11 33.16 66.1 33.16 66.1 31.35 60.07 31.35 60.07 38.41 60.07 38.41"/><path class="cls-2" d="M68.06,38.41H71V35.89h.27c.71,0,.81.26.93,1l.07.51a6.67,6.67,0,0,0,.23,1h3a12.37,12.37,0,0,1-.27-1.26l-.1-.75c-.13-1-.52-1.41-1.31-1.57a1.71,1.71,0,0,0,1.41-1.65c0-1.41-.89-1.83-3-1.83H68.06v7.06ZM71,34.16V32.93h.34c.66,0,1,.16,1,.6s-.36.65-1.07.65Z"/><polygon class="cls-2" points="79.27 34.38 80.84 38.41 84.26 38.41 84.26 31.35 81.95 31.35 81.95 34.94 80.64 31.35 76.96 31.35 76.96 38.41 79.27 38.41 79.27 34.38 79.27 34.38"/><polygon class="cls-2" points="55.9 42.8 57.48 46.83 60.89 46.83 60.89 39.77 58.58 39.77 58.58 43.37 57.28 39.77 53.59 39.77 53.59 46.83 55.9 46.83 55.9 42.8 55.9 42.8"/><polygon class="cls-2" points="79.34 42.8 80.91 46.83 84.33 46.83 84.33 39.77 82.02 39.77 82.02 43.37 80.72 39.77 77.03 39.77 77.03 46.83 79.34 46.83 79.34 42.8 79.34 42.8"/><path class="cls-2" d="M44.46,39.77V44a2.51,2.51,0,0,0,.68,2.07,4,4,0,0,0,2.93.86C50.54,47,51.7,46,51.7,44V39.77H48.76v4.36c0,.58-.26.89-.69.89s-.69-.29-.69-.89V39.77Z"/><polygon class="cls-2" points="65.82 39.77 62.81 39.77 62.81 46.83 65.82 46.83 65.82 39.77 65.82 39.77"/><path class="cls-2" d="M71.33,46.94c2.67,0,4.1-1.29,4.1-3.69s-1.44-3.7-4-3.7-4,1.34-4,3.71,1.45,3.68,4,3.68Zm.08-5.75c.7,0,.86.61.86,2s-.17,2.17-.87,2.17-.86-.67-.86-2,.16-2.1.87-2.1Z"/><path class="cls-2" d="M99.12,31.25a1.09,1.09,0,0,0-.79.32,1.15,1.15,0,0,0,0,1.63,1.11,1.11,0,0,0,.81.35,1.19,1.19,0,0,0,.83-.34,1.16,1.16,0,0,0,0-1.62,1.12,1.12,0,0,0-.83-.34Zm1,1.16a1,1,0,0,1-.29.69,1,1,0,0,1-.72.3,1,1,0,0,1-.7-.3,1,1,0,0,1-.29-.7,1.06,1.06,0,0,1,.3-.72,1,1,0,0,1,1.41,0,1,1,0,0,1,.29.72Zm-1-.69h-.49V33h.24v-.56h.24l.27.56h.27l-.29-.6a.33.33,0,0,0,.3-.35q0-.36-.54-.36Zm0,.16c.23,0,.34.07.34.23s-.11.2-.33.2h-.21v-.43Z"/></g></g></svg>