<svg xmlns="http://www.w3.org/2000/svg" viewBox="0 0 125.43 78.39"><defs><style>.cls-1{fill:#203c73;}.cls-2{fill:#fff;}</style></defs><title>Asset 16</title><g id="Layer_2" data-name="Layer 2"><g id="Layer_1-2" data-name="Layer 1"><rect class="cls-1" width="125.43" height="78.39" rx="4.18" ry="4.18"/><path class="cls-2" d="M39.61,45.13h-2.7l-2.32-8.4a21.9,21.9,0,0,1-.52-2.56h0a17.11,17.11,0,0,1-.49,2.51l-2.29,8.45H28.69l-3.53-13.6H27.5l2.09,8.26a21.15,21.15,0,0,1,.53,2.68h0a21,21,0,0,1,.54-2.58L33,31.53h2.4l2.38,8.38a24.7,24.7,0,0,1,.54,2.5h0c.14-.85.28-1.63.48-2.38l2.12-8.5h2.2l-3.53,13.6"/><path class="cls-2" d="M47.1,45.33c-2.78,0-4.59-1.55-4.59-5.08,0-3,2-5.34,5-5.34,2.69,0,4.58,1.49,4.58,5,0,3.08-2,5.4-5,5.4m.22-8.6c-1.31,0-2.58,1-2.58,3.3s.89,3.45,2.56,3.45c1.39,0,2.56-1.09,2.56-3.41C49.86,37.94,49,36.73,47.32,36.73Z"/><path class="cls-2" d="M58.41,37.05c-2-.39-3,1-3,4v4.07H53.29v-10h2.06a12.66,12.66,0,0,1-.21,2.22h0a3.07,3.07,0,0,1,3.33-2.4l-.1,2.12"/><rect class="cls-2" x="59.66" y="31.4" width="2.16" height="13.73"/><path class="cls-2" d="M70,45.13a12.13,12.13,0,0,1,.14-1.87h0a3.45,3.45,0,0,1-3.26,2.07c-2.46,0-3.69-1.81-3.69-4.72,0-3.44,2-5.66,5.24-5.66.48,0,1,0,1.51.08V31.4H72V45.13H70m-.1-8.28a7.34,7.34,0,0,0-1.59-.19c-1.71,0-2.88,1.05-2.88,3.75,0,2,.62,3.15,2,3.15,1.59,0,2.48-1.9,2.48-3.61Z"/><path class="cls-2" d="M76.81,40.15a9,9,0,0,1-1,0v5H73.61V31.53c1,0,2.22-.08,3.49-.08,3.22,0,5,1.57,5,4.09S80,40.15,76.81,40.15m.13-6.91a10.3,10.3,0,0,0-1.14,0v5a7.77,7.77,0,0,0,1,.08c1.84,0,3-1,3-2.62S78.91,33.24,76.94,33.24Z"/><path class="cls-2" d="M88.31,45.13a13.32,13.32,0,0,1,.1-1.85l0,0a3.52,3.52,0,0,1-3.33,2.07,2.64,2.64,0,0,1-2.8-2.78c0-2.26,2.24-3.49,5.91-3.49v-.58c0-1.23-.53-1.9-2.1-1.9a6.7,6.7,0,0,0-2.86.73l-.43-1.73a10.64,10.64,0,0,1,3.65-.67c3,0,3.89,1.33,3.89,3.33v4.15c0,.87,0,1.89.06,2.74H88.31m-.14-4.62c-3,0-3.83.83-3.83,1.78a1.3,1.3,0,0,0,1.37,1.35,2.68,2.68,0,0,0,2.46-2.84Z"/><path class="cls-2" d="M96.15,45.84c-1.25,3.34-2.58,4.37-4.86,4.37A8.42,8.42,0,0,1,90,50.09l.24-1.88a4.75,4.75,0,0,0,1.23.16c.94,0,1.83-.46,2.5-2.25l.36-1-3.75-10H93l1.63,4.58c.32.88.56,1.77.79,2.62h0c.21-.81.63-2.12,1-3.13l1.43-4.07h2.32l-4,10.73"/><polyline class="cls-2" points="96.88 31.58 96.16 31.58 96.16 31.32 97.89 31.32 97.89 31.58 97.17 31.58 97.17 33.5 96.88 33.5 96.88 31.58"/><path class="cls-2" d="M98.19,31.32h.43l.52,1.54c.07.22.08.26.1.33h0a3.07,3.07,0,0,1,.11-.35l.52-1.52h.39V33.5H100V31.68h0l-.63,1.82H99.1l-.62-1.85h0V33.5h-.28V31.32"/></g></g></svg>